<?xml version="1.0" encoding="UTF-8"?>
<svg id="Laag_2" data-name="Laag 2" xmlns="http://www.w3.org/2000/svg" viewBox="0 0 44.91 40.27">
  <defs>
    <style>
      .cls-1 {
        fill: #000;
      }

      .cls-1, .cls-2 {
        stroke-width: 0px;
      }

      .cls-2 {
        fill: #fff;
      }
    </style>
  </defs>
  <g id="Laag_1-2" data-name="Laag 1">
    <g>
      <path class="cls-2" d="M44.91,40.27c-14.97,0-29.94,0-44.91,0C0,26.85,0,13.42,0,0c14.97,0,29.94,0,44.91,0,0,13.42,0,26.85,0,40.27ZM13.21,32.52l-.04-.04c1.87,1.69,4.17,2.45,6.57,2.88,4.45.79,8.51-.21,12.31-2.65,4.08-2.63,6.56-6.28,6.98-11.09.54-6.18-2.02-10.9-7.28-14.2-4.02-2.52-8.34-3.43-12.95-2.26-5.44,1.38-9.7,4.43-11.71,9.84-2.37,6.39-.44,12.67,4.93,17,.33.26.79.36,1.18.53Z"/>
      <path class="cls-1" d="M13.21,32.52c-.4-.17-.86-.27-1.18-.53-5.37-4.33-7.31-10.61-4.93-17,2.01-5.41,6.27-8.45,11.71-9.84,4.61-1.17,8.92-.26,12.95,2.26,5.26,3.3,7.82,8.02,7.28,14.2-.42,4.81-2.9,8.46-6.98,11.09-3.8,2.45-7.86,3.44-12.31,2.65-2.4-.43-4.7-1.19-6.57-2.88.34.07.74.06,1.02.23,6.06,3.6,12.11,3.11,17.85-.51,3.74-2.36,6.11-5.98,6.47-10.53.5-6.32-2.19-10.95-7.65-14.21-6.01-3.59-14.71-2.93-20.2,2.92-1.01,1.08-1.92,2.32-2.59,3.63-2.58,5.06-1.72,11.47,2.36,15.69.92.95,1.85,1.88,2.77,2.82Z"/>
      <path class="cls-2" d="M13.21,32.52c-.92-.94-1.86-1.88-2.77-2.82-4.08-4.22-4.94-10.63-2.36-15.69.67-1.31,1.58-2.56,2.59-3.63,5.49-5.85,14.19-6.51,20.2-2.92,5.45,3.26,8.15,7.89,7.65,14.21-.36,4.54-2.73,8.16-6.47,10.53-5.73,3.63-11.79,4.12-17.85.51-.29-.17-.68-.16-1.02-.23,0,0,.04.04.04.04ZM14.31,20.3c.15.79.15,1.66.48,2.37,1.27,2.75,2.64,5.42,2.86,8.56.11,1.57,2.01,2.55,3.73,2.39,2.03-.18,3.21-1.17,3.44-2.93.23-1.78-.58-3.15-1.83-4.29-1.43-1.3-1.7-3.01-.55-4.54.5-.67,1.15-1.27,1.82-1.77,1.25-.93,1.87-2.33,1.51-3.67-.32-1.19-1.41-1.97-3.02-1.99-2.14-.03-4.18.44-6.02,1.61-1.55.99-2.44,2.34-2.42,4.25ZM19.58,11.22c-.71-.9-1.67-.83-2.18.55-.69.38-1.29.51-1.52.88-.3.48-.32,1.09-1.01,1.33-.18.06-.26.74-.18,1.07.07.28.45.65.72.67.27.02.68-.29.82-.56.43-.86,1.31-1.14,2.01-1.19,1.04-.07,1.45-.51,1.56-1.09.64.21,1.38.72,1.92.57.96-.28,1.24-1.32,1-2.21-.13-.51-.87-1.29-1.19-1.22-.67.13-1.24.74-1.95,1.22ZM30.07,12.75l-.36.24c.35.45.76.87,1.03,1.37,1.58,2.88,1.44,5.11-1.3,7.45-.35.3-.65.65-.98.97.1.08.21.17.31.25,1.83-1.23,3.43-2.7,3.57-5.1.12-2.06-.71-3.83-2.27-5.18ZM26.87,11.06c-.02-1.27-.79-2.27-1.74-2.25-1.04.01-2.22,1.56-2.18,2.84.04,1.32.84,2.29,1.87,2.26,1.12-.03,2.07-1.35,2.05-2.85ZM26.94,20.99c1.82-.51,2.85-1.92,2.76-3.44-.08-1.39-.92-2.8-2.09-3.09,1.99,2.47,2.17,4.67-.67,6.53Z"/>
      <path class="cls-1" d="M14.31,20.3c-.02-1.91.87-3.26,2.42-4.25,1.84-1.18,3.88-1.64,6.02-1.61,1.61.02,2.7.8,3.02,1.99.37,1.34-.26,2.74-1.51,3.67-.67.5-1.32,1.1-1.82,1.77-1.15,1.53-.88,3.24.55,4.54,1.25,1.14,2.06,2.51,1.83,4.29-.23,1.76-1.41,2.75-3.44,2.93-1.73.16-3.62-.82-3.73-2.39-.23-3.14-1.6-5.81-2.86-8.56-.33-.71-.33-1.58-.48-2.37ZM14.87,20.65c.15.57.29,1.64.72,2.57,1.08,2.35,2.35,4.59,2.43,7.32.04,1.54.98,2.46,2.5,2.48,1.09.01,2.43-.29,3.21-.96.89-.77.87-2.19.3-3.31-.43-.85-1.04-1.66-1.72-2.33-1.05-1.03-1.3-2.21-.94-3.55.35-1.31,1.22-2.24,2.4-2.92,1.16-.68,1.81-2.22,1.5-3.34-.32-1.13-1.29-1.73-2.92-1.65-2.05.1-3.98.59-5.72,1.8-1.25.87-1.65,2.02-1.75,3.9Z"/>
      <path class="cls-1" d="M19.58,11.22c.71-.48,1.28-1.09,1.95-1.22.32-.06,1.05.72,1.19,1.22.23.89-.04,1.93-1,2.21-.54.16-1.28-.36-1.92-.57-.11.58-.52,1.02-1.56,1.09-.7.05-1.58.34-2.01,1.19-.14.27-.55.58-.82.56-.27-.02-.64-.38-.72-.67-.09-.34,0-1.01.18-1.07.69-.24.71-.85,1.01-1.33.23-.37.83-.5,1.52-.88.52-1.37,1.48-1.45,2.18-.55ZM22.66,11.59c-.56-.5-.88-1.04-1.24-1.06-.74-.05-1.09.58-.94,1.25.11.47.52.87.8,1.3.4-.43.8-.86,1.38-1.48ZM19.59,12.28c-.44-.44-.74-.75-1.04-1.05-.21.35-.61.72-.59,1.06.02.39.41.77.64,1.15.28-.33.57-.67.99-1.16Z"/>
      <path class="cls-1" d="M30.07,12.75c1.56,1.35,2.4,3.11,2.27,5.18-.14,2.39-1.74,3.86-3.57,5.1-.1-.08-.21-.17-.31-.25.33-.32.63-.67.98-.97,2.74-2.34,2.89-4.57,1.3-7.45-.27-.5-.68-.92-1.03-1.37l.36-.24Z"/>
      <path class="cls-1" d="M26.87,11.06c.02,1.5-.92,2.82-2.05,2.85-1.03.03-1.83-.94-1.87-2.26-.04-1.29,1.14-2.83,2.18-2.84.95-.01,1.72.99,1.74,2.25ZM23.31,11.8c.48.55.86,1.32,1.46,1.58.68.29,1.58-1.04,1.57-2.22-.01-.85-.17-1.7-1.22-1.81-.72-.08-1.53,1.15-1.81,2.45Z"/>
      <path class="cls-1" d="M26.94,20.99c2.84-1.86,2.66-4.06.67-6.53,1.17.29,2.01,1.7,2.09,3.09.09,1.52-.94,2.93-2.76,3.44Z"/>
      <path class="cls-2" d="M14.87,20.65c.1-1.87.5-3.03,1.75-3.9,1.75-1.21,3.67-1.7,5.72-1.8,1.64-.08,2.61.52,2.92,1.65.32,1.12-.33,2.66-1.5,3.34-1.17.69-2.04,1.61-2.4,2.92-.36,1.33-.11,2.52.94,3.55.68.67,1.29,1.48,1.72,2.33.57,1.12.59,2.54-.3,3.31-.78.68-2.12.98-3.21.96-1.52-.02-2.46-.94-2.5-2.48-.07-2.72-1.35-4.96-2.43-7.32-.43-.93-.57-2-.72-2.57Z"/>
      <path class="cls-2" d="M22.66,11.59c-.58.62-.98,1.05-1.38,1.48-.28-.43-.69-.83-.8-1.3-.15-.66.2-1.29.94-1.25.36.02.68.56,1.24,1.06Z"/>
      <path class="cls-2" d="M19.59,12.28c-.42.49-.7.83-.99,1.16-.23-.38-.62-.75-.64-1.15-.02-.34.38-.71.59-1.06.3.3.6.61,1.04,1.05Z"/>
      <path class="cls-2" d="M23.31,11.8c.28-1.3,1.09-2.53,1.81-2.45,1.05.11,1.21.96,1.22,1.81.02,1.18-.88,2.51-1.57,2.22-.6-.26-.98-1.03-1.46-1.58Z"/>
    </g>
  </g>
</svg>