<?xml version="1.0" encoding="UTF-8"?>
<svg id="Laag_2" data-name="Laag 2" xmlns="http://www.w3.org/2000/svg" xmlns:xlink="http://www.w3.org/1999/xlink" viewBox="0 0 24.18 24.18">
  <defs>
    <style>
      .cls-1 {
        clip-path: url(#clippath);
      }

      .cls-2 {
        fill: none;
      }

      .cls-2, .cls-3, .cls-4 {
        stroke-width: 0px;
      }

      .cls-3 {
        fill: #000;
      }

      .cls-4 {
        fill: #fff;
      }
    </style>
    <clipPath id="clippath">
      <path class="cls-2" d="M0,12.09c0,6.68,5.41,12.09,12.09,12.09s12.09-5.41,12.09-12.09S18.77,0,12.09,0,0,5.41,0,12.09"/>
    </clipPath>
  </defs>
  <g id="Laag_1-2" data-name="Laag 1">
    <g class="cls-1">
      <g>
        <path class="cls-4" d="M23.76,12.07c0,6.45-5.23,11.67-11.67,11.67S.42,18.52.42,12.07,5.64.4,12.09.4s11.67,5.23,11.67,11.67"/>
        <path class="cls-3" d="M12.09,23.93C5.55,23.93.24,18.61.24,12.07S5.55.22,12.09.22s11.86,5.32,11.86,11.86-5.32,11.86-11.86,11.86M12.09.58C5.75.58.6,5.74.6,12.07s5.15,11.49,11.49,11.49,11.49-5.15,11.49-11.49S18.43.58,12.09.58"/>
        <path class="cls-4" d="M17.67,5.86c.09-.44.39-.75.69-.69.3.06.47.46.38.9-.09.44-.4.75-.69.69-.3-.06-.47-.46-.38-.9M19.11,7.65c.25,0,.44-.31.43-.67,0-.37-.21-.66-.46-.65-.25,0-.44.31-.43.67,0,.37.21.66.46.65M16.89,6.22c.37,0,.67-.46.67-1.02s-.3-1.03-.67-1.02c-.37,0-.67.46-.67,1.02,0,.57.3,1.02.67,1.03M14.19,7.06c-.77,0-2.21.19-2.21,1.89,0,2.46,2.91,2.44,2.91,5.14,0,2.16-2.27,2.44-2.19,4.9.04,1.32.55,2.48,2.63,2.48,1.42,0,2.24-1.39,2.24-2.65,0-3.43,2.21-4.45,2.1-7.8-.11-3.34-4.05-3.96-5.48-3.96M12.71,6.18c.63-.1,1.02-.97.88-1.93-.15-.96-.78-1.66-1.41-1.56-.63.1-1.02.97-.88,1.93.15.97.78,1.66,1.41,1.56M15.09,5.93c.46-.05.78-.63.71-1.32-.07-.68-.49-1.2-.95-1.15-.46.05-.77.63-.71,1.32.07.68.49,1.2.95,1.15"/>
        <path class="cls-3" d="M15.33,21.65c-1.83,0-2.75-.87-2.81-2.66-.04-1.35.58-2.07,1.18-2.76.52-.6,1.01-1.17,1.01-2.14,0-1.3-.7-1.92-1.44-2.57-.72-.63-1.46-1.29-1.46-2.57s.85-2.07,2.39-2.07c1.91,0,5.56.86,5.66,4.14.06,1.73-.5,2.88-1.04,3.99-.52,1.06-1.06,2.16-1.06,3.82,0,1.39-.91,2.84-2.42,2.84M14.19,7.24c-1.34,0-2.03.57-2.03,1.71s.65,1.69,1.34,2.3c.77.68,1.57,1.38,1.57,2.85,0,1.1-.56,1.75-1.1,2.38-.58.67-1.13,1.31-1.09,2.51.05,1.59.81,2.31,2.45,2.31,1.29,0,2.06-1.26,2.06-2.47,0-1.74.56-2.88,1.09-3.98.55-1.12,1.06-2.17,1.01-3.82-.12-3.74-5.25-3.78-5.3-3.78M19.1,7.84c-.13,0-.26-.05-.37-.16-.16-.15-.26-.41-.27-.67,0-.06,0-.11,0-.17,0,0,0,0,0,0-.15.1-.31.13-.46.11-.33-.07-.55-.41-.55-.83-.15.18-.35.29-.56.29h0c-.48,0-.86-.53-.86-1.21,0-.31.08-.6.23-.83.16-.25.39-.38.63-.38h0c.18,0,.35.08.5.22.22.22.36.59.36.99,0,.02,0,.04,0,.06.05-.07.12-.12.18-.16.15-.1.31-.13.46-.1.15.03.29.12.39.27.15.22.2.53.14.85,0,.03-.01.05-.02.08.06-.02.11-.04.18-.04.36,0,.64.36.65.83,0,.27-.08.52-.23.68-.11.11-.24.17-.37.17h-.01M19.09,6.51h0c-.12,0-.26.21-.25.49,0,.17.06.33.15.42.03.03.07.06.12.06h0s.08-.02.12-.06c.09-.09.14-.25.13-.42,0-.27-.15-.47-.27-.47M18.28,5.34s-.1.02-.15.05c-.14.09-.25.28-.29.5-.07.36.07.66.24.69.07.01.14-.02.19-.05.14-.09.25-.28.29-.5.04-.22.01-.44-.08-.57-.04-.07-.1-.1-.16-.12-.01,0-.03,0-.04,0M16.89,4.35c-.16,0-.27.14-.32.22-.11.16-.17.39-.17.62,0,.45.23.84.49.84.27,0,.49-.39.49-.84,0-.29-.1-.57-.25-.73-.05-.05-.14-.12-.24-.11ZM12.58,6.38c-.22,0-.44-.08-.65-.23-.41-.3-.72-.86-.81-1.5-.16-1.08.29-2.02,1.03-2.14.27-.04.55.03.8.22.41.3.72.86.81,1.5.16,1.08-.29,2.02-1.03,2.14-.05,0-.1.01-.15.01M12.3,2.86s-.06,0-.09,0c-.52.08-.85.88-.73,1.73.08.54.33,1.02.67,1.26.12.09.31.19.53.15.52-.08.85-.87.73-1.72-.08-.54-.33-1.02-.67-1.26-.1-.08-.26-.16-.44-.16M15.03,6.12c-.54,0-1-.56-1.07-1.32-.07-.79.31-1.46.88-1.51.22-.02.43.05.62.2.29.24.49.65.53,1.11.08.79-.31,1.46-.87,1.51h0s-.05,0-.07,0M14.91,3.64s-.03,0-.04,0c-.35.04-.6.55-.55,1.12.05.57.4,1.02.75.99.35-.04.6-.55.55-1.12-.03-.36-.18-.69-.4-.87-.07-.06-.18-.12-.31-.12"/>
        <path class="cls-3" d="M19.43,11.06l-.62-1.32s-.05-.07-.08-.08c-.04-.01-.07,0-.11.01l-.1.07s-.06.05-.07.1c-.01.04,0,.09.01.12l.36.77-1.64-.55h0l-2.43-.82-.19-.06-1.46-.49.67-.42s.06-.05.07-.09c.01-.04,0-.08-.01-.12l-.06-.12s-.05-.07-.08-.08c-.04-.01-.07,0-.11.01l-1.14.72s-.06.05-.07.1c-.01.04,0,.08.01.12l.62,1.32s.05.07.08.08c.04.01.07,0,.11-.01l.1-.07s.06-.05.07-.1c.01-.04,0-.09-.01-.12l-.36-.77,1.64.55h0l2.43.82.27.09,1.37.47-.67.42s-.06.05-.07.09c-.01.04,0,.08.01.12l.06.12s.05.07.08.08c.04.01.07,0,.11-.01l1.14-.72s.06-.05.07-.1c.01-.04,0-.09-.01-.12"/>
        <polygon class="cls-3" points="4.32 16.36 4.32 9.56 5.53 9.56 5.53 12.29 8.29 12.29 8.29 9.56 9.49 9.56 9.49 16.36 8.29 16.36 8.29 13.34 5.53 13.34 5.53 16.36 4.32 16.36"/>
      </g>
    </g>
  </g>
</svg>