<?xml version="1.0" encoding="UTF-8"?>
<svg id="Laag_2" data-name="Laag 2" xmlns="http://www.w3.org/2000/svg" xmlns:xlink="http://www.w3.org/1999/xlink" viewBox="0 0 24.18 24.18">
  <defs>
    <style>
      .cls-1 {
        clip-path: url(#clippath);
      }

      .cls-2 {
        fill: none;
      }

      .cls-2, .cls-3, .cls-4 {
        stroke-width: 0px;
      }

      .cls-3 {
        fill: #000;
      }

      .cls-4 {
        fill: #fff;
      }
    </style>
    <clipPath id="clippath">
      <path class="cls-2" d="M0,12.09c0,6.68,5.41,12.09,12.09,12.09s12.09-5.41,12.09-12.09S18.77,0,12.09,0,0,5.41,0,12.09"/>
    </clipPath>
  </defs>
  <g id="Laag_1-2" data-name="Laag 1">
    <g class="cls-1">
      <g>
        <path class="cls-4" d="M23.76,12.07c0,6.45-5.23,11.67-11.67,11.67S.42,18.52.42,12.07,5.64.4,12.09.4s11.67,5.23,11.67,11.67"/>
        <path class="cls-3" d="M12.09,23.93C5.55,23.93.24,18.61.24,12.07S5.55.22,12.09.22s11.86,5.32,11.86,11.86-5.32,11.86-11.86,11.86M12.09.58C5.76.58.6,5.74.6,12.07s5.16,11.49,11.49,11.49,11.49-5.16,11.49-11.49S18.43.58,12.09.58"/>
        <path class="cls-4" d="M17.19,5.9c.09-.44.41-.75.73-.69.31.06.49.46.4.9-.09.44-.41.75-.73.69-.31-.06-.49-.46-.4-.9M18.7,7.68c.26,0,.46-.31.45-.67,0-.36-.22-.65-.48-.65-.26,0-.46.31-.45.67,0,.36.23.65.48.65M16.38,6.26c.39,0,.71-.46.71-1.02s-.32-1.02-.71-1.02c-.39,0-.7.45-.7,1.02,0,.56.32,1.02.71,1.02M13.55,7.09c-.8,0-2.31.19-2.31,1.88,0,2.44,3.04,2.42,3.04,5.11,0,2.15-2.37,2.42-2.29,4.86.05,1.31.57,2.47,2.76,2.47,1.49,0,2.35-1.38,2.35-2.64,0-3.4,2.31-4.42,2.2-7.75-.11-3.32-4.24-3.93-5.74-3.93M11.99,6.22c.66-.1,1.07-.96.92-1.92-.15-.96-.81-1.65-1.47-1.55-.66.1-1.07.96-.92,1.92.15.96.81,1.65,1.47,1.55M14.49,5.97c.48-.05.81-.63.74-1.31-.07-.68-.51-1.19-.99-1.14-.48.05-.81.63-.75,1.31.07.68.51,1.19.99,1.14"/>
        <path class="cls-3" d="M14.74,21.59c-1.91,0-2.88-.86-2.94-2.64-.05-1.34.6-2.06,1.23-2.75.54-.6,1.06-1.16,1.06-2.12,0-1.29-.73-1.9-1.51-2.55-.75-.63-1.53-1.28-1.53-2.56s.89-2.06,2.49-2.06c2,0,5.81.86,5.92,4.11.06,1.73-.53,2.86-1.09,3.96-.54,1.06-1.1,2.15-1.1,3.79,0,1.38-.95,2.82-2.53,2.82M13.55,7.27c-.97,0-2.13.29-2.13,1.7,0,1.11.68,1.68,1.4,2.28.77.64,1.64,1.37,1.64,2.83,0,1.1-.59,1.74-1.15,2.37-.61.67-1.18,1.3-1.14,2.49.04,1.07.36,2.29,2.58,2.29,1.36,0,2.17-1.25,2.17-2.46,0-1.73.58-2.86,1.14-3.95.57-1.11,1.11-2.15,1.05-3.79-.13-3.72-5.51-3.76-5.56-3.76M18.7,7.86c-.14,0-.28-.06-.39-.16-.16-.16-.26-.4-.27-.66,0-.06,0-.12.01-.18-.15.1-.32.15-.5.12-.16-.03-.31-.13-.41-.29-.1-.16-.16-.35-.16-.56-.16.19-.37.31-.6.31h0c-.5,0-.89-.53-.89-1.2,0-.31.09-.6.24-.82.17-.24.4-.38.65-.38h0c.19,0,.37.08.53.23.23.22.36.59.36.97,0,.03,0,.05,0,.08.18-.22.43-.33.68-.28.16.03.31.13.41.28.15.22.2.52.13.83,0,.03-.01.06-.02.08.06-.03.13-.04.2-.04h0c.36,0,.65.36.66.83,0,.26-.08.51-.23.67-.11.12-.25.18-.39.18h-.01M18.68,6.55h0c-.09,0-.15.08-.18.12-.06.09-.1.23-.09.36,0,.17.06.32.15.4.03.03.08.07.14.06h0s.1-.02.14-.07c.09-.09.14-.25.13-.41,0-.28-.16-.47-.29-.47M17.84,5.39c-.2,0-.41.24-.47.55h0c-.04.21-.01.42.08.55.03.05.09.11.18.13.21.04.45-.21.51-.55.04-.21.01-.42-.08-.56-.03-.05-.09-.11-.18-.13-.01,0-.03,0-.05,0M16.38,4.41c-.17,0-.29.14-.35.22-.11.16-.17.38-.17.62,0,.45.24.84.52.84.28,0,.52-.38.52-.84,0-.29-.09-.55-.25-.71-.06-.06-.15-.13-.27-.13h0ZM11.86,6.41c-.71,0-1.36-.72-1.52-1.71-.1-.62.02-1.23.32-1.65.2-.27.45-.44.75-.48.75-.12,1.51.65,1.68,1.7.1.62-.02,1.23-.32,1.65-.2.27-.45.44-.75.48-.05,0-.11.01-.16.01M11.57,2.92s-.07,0-.1,0c-.19.03-.37.15-.51.34-.25.34-.34.85-.26,1.38.14.86.71,1.49,1.27,1.4.19-.03.37-.15.51-.34.25-.34.34-.85.26-1.37-.13-.81-.64-1.41-1.17-1.41M14.43,6.16c-.56,0-1.04-.56-1.11-1.31-.04-.45.07-.88.31-1.17.16-.2.37-.31.6-.34.59-.06,1.11.52,1.19,1.31.05.45-.07.87-.31,1.17-.16.2-.37.32-.6.34-.03,0-.05,0-.08,0M14.3,3.7s-.03,0-.04,0c-.17.02-.29.12-.36.21-.18.21-.26.55-.23.9.06.57.42,1.01.8.98.17-.02.29-.12.36-.21.18-.21.26-.55.22-.9-.05-.55-.39-.98-.75-.98"/>
        <path class="cls-3" d="M19.04,11.07l-.65-1.31s-.05-.06-.09-.08c-.04-.01-.08,0-.11.01l-.11.07s-.06.05-.07.09c-.01.04,0,.09.01.12l.38.77-1.72-.55h0l-2.54-.82-.2-.06-1.53-.49.71-.42s.06-.05.07-.09c.01-.04,0-.08-.01-.12l-.06-.12s-.05-.06-.09-.08c-.04-.01-.08,0-.11.01l-1.2.71s-.06.05-.07.1c-.01.04,0,.08.01.12l.65,1.31s.05.06.09.08c.04.01.08,0,.11-.01l.11-.06s.06-.05.07-.1c.01-.04,0-.09-.01-.12l-.38-.76,1.72.55,2.54.82.29.09,1.44.46-.71.42s-.06.05-.07.09c-.01.04,0,.08.01.12l.06.12s.05.06.09.08c.04.01.08,0,.11-.01l1.2-.71s.06-.05.07-.1c.01-.04,0-.08-.01-.12"/>
        <polygon class="cls-3" points="4.71 16.33 4.71 9.57 5.91 9.57 5.91 12.64 5.94 12.64 8.34 9.57 9.68 9.57 7.6 12.21 10.03 16.33 8.71 16.33 6.88 13.15 5.91 14.36 5.91 16.33 4.71 16.33"/>
      </g>
    </g>
  </g>
</svg>