<?xml version="1.0" encoding="UTF-8"?>
<svg id="Laag_2" data-name="Laag 2" xmlns="http://www.w3.org/2000/svg" xmlns:xlink="http://www.w3.org/1999/xlink" viewBox="0 0 24.18 24.18">
  <defs>
    <style>
      .cls-1 {
        clip-path: url(#clippath);
      }

      .cls-2 {
        fill: none;
      }

      .cls-2, .cls-3, .cls-4 {
        stroke-width: 0px;
      }

      .cls-3 {
        fill: #000;
      }

      .cls-4 {
        fill: #fff;
      }
    </style>
    <clipPath id="clippath">
      <path class="cls-2" d="M0,12.09c0,6.68,5.41,12.09,12.09,12.09s12.09-5.41,12.09-12.09S18.77,0,12.09,0,0,5.41,0,12.09"/>
    </clipPath>
  </defs>
  <g id="Laag_1-2" data-name="Laag 1">
    <g class="cls-1">
      <g>
        <path class="cls-4" d="M23.76,12.07c0,6.45-5.23,11.67-11.67,11.67S.42,18.52.42,12.07,5.64.4,12.09.4s11.67,5.23,11.67,11.67"/>
        <path class="cls-3" d="M12.09,23.93C5.55,23.93.24,18.61.24,12.07S5.55.22,12.09.22s11.86,5.32,11.86,11.86-5.32,11.86-11.86,11.86M12.09.58C5.75.58.6,5.74.6,12.07s5.15,11.49,11.49,11.49,11.49-5.15,11.49-11.49S18.43.58,12.09.58"/>
        <path class="cls-4" d="M16.96,5.86c.1-.44.46-.75.81-.69.35.06.55.46.45.9-.1.44-.47.75-.81.69-.35-.06-.55-.46-.45-.9M18.66,7.65c.29,0,.52-.31.51-.67,0-.37-.25-.66-.54-.65-.29,0-.52.31-.51.67.01.37.25.66.54.65M16.06,6.22c.44,0,.79-.46.79-1.02s-.36-1.02-.79-1.02-.79.46-.79,1.02c0,.57.36,1.02.79,1.03M12.87,7.06c-.9,0-2.6.19-2.6,1.89,0,2.46,3.42,2.44,3.42,5.14,0,2.16-2.67,2.44-2.57,4.9.05,1.32.64,2.48,3.09,2.48,1.67,0,2.64-1.4,2.64-2.65,0-3.43,2.6-4.45,2.47-7.8-.13-3.34-4.76-3.96-6.45-3.96M11.13,6.18c.74-.1,1.2-.97,1.03-1.93-.17-.96-.91-1.66-1.66-1.56-.74.1-1.2.97-1.03,1.93.17.97.91,1.66,1.65,1.56M13.93,5.93c.54-.05.91-.63.84-1.32-.08-.68-.57-1.2-1.11-1.15-.54.05-.91.63-.84,1.32.08.68.58,1.2,1.12,1.15"/>
        <path class="cls-3" d="M14.22,21.65c-2.14,0-3.21-.87-3.28-2.66-.05-1.36.68-2.08,1.39-2.77.61-.6,1.19-1.17,1.19-2.13,0-1.29-.82-1.91-1.7-2.57-.85-.63-1.72-1.29-1.72-2.58s.99-2.07,2.78-2.07c2.24,0,6.51.86,6.63,4.14.07,1.74-.59,2.89-1.23,4-.61,1.06-1.24,2.16-1.24,3.81,0,1.39-1.05,2.84-2.82,2.84M12.87,7.24c-1.1,0-2.42.3-2.42,1.71,0,1.11.76,1.68,1.57,2.29.86.65,1.85,1.38,1.85,2.86,0,1.11-.66,1.76-1.3,2.39-.68.67-1.32,1.3-1.28,2.5.04,1.07.41,2.31,2.91,2.31,1.54,0,2.45-1.26,2.45-2.47,0-1.75.65-2.89,1.29-3.99.64-1.11,1.24-2.17,1.18-3.8-.14-3.74-6.21-3.78-6.27-3.78M18.66,7.84c-.38,0-.7-.37-.71-.83,0-.07,0-.14.01-.2-.17.12-.37.17-.57.14-.19-.03-.36-.14-.47-.32-.11-.17-.16-.37-.15-.59-.18.23-.42.37-.7.37h0c-.54,0-.98-.54-.97-1.21,0-.31.1-.61.27-.84.18-.24.43-.37.7-.37h0c.22,0,.44.09.61.27.23.23.36.57.36.94,0,.04,0,.08,0,.12.2-.25.49-.38.78-.33.19.03.36.14.47.31.15.22.19.52.13.81,0,.03-.02.06-.03.09.08-.04.16-.06.25-.06h.01c.39,0,.7.36.72.83,0,.25-.08.49-.24.65-.12.13-.28.2-.45.2h-.01M18.64,6.51h0c-.09,0-.15.05-.19.09-.09.09-.14.24-.14.39,0,.26.17.47.35.47,0,0,0,0,0,0h0c.09,0,.15-.05.19-.09.09-.09.14-.24.13-.39,0-.26-.17-.48-.35-.48M17.69,5.34c-.23,0-.48.24-.55.56-.05.2-.02.39.07.52.04.06.11.14.23.16.25.04.53-.21.61-.55.04-.2.02-.4-.07-.53-.04-.06-.11-.13-.23-.15-.02,0-.04,0-.06,0M16.06,4.35c-.15,0-.3.08-.41.23-.12.16-.19.38-.19.61,0,.46.28.84.61.84s.61-.38.61-.84c0-.27-.09-.52-.25-.68-.07-.07-.19-.16-.36-.16h0M10.99,6.38c-.78,0-1.52-.73-1.69-1.72-.11-.6,0-1.18.31-1.6.22-.3.53-.5.87-.54.83-.11,1.67.65,1.86,1.71.11.6,0,1.18-.31,1.6-.22.31-.53.5-.87.54-.06,0-.11.01-.17.01M10.65,2.86s-.08,0-.12,0c-.25.03-.46.17-.63.4-.24.34-.34.83-.25,1.32.16.87.81,1.5,1.45,1.41.25-.03.46-.17.63-.4.24-.33.34-.83.25-1.32-.15-.81-.73-1.42-1.33-1.42M13.86,6.11c-.6,0-1.15-.57-1.23-1.32-.05-.43.06-.84.31-1.14.18-.22.43-.36.7-.38.64-.05,1.22.54,1.31,1.31.05.43-.06.84-.3,1.13-.18.22-.43.36-.7.38-.03,0-.05,0-.08,0M13.72,3.64s-.03,0-.05,0c-.17.01-.33.1-.45.25-.18.22-.26.53-.22.86.07.58.48,1.02.92.99.17-.01.33-.1.45-.25.18-.22.26-.53.22-.86-.06-.56-.44-.99-.86-.99"/>
        <path class="cls-3" d="M19.04,11.06l-.73-1.32s-.06-.07-.1-.08c-.04-.01-.09,0-.13.01l-.12.07s-.07.05-.08.1c-.01.04,0,.09.01.12l.43.77-1.93-.55-2.85-.82-.22-.06-1.71-.49.79-.42s.07-.05.08-.09c.01-.04,0-.08-.01-.12l-.07-.12s-.06-.07-.1-.08c-.04-.01-.09,0-.13.01l-1.35.72s-.07.05-.08.1c-.01.04,0,.08.01.12l.73,1.32s.06.07.1.08c.04.01.09,0,.13-.01l.12-.07s.07-.05.08-.1c.01-.04,0-.09-.01-.12l-.43-.77,1.93.55,2.85.82.32.09,1.61.46-.79.42s-.07.05-.08.09c-.01.04,0,.08.01.12l.07.12s.06.07.1.08c.04.01.09,0,.12-.01l1.35-.72s.07-.05.08-.1c.01-.04,0-.09-.01-.12"/>
        <path class="cls-3" d="M4.67,16v-6.8h2.3c.35,0,.68.03.99.1.3.07.57.18.79.34.22.16.4.36.52.62.13.26.19.58.19.96,0,.52-.12.94-.37,1.26-.25.32-.57.55-.98.69l1.62,2.84h-1.35l-1.47-2.66h-1.04v2.66h-1.21ZM5.88,12.38h.97c.46,0,.82-.1,1.07-.29.25-.19.37-.49.37-.87s-.12-.67-.37-.82c-.25-.15-.6-.23-1.07-.23h-.97v2.22Z"/>
      </g>
    </g>
  </g>
</svg>