<?xml version="1.0" encoding="UTF-8"?>
<svg id="Laag_2" data-name="Laag 2" xmlns="http://www.w3.org/2000/svg" xmlns:xlink="http://www.w3.org/1999/xlink" viewBox="0 0 24.18 24.18">
  <defs>
    <style>
      .cls-1 {
        clip-path: url(#clippath);
      }

      .cls-2 {
        fill: none;
      }

      .cls-2, .cls-3, .cls-4 {
        stroke-width: 0px;
      }

      .cls-3 {
        fill: #000;
      }

      .cls-4 {
        fill: #fff;
      }
    </style>
    <clipPath id="clippath">
      <path class="cls-2" d="M0,12.09c0,6.68,5.41,12.09,12.09,12.09s12.09-5.41,12.09-12.09S18.77,0,12.09,0,0,5.41,0,12.09"/>
    </clipPath>
  </defs>
  <g id="Laag_1-2" data-name="Laag 1">
    <g class="cls-1">
      <g>
        <path class="cls-4" d="M23.76,12.07c0,6.45-5.23,11.67-11.67,11.67S.42,18.52.42,12.07,5.64.4,12.09.4s11.67,5.23,11.67,11.67"/>
        <path class="cls-3" d="M12.09,23.93C5.55,23.93.24,18.61.24,12.07S5.55.22,12.09.22s11.86,5.32,11.86,11.86-5.32,11.86-11.86,11.86M12.09.58C5.75.58.6,5.74.6,12.07s5.15,11.49,11.49,11.49,11.49-5.15,11.49-11.49S18.43.58,12.09.58"/>
        <path class="cls-4" d="M17.61,5.86c.08-.44.36-.75.63-.69.27.06.42.46.35.9-.08.44-.36.75-.62.69-.27-.06-.43-.46-.35-.9M18.91,7.65c.22,0,.4-.31.39-.67,0-.37-.19-.66-.41-.65-.22,0-.4.31-.39.67,0,.37.19.66.41.65M16.91,6.22c.34,0,.61-.46.61-1.03s-.27-1.02-.61-1.02-.61.46-.61,1.02c0,.57.27,1.02.61,1.03M14.47,7.06c-.69,0-1.99.19-1.99,1.89,0,2.46,2.63,2.44,2.63,5.14,0,2.16-2.05,2.44-1.98,4.9.04,1.32.49,2.48,2.38,2.48,1.28,0,2.02-1.39,2.02-2.65,0-3.43,1.99-4.45,1.9-7.8-.1-3.34-3.66-3.96-4.95-3.96M13.13,6.18c.57-.1.92-.97.79-1.93-.13-.96-.7-1.66-1.27-1.56-.57.1-.92.97-.79,1.93.13.97.7,1.66,1.27,1.56M15.28,5.93c.41-.05.7-.63.64-1.32-.06-.68-.44-1.2-.86-1.15-.41.05-.7.63-.64,1.32.06.68.44,1.2.86,1.15"/>
        <path class="cls-3" d="M15.5,21.65c-1.67,0-2.51-.87-2.56-2.66-.04-1.34.52-2.06,1.06-2.75.47-.6.92-1.17.92-2.15,0-1.31-.63-1.93-1.3-2.58-.65-.63-1.32-1.29-1.32-2.56s.77-2.07,2.18-2.07c1.73,0,5.04.86,5.13,4.14.05,1.73-.45,2.87-.94,3.98-.47,1.06-.96,2.17-.96,3.82,0,1.39-.82,2.84-2.21,2.84M14.47,7.24c-1.2,0-1.81.57-1.81,1.71s.59,1.7,1.21,2.3c.7.68,1.42,1.38,1.42,2.84,0,1.1-.5,1.75-.99,2.37-.52.67-1.02,1.31-.98,2.52.05,1.6.72,2.31,2.19,2.31,1.14,0,1.84-1.28,1.84-2.47,0-1.74.5-2.87.99-3.97.49-1.12.96-2.17.91-3.82-.11-3.74-4.72-3.78-4.77-3.78M18.91,7.83c-.12,0-.23-.05-.33-.14-.16-.15-.26-.41-.26-.69,0-.05,0-.1,0-.15-.13.09-.27.11-.41.09-.3-.07-.49-.39-.51-.8-.13.16-.31.26-.49.26-.44,0-.79-.53-.79-1.21,0-.41.13-.79.35-1.01.13-.13.28-.19.44-.19h0c.16,0,.31.07.44.2.22.22.35.6.35,1.01v.02c.05-.05.1-.1.16-.14.13-.09.28-.12.41-.09.37.08.58.57.49,1.11,0,.02,0,.05-.01.07.04-.02.09-.03.14-.03.17,0,.33.1.45.27.1.15.15.35.16.56.01.47-.24.85-.57.86h-.01M18.89,6.51h0c-.09,0-.22.2-.21.49,0,.22.08.37.15.43.02.02.05.04.08.04,0,0,0,0,0,0h0c.09,0,.22-.2.21-.48,0-.14-.04-.28-.1-.37-.04-.06-.09-.1-.13-.1M18.16,5.34s-.07.01-.11.04c-.13.08-.23.29-.27.51-.06.36.06.66.21.69.04,0,.08,0,.13-.03.1-.07.23-.24.27-.51.06-.36-.06-.66-.2-.69,0,0-.02,0-.03,0M16.91,4.35c-.06,0-.12.03-.18.09-.15.15-.25.44-.25.75,0,.48.22.84.43.84s.43-.35.43-.84c0-.31-.09-.6-.25-.75-.06-.06-.12-.09-.18-.09h0ZM13.02,6.37c-.19,0-.38-.07-.55-.19-.4-.29-.69-.86-.78-1.54-.15-1.08.27-2.02.94-2.14.24-.04.48.02.7.18.4.29.69.86.78,1.54.15,1.08-.27,2.02-.94,2.14-.05,0-.1.01-.15.01M12.76,2.86s-.05,0-.08,0c-.47.08-.76.88-.64,1.73.08.57.32,1.06.64,1.29.14.1.28.14.42.12.47-.08.76-.88.64-1.73-.08-.57-.32-1.06-.64-1.29-.11-.08-.23-.12-.34-.12M15.23,6.11c-.16,0-.33-.06-.47-.18-.28-.23-.48-.66-.52-1.14-.07-.79.29-1.45.8-1.51.19-.02.37.04.54.18.28.23.48.66.52,1.14.07.79-.28,1.45-.8,1.51-.02,0-.05,0-.07,0M15.12,3.64s-.02,0-.03,0c-.28.03-.53.49-.48,1.12.03.38.18.72.39.89.09.07.18.11.27.1.28-.03.54-.49.48-1.12-.03-.38-.18-.72-.38-.89-.08-.07-.16-.1-.24-.1"/>
        <path class="cls-3" d="M19.2,11.06l-.56-1.32s-.04-.07-.07-.08c-.03-.01-.07,0-.1.01l-.09.07s-.05.05-.06.1c0,.04,0,.09.01.12l.33.77-1.48-.55-2.19-.82-.17-.06-1.32-.49.61-.42s.05-.05.06-.09c.01-.04,0-.08-.01-.12l-.05-.12s-.04-.07-.08-.08c-.03-.01-.07,0-.1.01l-1.03.72s-.05.05-.06.1c-.01.04,0,.08.01.12l.56,1.32s.04.07.08.08c.03.01.07,0,.1-.01l.09-.07s.05-.05.06-.1c0-.04,0-.09-.01-.12l-.33-.77,1.48.55,2.19.82.25.09,1.24.47-.61.42s-.05.05-.06.09c0,.04,0,.08.01.12l.05.12s.04.07.08.08c.03.01.07,0,.1-.01l1.03-.72s.05-.05.06-.1c0-.04,0-.08-.01-.12"/>
        <path class="cls-3" d="M7.21,16.48c-.46,0-.88-.08-1.27-.23-.39-.15-.73-.38-1.02-.68-.29-.3-.51-.67-.67-1.1-.16-.44-.24-.94-.24-1.5s.08-1.05.25-1.49c.17-.44.39-.81.68-1.12.29-.31.63-.54,1.02-.7.39-.16.81-.24,1.26-.24.49,0,.9.09,1.23.27.34.18.61.38.83.6l-.64.78c-.17-.17-.37-.31-.58-.42-.21-.11-.48-.17-.8-.17s-.58.06-.83.17c-.25.11-.46.28-.63.49-.18.21-.31.47-.41.77-.1.3-.15.65-.15,1.03,0,.78.17,1.38.53,1.83.35.44.87.66,1.56.66.19,0,.38-.03.55-.08.17-.05.32-.13.43-.22v-1.47h-1.29v-.99h2.37v3c-.23.23-.53.42-.91.58-.38.16-.8.23-1.26.23"/>
      </g>
    </g>
  </g>
</svg>