<?xml version="1.0" encoding="UTF-8"?>
<svg id="Laag_2" data-name="Laag 2" xmlns="http://www.w3.org/2000/svg" xmlns:xlink="http://www.w3.org/1999/xlink" viewBox="0 0 24.18 24.18">
  <defs>
    <style>
      .cls-1 {
        clip-path: url(#clippath);
      }

      .cls-2 {
        fill: none;
      }

      .cls-2, .cls-3, .cls-4 {
        stroke-width: 0px;
      }

      .cls-3 {
        fill: #000;
      }

      .cls-4 {
        fill: #fff;
      }
    </style>
    <clipPath id="clippath">
      <path class="cls-2" d="M0,12.09c0,6.68,5.41,12.09,12.09,12.09s12.09-5.41,12.09-12.09S18.77,0,12.09,0,0,5.41,0,12.09"/>
    </clipPath>
  </defs>
  <g id="Laag_1-2" data-name="Laag 1">
    <g class="cls-1">
      <g>
        <path class="cls-4" d="M23.76,12.07c0,6.45-5.23,11.67-11.67,11.67S.42,18.52.42,12.07,5.64.4,12.09.4s11.67,5.23,11.67,11.67"/>
        <path class="cls-3" d="M12.09,23.93C5.55,23.93.24,18.61.24,12.07S5.55.22,12.09.22s11.86,5.32,11.86,11.86-5.32,11.86-11.86,11.86M12.09.58C5.76.58.6,5.74.6,12.07s5.16,11.49,11.49,11.49,11.49-5.16,11.49-11.49S18.43.58,12.09.58"/>
        <path class="cls-3" d="M14.11,21.65c-2.03,0-3.05-.87-3.11-2.66-.05-1.36.64-2.07,1.31-2.77.58-.6,1.13-1.17,1.13-2.13,0-1.3-.78-1.91-1.61-2.57-.8-.63-1.63-1.29-1.63-2.58s.94-2.07,2.64-2.07c2.12,0,6.17.86,6.29,4.14.06,1.74-.56,2.89-1.16,3.99-.58,1.06-1.18,2.16-1.18,3.81,0,1.39-1,2.84-2.68,2.84M12.83,7.24c-1.04,0-2.28.3-2.28,1.71,0,1.11.73,1.68,1.49,2.29.82.65,1.75,1.38,1.75,2.85,0,1.11-.62,1.76-1.23,2.39-.65.67-1.25,1.3-1.21,2.5.04,1.07.39,2.31,2.75,2.31,1.45,0,2.32-1.26,2.32-2.47,0-1.74.62-2.88,1.22-3.98.61-1.12,1.18-2.17,1.12-3.81-.14-3.74-5.87-3.78-5.93-3.78M18.31,7.84c-.37,0-.67-.37-.69-.83,0-.07,0-.13.01-.19-.16.11-.35.16-.53.13-.18-.03-.34-.14-.45-.3-.11-.16-.16-.37-.16-.58-.17.21-.4.34-.65.34-.52,0-.93-.54-.93-1.21,0-.31.09-.61.26-.83.18-.24.42-.37.68-.37h0c.21,0,.41.09.57.25.23.23.36.58.36.96,0,.03,0,.07,0,.1.19-.23.46-.36.73-.31.18.03.33.13.44.29.15.22.2.52.13.83,0,.03-.01.06-.02.09.07-.03.15-.05.22-.05h0c.38,0,.68.36.69.83,0,.26-.08.5-.24.66-.12.12-.27.19-.42.19h-.01M18.3,6.51h0c-.07,0-.13.04-.16.08-.09.09-.14.24-.14.41,0,.26.15.47.32.47,0,0,0,0,0,0h0c.07,0,.13-.04.17-.08.09-.09.14-.24.13-.4,0-.26-.15-.48-.32-.48M17.4,5.34c-.22,0-.44.24-.51.56-.04.2-.02.4.08.54.04.06.1.13.21.15.23.04.49-.21.56-.55.04-.2.01-.41-.08-.55-.04-.05-.1-.12-.2-.14-.02,0-.03,0-.05,0M15.85,4.35c-.14,0-.28.08-.38.23-.12.16-.19.38-.19.62,0,.46.26.84.57.84.31,0,.57-.39.57-.84,0-.28-.1-.54-.26-.7-.07-.07-.17-.14-.31-.14h0ZM11.05,6.38c-.74,0-1.45-.73-1.61-1.72-.1-.61.01-1.21.32-1.63.21-.29.49-.47.81-.51.8-.12,1.6.65,1.78,1.71.1.61-.01,1.21-.32,1.63-.21.29-.49.47-.81.51-.05,0-.11.01-.16.01M10.73,2.86s-.08,0-.11,0c-.22.03-.42.16-.57.37-.25.34-.34.84-.25,1.35.15.87.76,1.5,1.36,1.41.22-.03.42-.16.57-.37.25-.34.34-.84.25-1.35-.14-.81-.68-1.42-1.25-1.42M13.77,6.12c-.58,0-1.1-.57-1.18-1.32-.05-.44.07-.86.31-1.16.18-.21.4-.34.65-.36.61-.05,1.17.53,1.25,1.31.05.44-.06.86-.31,1.16-.17.21-.4.34-.65.36h0s-.05,0-.08,0M13.64,3.64s-.03,0-.05,0c-.19.02-.32.13-.4.23-.18.21-.26.55-.23.89.06.58.45,1.03.86.99.19-.02.33-.13.4-.23.18-.21.26-.55.22-.88-.06-.56-.42-.99-.81-.99"/>
        <path class="cls-3" d="M18.68,11.06l-.7-1.32s-.05-.07-.09-.08c-.04-.01-.08,0-.12.01l-.12.07s-.06.05-.07.1c-.01.04,0,.09.01.12l.41.77-1.83-.55-2.7-.82-.21-.06-1.63-.49.75-.42s.06-.05.07-.09c.01-.04,0-.08-.01-.12l-.06-.12s-.05-.07-.09-.08c-.04-.01-.08,0-.12.01l-1.28.72s-.06.05-.07.1c-.01.04,0,.08.01.12l.7,1.32s.05.07.09.08c.04.01.08,0,.12-.01l.12-.07s.06-.05.07-.1c.01-.04,0-.09-.01-.12l-.41-.77,1.83.55h0l2.7.82.31.09,1.53.47-.75.42s-.06.05-.07.09c-.01.04,0,.08.01.12l.06.12s.05.07.09.08c.04.01.08,0,.12-.01l1.28-.72s.06-.05.07-.1c.01-.04,0-.09-.01-.12"/>
        <polygon class="cls-3" points="5.05 16.36 5.05 9.56 6.26 9.56 6.26 15.34 9.09 15.34 9.09 16.36 5.05 16.36"/>
      </g>
    </g>
  </g>
</svg>