<?xml version="1.0" encoding="UTF-8"?>
<svg id="Laag_2" data-name="Laag 2" xmlns="http://www.w3.org/2000/svg" xmlns:xlink="http://www.w3.org/1999/xlink" viewBox="0 0 24.18 24.18">
  <defs>
    <style>
      .cls-1 {
        stroke: #000;
        stroke-linecap: round;
        stroke-linejoin: round;
        stroke-width: .29px;
      }

      .cls-1, .cls-2 {
        fill: none;
      }

      .cls-3 {
        clip-path: url(#clippath);
      }

      .cls-2, .cls-4 {
        stroke-width: 0px;
      }

      .cls-4 {
        fill: #000;
      }
    </style>
    <clipPath id="clippath">
      <path class="cls-2" d="M0,12.09c0,6.68,5.41,12.09,12.09,12.09s12.09-5.41,12.09-12.09S18.77,0,12.09,0,0,5.41,0,12.09"/>
    </clipPath>
  </defs>
  <g id="Laag_1-2" data-name="Laag 1">
    <g class="cls-3">
      <g>
        <path class="cls-4" d="M12.09,23.93C5.55,23.93.23,18.61.23,12.07S5.55.22,12.09.22s11.86,5.32,11.86,11.86-5.32,11.86-11.86,11.86M12.09.58C5.75.58.6,5.74.6,12.07s5.15,11.49,11.49,11.49,11.49-5.16,11.49-11.49S18.43.58,12.09.58"/>
        <path class="cls-1" d="M4.34,7.31s.31-1.5.72-1.49c.53.02.52,1.79,1.05,1.86.54.07.56-1.82,1.1-1.88.54-.06.51,1.84,1.06,1.91.55.07.53-1.85,1.08-1.92.58-.07.57,1.97,1.15,2.03.57.06.5-1.97,1.07-2.04.56-.07.47,1.95,1.04,2.02.58.07.47-2,1.05-2.07.59-.08.52,2.03,1.11,2.1s.51-2.02,1.1-2.1c.6-.08.55,2.05,1.14,2.12.58.06.46-2.02,1.04-2.11.59-.09.56,2.02,1.15,2.07.37.04.65-1.34.65-1.34M4.34,17.87s.31-1.5.72-1.49c.53.02.52,1.79,1.05,1.86.54.07.56-1.82,1.1-1.88.54-.06.51,1.84,1.06,1.91.55.07.53-1.85,1.08-1.92.58-.07.57,1.97,1.15,2.03.57.06.5-1.97,1.07-2.04.56-.07.47,1.95,1.04,2.02.58.07.47-2,1.05-2.07.59-.08.52,2.03,1.11,2.1s.51-2.02,1.1-2.1c.6-.08.55,2.05,1.14,2.12.58.06.46-2.02,1.04-2.11.59-.09.56,2.02,1.15,2.07.37.04.65-1.34.65-1.34M4.34,15.25s.31-1.5.72-1.49c.53.02.52,1.79,1.05,1.86.54.07.56-1.82,1.1-1.88.54-.06.51,1.84,1.06,1.91.55.07.53-1.85,1.08-1.92.58-.07.57,1.97,1.15,2.03.57.06.5-1.97,1.07-2.04.56-.07.47,1.95,1.04,2.02.58.07.47-2,1.05-2.07.59-.08.52,2.03,1.11,2.1.59.07.51-2.02,1.1-2.1.6-.08.55,2.06,1.14,2.12.58.06.46-2.02,1.04-2.11.59-.09.56,2.02,1.15,2.07.37.04.65-1.34.65-1.34M4.34,12.6s.31-1.5.72-1.49c.53.02.52,1.79,1.05,1.86.54.07.56-1.82,1.1-1.88.54-.06.51,1.84,1.06,1.91.55.07.53-1.85,1.08-1.92.58-.07.57,1.97,1.15,2.03.57.06.5-1.97,1.07-2.04.56-.07.47,1.95,1.04,2.02.58.07.47-2,1.05-2.07.59-.08.52,2.03,1.11,2.1.59.07.51-2.02,1.1-2.1.6-.08.55,2.05,1.14,2.12.58.06.46-2.02,1.04-2.11.59-.09.56,2.02,1.15,2.07.37.04.65-1.34.65-1.34M4.34,9.98s.31-1.5.72-1.49c.53.02.52,1.79,1.05,1.86.54.07.56-1.82,1.1-1.88.54-.06.51,1.84,1.06,1.91.55.07.53-1.85,1.08-1.92.58-.07.57,1.97,1.15,2.03.57.06.5-1.97,1.07-2.04.56-.07.47,1.95,1.04,2.02.58.07.47-2,1.05-2.07.59-.08.52,2.03,1.11,2.1s.51-2.02,1.1-2.1c.6-.08.55,2.06,1.14,2.12.58.06.46-2.02,1.04-2.11.59-.09.56,2.02,1.15,2.07.37.04.65-1.34.65-1.34"/>
      </g>
    </g>
  </g>
</svg>