<?xml version="1.0" encoding="UTF-8"?>
<svg id="Laag_2" data-name="Laag 2" xmlns="http://www.w3.org/2000/svg" xmlns:xlink="http://www.w3.org/1999/xlink" viewBox="0 0 24.18 24.18">
  <defs>
    <style>
      .cls-1 {
        clip-path: url(#clippath);
      }

      .cls-2 {
        fill: none;
      }

      .cls-2, .cls-3 {
        stroke-width: 0px;
      }

      .cls-3 {
        fill: #000;
      }
    </style>
    <clipPath id="clippath">
      <path class="cls-2" d="M0,12.09c0,6.68,5.41,12.09,12.09,12.09s12.09-5.41,12.09-12.09S18.77,0,12.09,0,0,5.41,0,12.09"/>
    </clipPath>
  </defs>
  <g id="Laag_1-2" data-name="Laag 1">
    <g class="cls-1">
      <g>
        <path class="cls-3" d="M12.09,23.93C5.55,23.93.23,18.61.23,12.07S5.55.22,12.09.22s11.86,5.32,11.86,11.86-5.32,11.86-11.86,11.86M12.09.58C5.75.58.6,5.74.6,12.07s5.15,11.49,11.49,11.49,11.49-5.16,11.49-11.49S18.43.58,12.09.58"/>
        <path class="cls-3" d="M20.41,6.77s-.05-.02-.08-.02h-1.3v-1.62c0-.11-.09-.19-.19-.19s-.19.09-.19.19v4.76s0,.01,0,.01c0,0,0,.01,0,.01v1.28h-1.05v-1.29s0,0,0,0v-5.71s0,0,0,0h0c0-.11-.09-.2-.19-.2h-4.07v-1.4c0-.11-.09-.19-.19-.19s-.19.09-.19.19v5.66h-1.04V2.59c0-.11-.09-.19-.19-.19s-.19.09-.19.19v1.44h-1.04v-1.23c0-.11-.09-.19-.19-.19s-.19.09-.19.19v11.25h-1.04V3.25c0-.11-.09-.19-.19-.19s-.19.09-.19.19v2.23h-1.06v-1.55c0-.11-.09-.19-.19-.19s-.19.09-.19.19v1.55h-1.66c-.11,0-.19.09-.19.19s.09.19.19.19h3.1v1.01h-4.07c-.08,0-.15.05-.18.12-.01.03-.02.06-.02.08v4.07h-1.45c-.11,0-.19.09-.19.19s.09.19.19.19h2.89v1.1h-2.89c-.11,0-.19.09-.19.19s.09.19.19.19h1.45v3.96c0,.11.09.19.19.19,0,0,0,0,.01,0h0s0,0,0,0h1.22v1.93c0,.11.09.19.19.19s.19-.09.19-.19v-9.18h0s0-1.43,0-1.43c0,0,0,0,0,0v-1.21h1.01v12.91c0,.11.09.19.19.19s.19-.09.19-.19v-1.56h1.06v2.27c0,.11.09.19.19.19s.19-.09.19-.19v-5.03h1.04v5.6c0,.11.09.19.19.19s.19-.09.19-.19v-1.43h1.04v1.55c0,.11.09.19.19.19s.19-.09.19-.19v-11.44h1.04v11.44c0,.11.09.19.19.19s.19-.09.19-.19v-1.48h1.05v1.33c0,.11.09.19.19.19s.19-.09.19-.19v-2.75h1.01v2.27c0,.11.09.19.19.19s.19-.09.19-.19v-2.27h1.05v1.41c0,.11.09.19.19.19s.19-.09.19-.19v-4.37s0-.01,0-.02c0,0,0-.01,0-.02s0-.01,0-.02c0,0,0-.01,0-.01v-2.61s1.05,0,1.05,0v4.08s0,0,0,.01c0,0,0,.01,0,.01v2.01c0,.11.09.19.19.19s.19-.09.19-.19v-1.83h1.31c.11,0,.19-.09.19-.19,0,0,0,0,0,0V6.94c0-.08-.05-.15-.12-.18M5.86,16.77h-1.05v-.95h1.05v.95ZM5.86,15.44h-1.05v-1.05h1.05v1.05ZM5.86,14.01h-1.05v-1.01h1.05v1.01ZM5.86,11.14h-1.05v-1.05h1.05v1.05ZM5.86,9.7h-1.05v-1.05h1.05v1.05ZM5.86,8.28h-1.05v-1.03h1.05v1.03ZM16.16,4.36h1.05v1.09h-1.05v-1.09ZM16.16,5.84h1.05v1.05h-1.05v-1.05ZM16.16,7.27h1.05v1.01h-1.05v-1.01ZM16.16,8.66h1.05v1.05h-1.05v-1.05ZM16.16,10.1h1.05v1.1h-1.05v-1.1ZM14.77,4.36h1.01v12.57h-1.01V4.36ZM13.34,4.36h1.05v1.08h-1.05v-1.08ZM13.34,5.83h1.05v1.05h-1.05v-1.05ZM13.34,7.26h1.05v.99h-1.05v-.99ZM10.49,4.41h1.04v1.05h-1.04v-1.05ZM10.49,5.84h1.04v1.01h-1.04v-1.01ZM10.49,7.23h1.04v1.02h-1.04v-1.02ZM7.64,7.25h1.06v1.04h-1.06v-1.04ZM7.64,8.67h1.06v1.05h-1.06v-1.05ZM7.64,10.1h1.06v1.01h-1.06v-1.01ZM7.64,11.49h1.06v1.05h-1.06v-1.05ZM7.64,12.93h1.06v1.12h-1.06v-1.12ZM8.69,18.22h-1.06v-1.05h1.06v1.05ZM8.69,16.79h-1.06v-.95h1.06v.95ZM11.53,19.63h-1.04v-1.02h1.04v1.02ZM11.53,18.22h-1.04v-1.05h1.04v1.05ZM11.53,16.79h-1.04v-.95h1.04v.95ZM11.53,15.46h-3.9v-1.02h3.9v1.02ZM11.53,14.05h-1.04v-1.12h1.04v1.12ZM11.53,12.55h-1.04v-1.05h1.04v1.05ZM11.53,11.12h-1.04v-1h1.04v1ZM10.49,8.63h3.89v1.11h-3.89v-1.11ZM13.34,14.42h1.05v1.05h-1.05v-1.05ZM14.39,16.93h-1.05v-1.07h1.05v1.07ZM13.34,13.03h1.05v1.01h-1.05v-1.01ZM13.34,11.6h1.05v1.05h-1.05v-1.05ZM13.34,10.12h1.05v1.1h-1.05v-1.1ZM14.39,19.7h-1.05v-1.04h1.05v1.04ZM17.22,18.28h-3.88v-.96h3.88v.96ZM17.22,16.93h-1.05v-1.07h1.05v1.07ZM17.22,15.48h-1.05v-1.05h1.05v1.05ZM17.22,14.04h-1.05v-1.02h1.05v1.02ZM20.16,16.93h-1.12v-1.1h1.12v1.1ZM20.16,15.44h-1.12v-1.05h1.12v1.05ZM20.16,14.01h-1.12v-.98h1.12v.98ZM20.16,12.64h-3.99v-1.06h3.99v1.06ZM20.16,11.2h-1.12v-1.1h1.12v1.1ZM20.16,9.72h-1.12v-1.05h1.12v1.05ZM20.16,8.28h-1.12v-1.15h1.12v1.15Z"/>
      </g>
    </g>
  </g>
</svg>