<?xml version="1.0" encoding="UTF-8"?>
<svg id="Laag_2" data-name="Laag 2" xmlns="http://www.w3.org/2000/svg" xmlns:xlink="http://www.w3.org/1999/xlink" viewBox="0 0 24.18 24.18">
  <defs>
    <style>
      .cls-1 {
        clip-path: url(#clippath);
      }

      .cls-2 {
        fill: none;
      }

      .cls-2, .cls-3, .cls-4 {
        stroke-width: 0px;
      }

      .cls-3 {
        fill: #000;
      }

      .cls-4 {
        fill: #fff;
      }
    </style>
    <clipPath id="clippath">
      <path class="cls-2" d="M0,12.09c0,6.68,5.41,12.09,12.09,12.09s12.09-5.41,12.09-12.09S18.77,0,12.09,0,0,5.41,0,12.09"/>
    </clipPath>
  </defs>
  <g id="Laag_1-2" data-name="Laag 1">
    <g class="cls-1">
      <g>
        <path class="cls-4" d="M23.76,12.07c0,6.45-5.23,11.67-11.67,11.67S.42,18.52.42,12.07,5.64.4,12.09.4s11.67,5.23,11.67,11.67"/>
        <path class="cls-3" d="M12.09,23.93C5.55,23.93.24,18.61.24,12.07S5.55.22,12.09.22s11.86,5.32,11.86,11.86-5.32,11.86-11.86,11.86M12.09.58C5.75.58.6,5.74.6,12.07s5.15,11.49,11.49,11.49,11.49-5.16,11.49-11.49S18.43.58,12.09.58"/>
        <path class="cls-3" d="M10.81,15.5l-.34-1.67c-.13-.63-.46-.85-.84-.77-.42.09-.63.42-.51,1.04l.34,1.67-.37.08-.33-1.65c-.18-.87.21-1.32.82-1.44.58-.12,1.08.13,1.26,1l.34,1.67-.37.07Z"/>
        <path class="cls-3" d="M8.22,16.02l-.34-1.68c-.13-.63-.46-.85-.84-.77-.42.09-.63.42-.51,1.04l.34,1.68-.37.08-.33-1.65c-.18-.87.21-1.32.82-1.44.58-.12,1.08.12,1.26,1l.34,1.67-.37.08Z"/>
        <path class="cls-3" d="M13.4,14.97l-.34-1.67c-.13-.63-.46-.85-.84-.77-.42.09-.63.42-.51,1.04l.34,1.67-.37.08-.33-1.65c-.18-.87.21-1.32.82-1.44.58-.12,1.08.13,1.26,1l.34,1.67-.37.08Z"/>
        <path class="cls-3" d="M15.96,14.45l-.34-1.67c-.13-.63-.46-.85-.84-.77-.42.09-.63.42-.51,1.04l.34,1.67-.37.08-.34-1.65c-.18-.87.21-1.32.82-1.44.58-.12,1.08.12,1.26,1l.34,1.67-.37.08Z"/>
        <path class="cls-3" d="M18.54,13.93l-.34-1.67c-.13-.63-.46-.85-.84-.77-.42.09-.63.42-.51,1.04l.34,1.67-.37.08-.34-1.65c-.18-.87.21-1.32.82-1.44.58-.12,1.08.12,1.26,1l.34,1.67-.37.08Z"/>
        <path class="cls-3" d="M9.46,8.85l-.34-1.67c-.13-.63-.46-.85-.84-.77-.42.09-.63.42-.51,1.04l.34,1.68-.37.08-.33-1.65c-.18-.87.21-1.32.82-1.44.58-.12,1.08.12,1.26,1l.34,1.67-.37.08Z"/>
        <path class="cls-3" d="M6.88,9.37l-.34-1.67c-.13-.63-.46-.85-.84-.77-.42.08-.63.42-.51,1.04l.34,1.67-.37.08-.33-1.65c-.18-.87.21-1.32.82-1.44.58-.12,1.08.12,1.26,1l.34,1.67-.37.08Z"/>
        <path class="cls-3" d="M12.05,8.32l-.34-1.67c-.13-.63-.46-.85-.84-.77-.42.09-.63.42-.51,1.04l.34,1.67-.37.08-.33-1.65c-.18-.87.21-1.32.82-1.44.58-.12,1.08.13,1.26,1l.34,1.67-.37.08Z"/>
        <path class="cls-3" d="M14.61,7.8l-.34-1.67c-.13-.63-.46-.85-.84-.77-.42.09-.63.42-.51,1.04l.34,1.67-.37.08-.34-1.65c-.18-.87.21-1.32.82-1.44.58-.12,1.08.12,1.26,1l.34,1.67-.37.08Z"/>
        <path class="cls-3" d="M17.19,7.28l-.34-1.68c-.13-.63-.47-.85-.84-.77-.42.09-.63.42-.51,1.04l.34,1.68-.37.08-.34-1.65c-.18-.87.21-1.32.82-1.44.58-.12,1.08.13,1.26,1l.34,1.67-.37.08Z"/>
        <path class="cls-3" d="M12.87,18.51l-.34-1.68c-.13-.63-.46-.85-.84-.77-.42.09-.63.42-.51,1.04l.34,1.67-.37.08-.33-1.65c-.18-.87.21-1.32.82-1.44.58-.12,1.08.13,1.26,1l.34,1.67-.37.08Z"/>
        <path class="cls-3" d="M10.28,19.04l-.34-1.67c-.13-.63-.46-.85-.84-.77-.42.08-.63.42-.51,1.04l.34,1.68-.37.08-.33-1.65c-.18-.87.21-1.32.82-1.44.58-.12,1.08.13,1.26,1l.34,1.67-.37.08Z"/>
        <path class="cls-3" d="M7.71,19.56l-.34-1.68c-.13-.63-.46-.85-.84-.77-.42.09-.63.42-.51,1.04l.34,1.67-.37.08-.33-1.65c-.18-.87.21-1.32.82-1.44.58-.12,1.08.13,1.26,1l.34,1.67-.37.08Z"/>
        <path class="cls-3" d="M15.45,17.99l-.34-1.68c-.13-.63-.46-.85-.84-.77-.42.09-.63.42-.51,1.04l.34,1.67-.37.08-.33-1.65c-.18-.87.21-1.32.82-1.44.58-.12,1.08.13,1.26,1l.34,1.67-.37.08Z"/>
        <path class="cls-3" d="M18.01,17.47l-.34-1.68c-.13-.63-.47-.85-.84-.77-.42.08-.63.42-.51,1.04l.34,1.68-.37.08-.34-1.65c-.18-.87.21-1.32.82-1.44.58-.12,1.08.12,1.26,1l.34,1.67-.37.08Z"/>
        <path class="cls-3" d="M20.59,16.94l-.34-1.67c-.13-.63-.47-.85-.84-.77-.42.08-.63.42-.51,1.04l.34,1.68-.37.08-.34-1.65c-.18-.87.21-1.32.82-1.44.58-.12,1.08.12,1.26,1l.34,1.67-.37.08Z"/>
        <path class="cls-3" d="M11.52,11.89l-.34-1.67c-.13-.63-.46-.85-.84-.77-.42.09-.63.42-.51,1.04l.34,1.68-.37.08-.33-1.65c-.18-.87.21-1.32.82-1.44.58-.12,1.08.12,1.26,1l.34,1.67-.37.08Z"/>
        <path class="cls-3" d="M8.93,12.41l-.34-1.67c-.13-.63-.46-.85-.84-.77-.42.09-.63.42-.51,1.04l.34,1.67-.37.08-.33-1.65c-.18-.87.21-1.32.82-1.44.58-.12,1.08.13,1.26,1l.34,1.67-.37.08Z"/>
        <path class="cls-3" d="M6.36,12.93l-.34-1.67c-.13-.63-.46-.85-.84-.77-.42.09-.63.42-.51,1.04l.34,1.68-.37.08-.33-1.65c-.18-.87.21-1.32.82-1.44.58-.12,1.08.12,1.26,1l.34,1.67-.37.08Z"/>
        <path class="cls-3" d="M14.11,11.36l-.34-1.68c-.13-.63-.46-.85-.84-.77-.42.09-.63.42-.51,1.04l.34,1.67-.37.08-.34-1.65c-.18-.87.21-1.32.82-1.44.58-.12,1.08.12,1.26,1l.34,1.67-.37.08Z"/>
        <path class="cls-3" d="M16.67,10.84l-.34-1.68c-.13-.63-.46-.85-.84-.77-.42.09-.63.42-.51,1.04l.34,1.67-.37.08-.33-1.65c-.18-.87.21-1.32.82-1.44.58-.12,1.08.13,1.26,1l.34,1.67-.37.08Z"/>
        <path class="cls-3" d="M19.25,10.32l-.34-1.67c-.13-.63-.46-.85-.84-.77-.42.09-.63.42-.51,1.04l.34,1.67-.37.08-.34-1.65c-.18-.87.21-1.32.82-1.44.58-.12,1.08.13,1.26,1l.34,1.67-.37.08Z"/>
      </g>
    </g>
  </g>
</svg>