<?xml version="1.0" encoding="UTF-8"?>
<svg id="Laag_2" data-name="Laag 2" xmlns="http://www.w3.org/2000/svg" xmlns:xlink="http://www.w3.org/1999/xlink" viewBox="0 0 24.18 24.18">
  <defs>
    <style>
      .cls-1 {
        clip-path: url(#clippath);
      }

      .cls-2 {
        fill: none;
      }

      .cls-2, .cls-3, .cls-4 {
        stroke-width: 0px;
      }

      .cls-3 {
        fill: #000;
      }

      .cls-4 {
        fill: #fff;
      }
    </style>
    <clipPath id="clippath">
      <path class="cls-2" d="M0,12.09c0,6.68,5.41,12.09,12.09,12.09s12.09-5.41,12.09-12.09S18.77,0,12.09,0,0,5.41,0,12.09"/>
    </clipPath>
  </defs>
  <g id="Laag_1-2" data-name="Laag 1">
    <g class="cls-1">
      <g>
        <path class="cls-4" d="M23.76,12.07c0,6.45-5.23,11.67-11.67,11.67S.42,18.52.42,12.07,5.64.4,12.09.4s11.67,5.23,11.67,11.67"/>
        <path class="cls-3" d="M12.09,23.93C5.55,23.93.24,18.61.24,12.07S5.55.22,12.09.22s11.86,5.32,11.86,11.86-5.32,11.86-11.86,11.86M12.09.58C5.76.58.6,5.74.6,12.07s5.16,11.49,11.49,11.49,11.49-5.15,11.49-11.49S18.43.58,12.09.58"/>
        <path class="cls-3" d="M19.81,16.42c0-.06-.03-.12-.07-.16l-.13-.09h.01c-.36-.35-1.39-1.51-1.39-3.7,0-2.6,1.43-3.73,1.49-3.78.05-.04.09-.11.09-.17,0-2.05-1.6-3.28-1.66-3.33-.05-.04-.11-.05-.17-.04-1.35.27-2.41.15-3.15-.37-.8-.56-.94-1.39-.94-1.42-.01-.07-.05-.13-.12-.16-.04-.02-.86-.42-1.68-.42s-1.64.4-1.68.42c-.06.03-.1.09-.12.16,0,.03-.14.86-.94,1.43-.74.52-1.8.64-3.15.37-.06-.01-.12,0-.17.04-.07.05-1.67,1.27-1.67,3.33,0,.07.03.13.09.17.06.05,1.49,1.19,1.49,3.78s-1.43,3.73-1.49,3.78c-.05.04-.09.11-.09.17,0,.08.02,2.09,1.66,3.33.04.03.11.04.18.03.05-.01.11-.05.14-.1.05-.07.49-.67,2.18-.67,1.81,0,3.31,2.18,3.38,2.27.04.06.1.09.18.09s.14-.03.18-.09c.06-.09,1.57-2.27,3.38-2.27,1.36,0,1.91.39,2.1.57h.02l.06.1c.03.06.08.1.14.11.06.02.12,0,.18-.04,1.65-1.24,1.66-3.24,1.66-3.33M18.17,19.17l-.12.11-.12-.1c-.33-.27-1-.6-2.29-.6-1.52,0-2.79,1.28-3.41,2.04l-.14.17-.14-.17c-.62-.76-1.89-2.04-3.41-2.04-1.28,0-1.95.33-2.29.6l-.12.1-.12-.11c-.95-.89-1.15-2.09-1.2-2.56v-.09s.06-.06.06-.06c.45-.43,1.51-1.67,1.51-3.99s-1.06-3.57-1.52-3.99l-.06-.06v-.09c.08-1.39.98-2.34,1.36-2.68l.07-.06.09.02c1.39.25,2.5.08,3.3-.48.69-.49.96-1.15,1.06-1.5l.02-.08.08-.03c.27-.11.79-.3,1.31-.3s1.04.19,1.31.29l.08.03.02.08c.1.35.37,1.01,1.06,1.5.8.57,1.91.73,3.3.48l.09-.02.07.06c.38.35,1.28,1.3,1.35,2.69v.08s-.06.06-.06.06c-.46.43-1.52,1.67-1.52,3.99s1.06,3.56,1.51,3.99l.07.06v.09c-.05.47-.26,1.68-1.21,2.56Z"/>
        <path class="cls-3" d="M7.79,7.9c0,.15-.12.27-.27.27s-.27-.12-.27-.27.12-.27.27-.27.27.12.27.27"/>
        <path class="cls-3" d="M9.57,7.9c0,.15-.12.27-.27.27s-.27-.12-.27-.27.12-.27.27-.27.27.12.27.27"/>
        <path class="cls-3" d="M11.57,7.9c0,.15-.12.27-.27.27s-.27-.12-.27-.27.12-.27.27-.27.27.12.27.27"/>
        <path class="cls-3" d="M13.36,7.9c0,.15-.12.27-.27.27s-.27-.12-.27-.27.12-.27.27-.27.27.12.27.27"/>
        <path class="cls-3" d="M15.25,7.9c0,.15-.12.27-.27.27s-.27-.12-.27-.27.12-.27.27-.27.27.12.27.27"/>
        <path class="cls-3" d="M17.03,7.9c0,.15-.12.27-.27.27s-.27-.12-.27-.27.12-.27.27-.27.27.12.27.27"/>
        <path class="cls-3" d="M9.57,10.16c0,.15-.12.27-.27.27s-.27-.12-.27-.27.12-.27.27-.27.27.12.27.27"/>
        <path class="cls-3" d="M11.57,10.16c0,.15-.12.27-.27.27s-.27-.12-.27-.27.12-.27.27-.27.27.12.27.27"/>
        <path class="cls-3" d="M13.36,10.16c0,.15-.12.27-.27.27s-.27-.12-.27-.27.12-.27.27-.27.27.12.27.27"/>
        <path class="cls-3" d="M15.25,10.16c0,.15-.12.27-.27.27s-.27-.12-.27-.27.12-.27.27-.27.27.12.27.27"/>
        <path class="cls-3" d="M11.57,12.3c0,.15-.12.27-.27.27s-.27-.12-.27-.27.12-.27.27-.27.27.12.27.27"/>
        <path class="cls-3" d="M13.36,12.3c0,.15-.12.27-.27.27s-.27-.12-.27-.27.12-.27.27-.27.27.12.27.27"/>
        <path class="cls-3" d="M9.57,14.39c0,.15-.12.27-.27.27s-.27-.12-.27-.27.12-.27.27-.27.27.12.27.27"/>
        <path class="cls-3" d="M11.57,14.39c0,.15-.12.27-.27.27s-.27-.12-.27-.27.12-.27.27-.27.27.12.27.27"/>
        <path class="cls-3" d="M13.36,14.39c0,.15-.12.27-.27.27s-.27-.12-.27-.27.12-.27.27-.27.27.12.27.27"/>
        <path class="cls-3" d="M15.25,14.39c0,.15-.12.27-.27.27s-.27-.12-.27-.27.12-.27.27-.27.27.12.27.27"/>
        <path class="cls-3" d="M7.79,16.55c0,.15-.12.27-.27.27s-.27-.12-.27-.27.12-.27.27-.27.27.12.27.27"/>
        <path class="cls-3" d="M9.57,16.55c0,.15-.12.27-.27.27s-.27-.12-.27-.27.12-.27.27-.27.27.12.27.27"/>
        <path class="cls-3" d="M11.57,16.55c0,.15-.12.27-.27.27s-.27-.12-.27-.27.12-.27.27-.27.27.12.27.27"/>
        <path class="cls-3" d="M13.36,16.55c0,.15-.12.27-.27.27s-.27-.12-.27-.27.12-.27.27-.27.27.12.27.27"/>
        <path class="cls-3" d="M15.25,16.55c0,.15-.12.27-.27.27s-.27-.12-.27-.27.12-.27.27-.27.27.12.27.27"/>
        <path class="cls-3" d="M17.03,16.55c0,.15-.12.27-.27.27s-.27-.12-.27-.27.12-.27.27-.27.27.12.27.27"/>
      </g>
    </g>
  </g>
</svg>