<?xml version="1.0" encoding="UTF-8"?>
<svg id="Laag_2" data-name="Laag 2" xmlns="http://www.w3.org/2000/svg" xmlns:xlink="http://www.w3.org/1999/xlink" viewBox="0 0 24.18 24.18">
  <defs>
    <style>
      .cls-1 {
        clip-path: url(#clippath);
      }

      .cls-2 {
        fill: none;
      }

      .cls-2, .cls-3 {
        stroke-width: 0px;
      }

      .cls-3 {
        fill: #000;
      }
    </style>
    <clipPath id="clippath">
      <path class="cls-2" d="M0,12.09c0,6.68,5.41,12.09,12.09,12.09s12.09-5.41,12.09-12.09S18.77,0,12.09,0,0,5.41,0,12.09"/>
    </clipPath>
  </defs>
  <g id="Laag_1-2" data-name="Laag 1">
    <g class="cls-1">
      <g>
        <path class="cls-3" d="M12.09,23.93C5.55,23.93.23,18.61.23,12.07S5.55.22,12.09.22s11.86,5.32,11.86,11.86-5.32,11.86-11.86,11.86M12.09.58C5.75.58.6,5.74.6,12.07s5.15,11.49,11.49,11.49,11.49-5.16,11.49-11.49S18.43.58,12.09.58"/>
        <path class="cls-3" d="M12.35,6.58c0-.11-.09-.21-.21-.21s-.21.09-.21.21v10.91c0,.11.09.21.21.21s.21-.09.21-.21V6.58Z"/>
        <path class="cls-3" d="M9.89,17.71c.11.03.22-.04.25-.15.34-1.28.54-3.45.54-5.8,0-2.01-.15-3.91-.41-5.23-.01-.05-.04-.1-.09-.13-.03-.02-.07-.03-.11-.03-.01,0-.03,0-.04,0-.05.01-.1.04-.13.09-.03.05-.04.1-.03.16.26,1.29.4,3.17.4,5.15,0,2.32-.2,4.44-.53,5.7-.01.05,0,.11.02.16.03.05.07.08.13.1"/>
        <path class="cls-3" d="M14.68,17.45c-.33-1.25-.53-3.38-.53-5.7,0-1.98.15-3.86.4-5.14.01-.05,0-.11-.03-.16-.03-.05-.08-.08-.13-.09-.01,0-.03,0-.04,0-.04,0-.08.01-.11.04-.05.03-.08.08-.09.13-.26,1.32-.41,3.22-.41,5.23,0,2.35.2,4.52.54,5.8.03.11.14.18.25.15.11-.03.18-.14.15-.25"/>
        <path class="cls-3" d="M8.38,13.52v-.03h.62c.11,0,.21-.09.21-.21s-.09-.21-.21-.21h-3.16c-.11,0-.21.09-.21.21v1.09l-2.24-2.24,2.22-2.22v.93c0,.11.09.21.21.21h3.15c.11,0,.21-.09.21-.21s-.09-.21-.21-.21h-.57v-.03c-.24-1.82-.94-3.29-1.86-3.95-.05-.03-.1-.04-.15-.04-.05,0-.1.04-.13.08-.07.09-.04.22.05.29.8.57,1.45,1.95,1.68,3.6v.04s-1.94,0-1.94,0v-1.22c0-.08-.05-.16-.13-.19-.08-.03-.17-.01-.23.04l-2.71,2.71c-.08.08-.08.21,0,.29l2.74,2.74c.06.06.15.08.23.05.08-.03.13-.11.13-.19v-1.38h1.91v.04c-.25,1.66-.91,3.01-1.73,3.55-.05.03-.08.08-.09.13-.01.05,0,.11.03.16.06.09.19.12.29.06.94-.61,1.66-2.07,1.92-3.9"/>
        <path class="cls-3" d="M18.57,15.06c.08.03.17.01.23-.04l2.71-2.71c.08-.08.08-.21,0-.29l-2.74-2.74c-.06-.06-.15-.08-.23-.04-.08.03-.13.11-.13.19v1.38h-2.31v-.05s.02-.01.02-.02c0,0,0-.01,0-.01.22-1.71.86-3.13,1.7-3.72.09-.07.12-.2.05-.29-.03-.04-.08-.08-.13-.08-.05-.01-.11,0-.15.03-.94.66-1.63,2.16-1.87,4.01,0,.03,0,.06,0,.08v.05s-.26,0-.26,0c-.11,0-.21.09-.21.21s.09.21.21.21h3.16c.11,0,.21-.09.21-.21v-1.09l2.24,2.24-2.22,2.22v-.93c0-.11-.09-.21-.21-.21h-3.15c-.11,0-.21.09-.21.21s.09.21.21.21h.24v.03c.27,1.76.98,3.16,1.92,3.75.09.06.23.03.28-.06.06-.1.03-.22-.06-.28-.82-.52-1.46-1.78-1.71-3.39v-.04s2.27,0,2.27,0v1.22c0,.08.05.16.13.19"/>
      </g>
    </g>
  </g>
</svg>