<?xml version="1.0" encoding="UTF-8"?>
<svg id="Laag_2" data-name="Laag 2" xmlns="http://www.w3.org/2000/svg" xmlns:xlink="http://www.w3.org/1999/xlink" viewBox="0 0 24.18 24.18">
  <defs>
    <style>
      .cls-1 {
        clip-path: url(#clippath);
      }

      .cls-2, .cls-3 {
        stroke-width: 0px;
      }

      .cls-2, .cls-4 {
        fill: none;
      }

      .cls-3 {
        fill: #000;
      }

      .cls-4 {
        stroke: #000;
        stroke-linecap: round;
        stroke-linejoin: round;
        stroke-width: .32px;
      }
    </style>
    <clipPath id="clippath">
      <path class="cls-2" d="M0,12.09c0,6.68,5.41,12.09,12.09,12.09s12.09-5.41,12.09-12.09S18.77,0,12.09,0,0,5.41,0,12.09"/>
    </clipPath>
  </defs>
  <g id="Laag_1-2" data-name="Laag 1">
    <g class="cls-1">
      <g>
        <path class="cls-3" d="M12.09,23.93C5.55,23.93.24,18.61.24,12.07S5.55.22,12.09.22s11.86,5.32,11.86,11.86-5.32,11.86-11.86,11.86M12.09.58C5.75.58.6,5.74.6,12.07s5.15,11.49,11.49,11.49,11.49-5.16,11.49-11.49S18.43.58,12.09.58"/>
        <path class="cls-4" d="M12.08,21.18l-1.52-1.52,1.52-1.52,1.52,1.52-1.52,1.52ZM19.68,13.58l-1.52-1.52,1.52-1.52,1.52,1.52-1.52,1.52ZM17.14,16.13l-1.52-1.52,1.52-1.52,1.52,1.52-1.52,1.52ZM14.58,18.68l-1.52-1.52,1.52-1.52,1.52,1.52-1.52,1.52ZM9.56,18.66l-1.52-1.52,1.52-1.52,1.52,1.52-1.52,1.52ZM17.16,11.06l-1.52-1.52,1.52-1.52,1.52,1.52-1.52,1.52ZM14.61,13.6l-1.52-1.52,1.52-1.52,1.52,1.52-1.52,1.52ZM12.06,16.16l-1.52-1.52,1.52-1.52,1.52,1.52-1.52,1.52ZM7.03,16.12l-1.52-1.52,1.52-1.52,1.52,1.52-1.52,1.52ZM14.62,8.52l-1.52-1.52,1.52-1.52,1.52,1.52-1.52,1.52ZM12.08,11.07l-1.52-1.52,1.52-1.52,1.52,1.52-1.52,1.52ZM9.52,13.62l-1.52-1.52,1.52-1.52,1.52,1.52-1.52,1.52ZM4.5,13.6l-1.52-1.52,1.52-1.52,1.52,1.52-1.52,1.52ZM12.1,6l-1.52-1.52,1.52-1.52,1.52,1.52-1.52,1.52ZM9.56,8.54l-1.52-1.52,1.52-1.52,1.52,1.52-1.52,1.52ZM7,11.1l-1.52-1.52,1.52-1.52,1.52,1.52-1.52,1.52Z"/>
      </g>
    </g>
  </g>
</svg>