<?xml version="1.0" encoding="UTF-8"?>
<svg id="Laag_2" data-name="Laag 2" xmlns="http://www.w3.org/2000/svg" xmlns:xlink="http://www.w3.org/1999/xlink" viewBox="0 0 24.18 24.18">
  <defs>
    <style>
      .cls-1 {
        clip-path: url(#clippath);
      }

      .cls-2 {
        fill: none;
      }

      .cls-2, .cls-3 {
        stroke-width: 0px;
      }

      .cls-3 {
        fill: #000;
      }
    </style>
    <clipPath id="clippath">
      <path class="cls-2" d="M0,12.09c0,6.68,5.41,12.09,12.09,12.09s12.09-5.41,12.09-12.09S18.77,0,12.09,0,0,5.41,0,12.09"/>
    </clipPath>
  </defs>
  <g id="Laag_1-2" data-name="Laag 1">
    <g class="cls-1">
      <g>
        <path class="cls-3" d="M12.09,23.93C5.55,23.93.24,18.61.24,12.07S5.55.22,12.09.22s11.86,5.32,11.86,11.86-5.32,11.86-11.86,11.86M12.09.58C5.75.58.6,5.74.6,12.07s5.15,11.49,11.49,11.49,11.49-5.16,11.49-11.49S18.43.58,12.09.58"/>
        <path class="cls-3" d="M22.02,12.67h-6.05v-1.14h6.05c.11,0,.21-.09.21-.21s-.09-.21-.21-.21h-1.47v-1.05h1.23c.11,0,.21-.09.21-.21s-.09-.21-.21-.21h-2.74v-1.12h2.3c.11,0,.21-.09.21-.21s-.09-.21-.21-.21h-2.3v-1.07h1.59c.12,0,.21-.09.21-.21s-.09-.21-.21-.21h-1.59v-1.79c0-.12-.09-.21-.21-.21s-.21.09-.21.21v6.28h-1.11V3.8c0-.09-.05-.16-.13-.19-.03-.01-.05-.02-.08-.02h-4.29v-1.32c0-.11-.09-.21-.21-.21s-.21.09-.21.21v2.84h-.98v-2.84c0-.11-.09-.21-.21-.21s-.21.09-.21.21v1.33h-1.18v-1.15c0-.11-.09-.21-.21-.21s-.21.09-.21.21v5.66h-1.04V2.9c0-.11-.09-.21-.21-.21s-.21.09-.21.21v2.16h-1.22v-1.4c0-.11-.09-.21-.21-.21s-.21.09-.21.21v7.48h-.97v-6.3c0-.12-.09-.21-.21-.21s-.21.09-.21.21v3.29h-1.21v-1.26c0-.12-.09-.21-.21-.21s-.21.09-.21.21v7.3h-1.4c-.11,0-.21.09-.21.21s.09.21.21.21h6.03v1.14H3.04c-.11,0-.21.09-.21.21s.09.21.21.21h2.06v1.05h-1.56c-.11,0-.21.09-.21.21s.09.21.21.21h1.56v1.75c0,.11.09.21.21.21s.21-.09.21-.21v-3.22h1.04v4.31s0,.06.02.08c.03.08.1.14.19.14h7.43v1.16c0,.11.09.21.21.21s.21-.09.21-.21v-2.71h1.12v2.17c0,.11.09.21.21.21s.21-.09.21-.21v-2.17h1.06v1.35c0,.11.09.21.21.21s.21-.09.21-.21v-4.33h1.11v3.24c0,.11.09.21.21.21s.21-.09.21-.21v-3.24h1.11v1.3c0,.11.09.21.21.21s.21-.09.21-.21v-4.34h1.36c.11,0,.21-.09.21-.21s-.09-.21-.21-.21M17.57,13.09h1.1v1.08h-1.1v-1.08ZM17.15,14.16h-1.18v-1.08h1.18v1.08ZM14.55,16.13h1.1v1.02h-1.1v-1.02ZM14.14,17.15h-1.15v-1.02h1.15v1.02ZM12.65,20.25h-1.1v-1.14h1.1v1.14ZM11.14,20.25h-1.21v-1.14h1.21v1.14ZM6.62,14.16h-1.1v-1.05h1.1v1.05ZM3.92,11.56h7.28v1.14H3.92v-1.14ZM6.93,8.52h7.26v1.14h-7.26v-1.14ZM10.02,5.53h7.08v1.14h-7.08v-1.14ZM17.1,8.08h-1.13v-1h1.13v1ZM15.97,8.5h1.13v1.15h-1.13v-1.15ZM17.1,5.11h-1.09v-1.11h1.09v1.11ZM15.6,5.11h-1.1v-1.11h1.1v1.11ZM14.19,11.18h-1.21v-1.1h1.21v1.1ZM12.98,11.59h1.21v1.15h-1.21v-1.15ZM14.19,8.11h-1.16v-1.02h1.16v1.02ZM12.62,8.11h-1.1v-1.02h1.1v1.02ZM11.2,14.22h-1.28v-1.11h1.28v1.11ZM9.93,14.64h1.28v1.15h-1.28v-1.15ZM11.2,11.14h-1.18v-1.07h1.18v1.07ZM9.61,11.14h-1.1v-1.07h1.1v1.07ZM8.13,18.76h-1.16v-1.15h1.16v1.15ZM6.97,19.18h1.16v1.08h-1.16v-1.08ZM8.54,13.11h.97v7.14h-.97v-7.14ZM9.93,16.2h1.28v.95h-1.28v-.95ZM11.62,10.07h.95v7.08h-.95v-7.08ZM12.98,13.16h1.21v1.01h-1.21v-1.01ZM14.61,7.08h.95v7.08h-.95v-7.08ZM19.04,10.07h1.1v1.05h-1.1v-1.05ZM15.97,10.06h1.13v1.06h-1.13v-1.06ZM13.01,4.01h1.08v1.11h-1.08v-1.11ZM11.2,5.11h-1.18v-1.1h1.18v1.1ZM10.02,7.08h1.09v1.02h-1.09v-1.02ZM6.93,7.05h1.22v1.06h-1.22v-1.06ZM8.15,6.63h-1.22v-1.15h1.22v1.15ZM6.93,10.07h1.17v1.07h-1.17v-1.07ZM3.92,11.14v-1.04h1.21v1.04h-1.21ZM3.92,8.54h1.2v1.15h-1.2s0,0,0,0v-1.15s0,0,0,0M3.92,13.11h1.19v1.05h-1.19v-1.05ZM7.04,13.11h1.09v1.05h-1.09v-1.05ZM8.13,17.19h-1.16v-1.06h1.16v1.06ZM14.19,20.25h-1.13v-1.14h1.13v1.14ZM9.93,17.56h7.27v1.14h-7.27v-1.14ZM17.2,17.15h-1.14v-1.02h1.14v1.02ZM12.98,14.58h7.26v1.14h-7.26v-1.14ZM20.25,14.16h-1.17v-1.08h1.17v1.08Z"/>
      </g>
    </g>
  </g>
</svg>