<?xml version="1.0" encoding="UTF-8"?>
<svg id="Laag_2" data-name="Laag 2" xmlns="http://www.w3.org/2000/svg" xmlns:xlink="http://www.w3.org/1999/xlink" viewBox="0 0 24.18 24.18">
  <defs>
    <style>
      .cls-1 {
        clip-path: url(#clippath);
      }

      .cls-2 {
        fill: none;
      }

      .cls-2, .cls-3 {
        stroke-width: 0px;
      }

      .cls-3 {
        fill: #000;
      }
    </style>
    <clipPath id="clippath">
      <path class="cls-2" d="M0,12.09c0,6.68,5.41,12.09,12.09,12.09s12.09-5.41,12.09-12.09S18.77,0,12.09,0,0,5.41,0,12.09"/>
    </clipPath>
  </defs>
  <g id="Laag_1-2" data-name="Laag 1">
    <g class="cls-1">
      <g>
        <path class="cls-3" d="M12.09,23.93C5.55,23.93.24,18.61.24,12.07S5.55.22,12.09.22s11.86,5.32,11.86,11.86-5.32,11.86-11.86,11.86M12.09.58C5.75.58.6,5.74.6,12.07s5.15,11.49,11.49,11.49,11.49-5.16,11.49-11.49S18.43.58,12.09.58"/>
        <path class="cls-3" d="M15.04,19.29h3.97c.12,0,.22-.1.22-.22v-3.9c0-.09-.05-.17-.14-.21-.08-.03-.18-.02-.24.05l-.89.89-.65-.65v-.03c-.07-.9-.1-1.82-.1-2.75,0-1.24.06-2.46.17-3.63v-.03s.58-.58.58-.58l.97.97c.06.06.16.08.24.05.08-.03.14-.12.14-.2v-3.97c0-.12-.1-.22-.22-.22h-3.9c-.09,0-.17.05-.21.14-.03.08-.02.18.05.24l.89.89-.68.68h-.03c-.9.07-1.83.1-2.77.1-1.25,0-2.47-.06-3.64-.17h-.03s-.47-.48-.47-.48l.97-.97c.06-.06.08-.16.05-.24-.03-.08-.12-.14-.21-.14h-3.97c-.12,0-.22.1-.22.22v3.9c0,.09.05.17.14.2.08.04.18.02.24-.05l.89-.89.49.49v.03c.12,1.17.18,2.4.18,3.66,0,.93-.03,1.86-.1,2.75v.03s-.58.57-.58.57l-.97-.97c-.06-.06-.16-.08-.24-.05-.08.03-.14.12-.14.21v3.97c0,.12.1.22.22.22h3.9c.09,0,.17-.05.2-.14.04-.08.02-.18-.05-.24l-.89-.89.53-.53h.03c1.17-.12,2.39-.18,3.64-.18.94,0,1.87.03,2.78.1h.03s.61.62.61.62l-.97.97c-.06.06-.08.16-.05.24.03.08.12.14.2.14M16.33,18.1c.09-.09.09-.23,0-.31l-2.75-2.74c-.09-.09-.23-.09-.31,0-.09.09-.09.23,0,.31l1.49,1.5h-.19c-1.68-.1-3.44-.08-5.12.05h-.19s1.56-1.55,1.56-1.55c.04-.04.07-.1.07-.16s-.02-.12-.07-.16c-.08-.08-.23-.08-.31,0l-2.75,2.75s-.07.1-.07.16.02.12.07.16l.66.67h-3.14v-3.21l.75.75c.09.09.23.09.31,0l2.75-2.74c.09-.09.09-.23,0-.31-.08-.08-.23-.08-.31,0l-1.54,1.54v-.19c.05-.7.07-1.41.07-2.12,0-1.01-.04-2.02-.12-3l-.02-.19,1.61,1.61c.08.08.23.08.31,0,.09-.09.09-.23,0-.31l-2.74-2.74c-.08-.08-.23-.08-.31,0l-.67.67v-3.14h3.21l-.75.75c-.09.09-.09.23,0,.31l2.74,2.75c.08.08.23.08.31,0,.09-.09.09-.23,0-.31l-1.62-1.62h.19c1.67.15,3.42.16,5.12.07h.19s-1.43,1.42-1.43,1.42c-.04.04-.07.1-.07.16s.02.11.07.16c.08.08.23.08.31,0l2.75-2.74s.07-.1.07-.16-.02-.12-.07-.16l-.66-.66h3.14v3.21l-.75-.75c-.09-.09-.23-.09-.31,0l-2.75,2.75s-.07.1-.07.16.02.12.07.16c.08.08.23.08.31,0l1.52-1.52v.19c-.09.97-.13,1.98-.13,2.97,0,.7.02,1.41.06,2.11v.19s-1.45-1.46-1.45-1.46c-.08-.08-.23-.08-.31,0-.09.09-.09.23,0,.31l2.74,2.75c.08.08.23.08.31,0l.66-.67v3.14h-3.21l.75-.75Z"/>
      </g>
    </g>
  </g>
</svg>