<?xml version="1.0" encoding="UTF-8"?>
<svg id="Laag_2" data-name="Laag 2" xmlns="http://www.w3.org/2000/svg" xmlns:xlink="http://www.w3.org/1999/xlink" viewBox="0 0 24.18 24.18">
  <defs>
    <style>
      .cls-1 {
        clip-path: url(#clippath);
      }

      .cls-2 {
        fill: none;
      }

      .cls-2, .cls-3 {
        stroke-width: 0px;
      }

      .cls-3 {
        fill: #000;
      }
    </style>
    <clipPath id="clippath">
      <path class="cls-2" d="M0,12.09c0,6.68,5.41,12.09,12.09,12.09s12.09-5.41,12.09-12.09S18.77,0,12.09,0,0,5.41,0,12.09"/>
    </clipPath>
  </defs>
  <g id="Laag_1-2" data-name="Laag 1">
    <g class="cls-1">
      <g>
        <path class="cls-3" d="M12.09,23.93C5.55,23.93.23,18.61.23,12.07S5.55.22,12.09.22s11.86,5.32,11.86,11.86-5.32,11.86-11.86,11.86M12.09.58C5.75.58.6,5.74.6,12.07s5.15,11.49,11.49,11.49,11.49-5.16,11.49-11.49S18.43.58,12.09.58"/>
        <path class="cls-3" d="M21.44,12.7h-2.83v-1.01h2.83v-.35h-1.35v-4.27h-.35v1.35h-1.06v-3.19h-.35v3.19h-1.13v-4.24h-.35v1.35h-1.01v-2.23h-.35v2.23h-1.09v-2.75h-.35v1.38h-3.98v-1.38h-.35v2.75h-1.09v-2.22h-.35v2.22h-1.01v-1.35h-.35v4.23h-1.13v-3.19h-.35v3.19h-1.06v-1.35h-.35v4.27h-1.31v.35h2.84v1.01h-2.84v.35h1.31v4.24h.35v-1.5h1.06v3.17h.35v-3.17h1.13v4.34h.35v-1.54h1.01v2.27h.35v-2.27h1.09v2.77h.35v-1.2h3.98v1.19h.35v-2.77h1.09v2.27h.35v-2.27h1.01v1.54h.35v-4.34h1.13v3.17h.35v-3.17h1.06v1.5h.35v-4.24h1.35v-.35ZM19.74,11.34h-1.13v-1.2h1.13v1.2ZM19.74,9.79h-3.89v-1.01h3.89v1.01ZM18.26,14.08h-1.01v-3.94h1.01v3.94ZM12.95,11.69h3.94v1.01h-3.94v-1.01ZM16.9,14.08h-1.04v-1.02h1.04v1.02ZM15.51,16.88h-1.01v-3.83h1.01v3.83ZM10.12,14.43h4.02v1.01h-4.02v-1.01ZM14.14,16.88h-1.19v-1.09h1.19v1.09ZM7.29,11.69h3.94v1.01h-3.94v-1.01ZM9.77,16.88h-1.01v-3.83h1.01v3.83ZM8.4,14.08h-1.11v-1.02h1.11v1.02ZM7.29,10.14h1.11v1.2h-1.11v-1.2ZM8.76,7.25h1.01v4.09h-1.01v-4.09ZM14.14,9.79h-4.02v-1.01h4.02v1.01ZM10.12,7.25h1.12v1.17h-1.12v-1.17ZM14.14,11.34h-1.19v-1.2h1.19v1.2ZM12.6,14.08h-1.01v-3.94h1.01v3.94ZM11.24,11.34h-1.12v-1.2h1.12v1.2ZM11.24,14.08h-1.12v-1.02h1.12v1.02ZM12.95,13.05h1.19v1.02h-1.19v-1.02ZM14.49,7.25h1.01v4.09h-1.01v-4.09ZM15.85,10.14h1.05v1.2h-1.05v-1.2ZM15.85,7.25h1.01v1.17h-1.01v-1.17ZM12.95,4.51h1.11v1.02h-1.11v-1.02ZM12.95,5.89h3.9v1.01h-3.9v-1.01ZM12.95,7.25h1.19v1.17h-1.19v-1.17ZM11.59,4.51h1.01v3.91h-1.01v-3.91ZM10.08,4.51h1.16v1.02h-1.16v-1.02ZM7.29,5.89h3.95v1.01h-3.95v-1.01ZM7.29,7.25h1.12v1.17h-1.12v-1.17ZM4.4,8.77h4.01v1.01h-4.01v-1.01ZM6.94,14.08h-1.01v-3.94h1.01v3.94ZM4.4,10.14h1.18v1.2h-1.18v-1.2ZM4.4,13.05h1.18v1.02h-1.18v-1.02ZM4.4,14.43h4.01v1.01h-4.01v-1.01ZM8.4,16.88h-1.12v-1.09h1.12v1.09ZM11.24,19.82h-1.16v-1.22h1.16v1.22ZM11.24,18.24h-3.95v-1.01h3.95v1.01ZM11.24,16.88h-1.12v-1.09h1.12v1.09ZM12.6,19.82h-1.01v-4.02h1.01v4.02ZM14.06,19.82h-1.11v-1.22h1.11v1.22ZM16.86,18.24h-3.9v-1.01h3.9v1.01ZM16.86,16.88h-1v-1.09h1v1.09ZM19.74,15.44h-3.89v-1.01h3.89v1.01ZM19.74,14.08h-1.13v-1.02h1.13v1.02Z"/>
      </g>
    </g>
  </g>
</svg>