<?xml version="1.0" encoding="UTF-8"?>
<svg id="Laag_2" data-name="Laag 2" xmlns="http://www.w3.org/2000/svg" xmlns:xlink="http://www.w3.org/1999/xlink" viewBox="0 0 24.18 24.18">
  <defs>
    <style>
      .cls-1 {
        clip-path: url(#clippath);
      }

      .cls-2 {
        fill: none;
      }

      .cls-2, .cls-3 {
        stroke-width: 0px;
      }

      .cls-3 {
        fill: #000;
      }
    </style>
    <clipPath id="clippath">
      <path class="cls-2" d="M0,12.09c0,6.68,5.41,12.09,12.09,12.09s12.09-5.41,12.09-12.09S18.77,0,12.09,0,0,5.41,0,12.09"/>
    </clipPath>
  </defs>
  <g id="Laag_1-2" data-name="Laag 1">
    <g class="cls-1">
      <g>
        <path class="cls-3" d="M12.09,23.93C5.55,23.93.23,18.61.23,12.07S5.55.22,12.09.22s11.86,5.32,11.86,11.86-5.32,11.86-11.86,11.86M12.09.58C5.75.58.6,5.74.6,12.07s5.15,11.49,11.49,11.49,11.49-5.16,11.49-11.49S18.43.58,12.09.58"/>
        <path class="cls-3" d="M19.72,12.13l.48-.48c.07-.07.07-.18,0-.25-.07-.07-.18-.07-.25,0l-.48.48-1.56-1.58.47-.47c.07-.07.07-.18,0-.25-.07-.07-.18-.07-.25,0l-.47.47-1.58-1.6.48-.48c.07-.07.07-.18,0-.25-.07-.07-.18-.07-.25,0l-.48.48-1.56-1.58.44-.44c.07-.07.07-.18,0-.25-.07-.07-.18-.07-.25,0l-.44.44-1.58-1.6.45-.45c.07-.07.07-.18,0-.25-.07-.07-.18-.07-.25,0l-.45.45-.44-.45c-.07-.07-.18-.07-.25,0-.04.04-.05.08-.05.13s.02.09.05.13l.44.45-1.59,1.59-.47-.47c-.07-.07-.18-.07-.25,0-.03.03-.05.08-.05.13,0,.05.02.09.05.13l.47.47-1.57,1.57-.45-.45c-.07-.07-.18-.07-.25,0-.04.03-.05.08-.05.13s.02.09.05.13l.45.45-1.59,1.59-.47-.48c-.07-.07-.18-.07-.25,0-.03.03-.05.08-.05.13,0,.05.02.09.05.13l.47.48-1.57,1.57-.48-.49c-.07-.07-.18-.07-.25,0-.04.04-.05.08-.05.13,0,.05.02.09.05.13l.48.49-.43.43c-.07.07-.07.18,0,.25.04.03.08.05.13.05s.09-.02.13-.05l.43-.43,1.58,1.6-.44.44c-.07.07-.07.18,0,.25.03.04.08.05.13.05s.09-.02.13-.05l.44-.44,1.56,1.58-.4.4c-.07.07-.07.18,0,.25.04.03.08.05.13.05s.09-.02.13-.05l.4-.4,1.58,1.6-.41.41c-.07.07-.07.18,0,.25.03.04.08.05.13.05s.09-.02.13-.05l.41-.41,1.56,1.58-.4.4c-.07.07-.07.18,0,.25.04.04.08.05.13.05s.09-.02.13-.05l.4-.4.39.4c.07.07.18.07.25,0,.07-.07.07-.18,0-.25l-.4-.4,1.57-1.57.4.41c.07.07.18.07.25,0,.07-.07.07-.18,0-.25l-.4-.41,1.59-1.59.43.43c.07.07.18.07.25,0,.07-.07.07-.18,0-.25l-.43-.44,1.57-1.57.41.41c.07.07.18.07.25,0,.07-.07.07-.18,0-.25l-.41-.41,1.59-1.59.44.44c.07.07.18.07.25,0,.07-.07.07-.18,0-.25l-.44-.44ZM17.41,10.3l-1.59,1.59-1.58-1.6,1.59-1.59,1.58,1.6ZM11.91,12.11l-1.59,1.59-1.56-1.58,1.59-1.59,1.56,1.58ZM10.6,10.28l1.57-1.57,1.56,1.58-1.57,1.57-1.56-1.58ZM12.16,12.36l1.58,1.6-1.59,1.59-1.58-1.6,1.59-1.59ZM12.41,12.11l1.57-1.57,1.58,1.6-1.57,1.57-1.58-1.6ZM15.57,8.44l-1.59,1.59-1.56-1.58,1.59-1.59,1.56,1.58ZM12.18,5.01l1.58,1.6-1.59,1.59-1.58-1.6,1.59-1.59ZM10.33,6.86l1.58,1.6-1.57,1.57-1.58-1.6,1.57-1.57ZM8.51,8.68l1.58,1.6-1.59,1.59-1.58-1.6,1.59-1.59ZM5.1,12.09l1.57-1.57,1.58,1.6-1.57,1.57-1.58-1.6ZM6.93,13.94l1.57-1.57,1.56,1.58-1.57,1.57-1.56-1.58ZM8.74,15.78l1.57-1.57,1.58,1.6-1.57,1.57-1.58-1.6ZM12.14,19.21l-1.56-1.58,1.57-1.57,1.56,1.58-1.57,1.57ZM13.96,17.38l-1.56-1.58,1.59-1.59,1.56,1.58-1.59,1.59ZM15.81,15.54l-1.56-1.58,1.57-1.57,1.56,1.58-1.57,1.57ZM17.63,13.72l-1.56-1.58,1.59-1.59,1.56,1.58-1.59,1.59Z"/>
      </g>
    </g>
  </g>
</svg>