<?xml version="1.0" encoding="UTF-8"?>
<svg id="Laag_2" data-name="Laag 2" xmlns="http://www.w3.org/2000/svg" xmlns:xlink="http://www.w3.org/1999/xlink" viewBox="0 0 24.18 24.18">
  <defs>
    <style>
      .cls-1 {
        clip-path: url(#clippath);
      }

      .cls-2 {
        fill: none;
      }

      .cls-2, .cls-3, .cls-4 {
        stroke-width: 0px;
      }

      .cls-3 {
        fill: #000;
      }

      .cls-4 {
        fill: #fff;
      }
    </style>
    <clipPath id="clippath">
      <path class="cls-2" d="M0,12.09c0,6.68,5.41,12.09,12.09,12.09s12.09-5.41,12.09-12.09S18.77,0,12.09,0,0,5.41,0,12.09"/>
    </clipPath>
  </defs>
  <g id="Laag_1-2" data-name="Laag 1">
    <g class="cls-1">
      <g>
        <path class="cls-4" d="M23.76,12.07c0,6.45-5.23,11.67-11.67,11.67S.42,18.52.42,12.07,5.64.4,12.09.4s11.67,5.23,11.67,11.67"/>
        <path class="cls-3" d="M12.09,23.93C5.55,23.93.23,18.61.23,12.07S5.55.22,12.09.22s11.86,5.32,11.86,11.86-5.32,11.86-11.86,11.86M12.09.58C5.75.58.6,5.74.6,12.07s5.15,11.49,11.49,11.49,11.49-5.16,11.49-11.49S18.43.58,12.09.58"/>
        <path class="cls-3" d="M18.21,9.41h0s0-.02,0-.02c-.25-.87-.72-1.66-1.37-2.28h0c-.71-2.03-2.63-3.38-4.76-3.38s-4.24,1.5-4.86,3.66l-.02.06-.02-.03c-.74.66-1.27,1.52-1.52,2.47h0s0,.02,0,.02c-.93.95-1.44,2.2-1.44,3.53,0,2.79,2.27,5.05,5.05,5.05.46,0,.91-.06,1.36-.19h.01s.01,0,.01,0c1.06.37,2.19.37,3.24.02h.01s.01,0,.01,0c.42.11.85.17,1.28.17,2.79,0,5.05-2.27,5.05-5.05,0-1.59-.73-3.06-2.01-4.03M17.68,8.99l.04.09-.09-.05c-.75-.42-1.61-.65-2.47-.65-2.65,0-4.81,1.99-5.03,4.62v.05s-.05-.02-.05-.02c-.44-.2-.84-.47-1.2-.8h0s0-.01,0-.01c-.03-.1-.06-.19-.08-.27-.32-1.21-.14-2.47.49-3.56.63-1.08,1.65-1.86,2.86-2.17,1.21-.32,2.48-.15,3.56.49.9.53,1.59,1.32,1.98,2.28M12.22,9.8c1,.82,1.6,1.97,1.71,3.25v.03s-.02.01-.02.01c-.59.25-1.21.38-1.85.38-.53,0-1.05-.09-1.55-.27h-.03s0-.04,0-.04c.07-1.31.69-2.54,1.7-3.36l.02-.02.02.02ZM12.05,4.08c1.69,0,3.26.92,4.09,2.4l.07.13-.12-.08c-.07-.05-.15-.09-.22-.13-1.17-.68-2.53-.87-3.83-.52-1.3.34-2.4,1.17-3.08,2.34-.59,1.02-.81,2.17-.63,3.32l.02.14-.09-.12c-.6-.81-.92-1.77-.92-2.78,0-2.59,2.11-4.69,4.69-4.69M6.98,8.11l.08-.09v.12c-.04.22-.06.44-.06.64,0,2.79,2.27,5.05,5.05,5.05.63,0,1.25-.12,1.83-.34l.05-.02v.05c0,.34-.05.68-.13,1.01h0s0,.02,0,.02c-.05.05-.12.11-.18.17-.86.76-1.95,1.17-3.09,1.17-.1,0-.21,0-.31-.01-1.25-.08-2.4-.65-3.22-1.59-1.55-1.76-1.55-4.42,0-6.18M9.24,18.13c-2.59,0-4.69-2.11-4.69-4.69,0-.99.3-1.93.88-2.73l.08-.11v.13c-.14,1.4.3,2.75,1.22,3.8.89,1.01,2.12,1.62,3.47,1.71.11,0,.22.01.33.01,1.07,0,2.1-.33,2.96-.97l.11-.08-.05.12c-.75,1.71-2.44,2.81-4.3,2.81M12.28,18.23c-.33,0-.66-.04-.99-.11l-.11-.02.1-.04c1.83-.81,3.01-2.62,3.01-4.62,0-1.48-.65-2.88-1.77-3.84l-.04-.03.04-.03c.32-.22.66-.39,1.02-.52h.01s.01,0,.01,0c.09.03.19.06.27.09,1.18.42,2.13,1.28,2.67,2.41.54,1.13.6,2.41.18,3.59-.42,1.18-1.28,2.13-2.41,2.67-.64.3-1.32.46-2.01.46M15.16,18.13c-.19,0-.37-.01-.58-.04h-.12s.1-.07.1-.07c1.15-.59,2.03-1.58,2.46-2.8.89-2.5-.32-5.28-2.76-6.33l-.11-.05.12-.02c.29-.05.59-.08.88-.08,2.59,0,4.69,2.11,4.69,4.7s-2.11,4.69-4.69,4.69"/>
      </g>
    </g>
  </g>
</svg>