<?xml version="1.0" encoding="UTF-8"?>
<svg id="Laag_2" data-name="Laag 2" xmlns="http://www.w3.org/2000/svg" xmlns:xlink="http://www.w3.org/1999/xlink" viewBox="0 0 24.18 24.18">
  <defs>
    <style>
      .cls-1 {
        clip-path: url(#clippath);
      }

      .cls-2 {
        fill: none;
      }

      .cls-2, .cls-3, .cls-4 {
        stroke-width: 0px;
      }

      .cls-3 {
        fill: #000;
      }

      .cls-4 {
        fill: #fff;
      }
    </style>
    <clipPath id="clippath">
      <path class="cls-2" d="M0,12.09c0,6.68,5.41,12.09,12.09,12.09s12.09-5.41,12.09-12.09S18.77,0,12.09,0,0,5.41,0,12.09"/>
    </clipPath>
  </defs>
  <g id="Laag_1-2" data-name="Laag 1">
    <g class="cls-1">
      <g>
        <path class="cls-4" d="M23.95,11.89c0,6.45-5.23,11.67-11.67,11.67S.6,18.34.6,11.89,5.83.22,12.27.22s11.67,5.23,11.67,11.67"/>
        <path class="cls-3" d="M12.09,23.93C5.55,23.93.24,18.61.24,12.07S5.55.22,12.09.22s11.86,5.32,11.86,11.86-5.32,11.86-11.86,11.86M12.09.58C5.75.58.6,5.74.6,12.07s5.15,11.49,11.49,11.49,11.49-5.16,11.49-11.49S18.43.58,12.09.58"/>
        <path class="cls-3" d="M9.84,18.11v-1.83c-1.65.24-3.28-.51-4.18-1.91-.9-1.4-.9-3.19,0-4.59.9-1.4,2.53-2.14,4.18-1.91v-1.83c-2.3-.23-4.53.87-5.75,2.83-1.22,1.96-1.22,4.45,0,6.41,1.22,1.96,3.45,3.06,5.75,2.83Z"/>
        <path class="cls-3" d="M20.15,18.11c-2.3.23-4.53-.87-5.75-2.83-1.22-1.96-1.22-4.45,0-6.41,1.22-1.96,3.45-3.06,5.75-2.83v1.83c-2.2-.32-4.28,1.12-4.75,3.29h3.54v1.82h-3.54c.48,2.17,2.55,3.61,4.75,3.29v1.83Z"/>
      </g>
    </g>
  </g>
</svg>