<?xml version="1.0" encoding="UTF-8"?>
<svg id="Laag_2" data-name="Laag 2" xmlns="http://www.w3.org/2000/svg" xmlns:xlink="http://www.w3.org/1999/xlink" viewBox="0 0 24.18 24.18">
  <defs>
    <style>
      .cls-1 {
        clip-path: url(#clippath);
      }

      .cls-2 {
        fill: none;
      }

      .cls-2, .cls-3, .cls-4 {
        stroke-width: 0px;
      }

      .cls-3 {
        fill: #000;
      }

      .cls-4 {
        fill: #fff;
      }
    </style>
    <clipPath id="clippath">
      <path class="cls-2" d="M0,12.09c0,6.68,5.41,12.09,12.09,12.09s12.09-5.41,12.09-12.09S18.77,0,12.09,0,0,5.41,0,12.09"/>
    </clipPath>
  </defs>
  <g id="Laag_1-2" data-name="Laag 1">
    <g class="cls-1">
      <g>
        <path class="cls-4" d="M23.76,12.07c0,6.45-5.23,11.67-11.67,11.67S.42,18.52.42,12.07,5.64.4,12.09.4s11.67,5.23,11.67,11.67"/>
        <path class="cls-3" d="M12.09,23.93C5.55,23.93.24,18.61.24,12.07S5.55.22,12.09.22s11.86,5.32,11.86,11.86-5.32,11.86-11.86,11.86M12.09.58C5.75.58.6,5.74.6,12.07s5.15,11.49,11.49,11.49,11.49-5.15,11.49-11.49S18.43.58,12.09.58"/>
        <path class="cls-3" d="M4.83,12.67c-.35.17-.57.57-.57,1.01v3.69c0,.23.13.44.34.54l2.96,1.44c.45.22.97.22,1.42,0l2.96-1.44c.21-.1.34-.32.34-.54v-3.69c0-.45-.23-.84-.57-1.01l-3.17-1.55c-.08-.04-.17-.06-.27-.06s-.18.02-.27.06l-3.17,1.55ZM8.08,19.15l-.08-.02c-.1-.02-.19-.05-.28-.1l-2.96-1.44c-.08-.04-.13-.12-.13-.21v-3.69c0-.07,0-.15.03-.22l.02-.08.08.04,3.33,1.63v4.1ZM11.86,13.38l.02.08c.02.07.03.15.03.22v3.69c0,.09-.05.17-.13.21l-2.96,1.44c-.09.04-.18.08-.28.1l-.08.02v-4.1l3.41-1.66ZM8.37,11.45l3.29,1.61-.12.07-3.28,1.6h-.03s-3.36-1.66-3.36-1.66l.11-.07,3.18-1.55c.07-.03.14-.03.21,0"/>
        <path class="cls-3" d="M16.1,10.94v-3.69c0-.45-.22-.85-.57-1.02l-3.17-1.55c-.08-.04-.17-.06-.27-.06s-.18.02-.27.06l-3.17,1.55c-.35.17-.57.57-.57,1.02v3.69c0,.23.13.44.34.55l2.96,1.44c.45.22.98.22,1.43,0l2.96-1.44c.21-.1.34-.32.34-.55M11.9,12.71l-.08-.02c-.1-.02-.19-.05-.28-.1l-2.96-1.44c-.08-.04-.13-.12-.13-.21v-3.69c0-.07,0-.15.03-.22l.02-.08.08.04,3.33,1.63v4.1ZM12.09,8.29h-.03c-.32-.17-1.49-.74-2.35-1.16l-1.03-.51.14-.06,3.17-1.55c.07-.03.14-.03.21,0l3.29,1.61-.12.06-3.28,1.6ZM15.73,10.94c0,.09-.05.17-.13.21l-2.96,1.44c-.09.04-.18.08-.28.1l-.08.02v-4.1l3.41-1.66.02.08c.02.07.03.15.03.22v3.69Z"/>
        <polygon class="cls-4" points="12.83 11.84 15.51 14.69 14.07 18.76 13.52 18.5 11.22 15.95 11.35 15.09 12.83 11.84"/>
        <polygon class="cls-4" points="16.96 11.27 19.77 14.32 15.63 14.73 12.95 11.76 13.4 11.53 16.96 11.27"/>
        <path class="cls-3" d="M12.34,12.14l-1.3,3.46c-.08.22-.03.46.13.63l2.26,2.39c.34.36.84.55,1.33.5l3.28-.31c.23-.02.43-.18.51-.39l1.3-3.46c.08-.21.1-.44.07-.66-.03-.19-.12-.36-.24-.49l-2.42-2.57c-.12-.12-.27-.19-.44-.19-.02,0-.04,0-.06,0l-3.51.33c-.39.04-.74.33-.89.75M13.92,18.56c-.08-.05-.16-.12-.23-.19l-2.26-2.39c-.06-.07-.08-.16-.05-.25l1.3-3.46c.03-.07.06-.13.1-.2l.05-.07.06.06,2.55,2.7v.04s-1.44,3.8-1.44,3.8l-.07-.05ZM19.55,14.62c0,.07-.03.14-.05.21l-1.3,3.46c-.03.08-.11.14-.2.15l-3.28.31s-.08,0-.12,0c-.06,0-.12,0-.18-.01h-.08s.02-.07.02-.07l1.42-3.79h.04c.39-.04,3.22-.31,3.65-.35h.08s-.01.08-.01.08ZM16.78,11.43c.08,0,.14.02.2.07l2.52,2.66-.13.02-3.63.35v-.02s-2.59-2.73-2.59-2.73l.13-.02,3.52-.33Z"/>
      </g>
    </g>
  </g>
</svg>