<?xml version="1.0" encoding="UTF-8"?>
<svg id="Laag_2" data-name="Laag 2" xmlns="http://www.w3.org/2000/svg" xmlns:xlink="http://www.w3.org/1999/xlink" viewBox="0 0 24.18 24.18">
  <defs>
    <style>
      .cls-1 {
        clip-path: url(#clippath);
      }

      .cls-2, .cls-3 {
        fill: none;
      }

      .cls-2, .cls-4, .cls-5 {
        stroke-width: 0px;
      }

      .cls-3 {
        stroke: #fff;
        stroke-miterlimit: 10;
        stroke-width: .11px;
      }

      .cls-4 {
        fill: #000;
      }

      .cls-5 {
        fill: #fff;
      }
    </style>
    <clipPath id="clippath">
      <path class="cls-2" d="M0,12.09c0,6.68,5.41,12.09,12.09,12.09s12.09-5.41,12.09-12.09S18.77,0,12.09,0,0,5.41,0,12.09"/>
    </clipPath>
  </defs>
  <g id="Laag_1-2" data-name="Laag 1">
    <g class="cls-1">
      <g>
        <path class="cls-5" d="M23.76,12.07c0,6.45-5.23,11.67-11.67,11.67S.42,18.52.42,12.07,5.64.4,12.09.4s11.67,5.23,11.67,11.67"/>
        <path class="cls-4" d="M12.09,23.93C5.55,23.93.24,18.61.24,12.08S5.55.22,12.09.22s11.86,5.32,11.86,11.86-5.32,11.86-11.86,11.86M12.09.58C5.76.58.6,5.74.6,12.08s5.16,11.49,11.49,11.49,11.49-5.16,11.49-11.49S18.43.58,12.09.58"/>
        <path class="cls-4" d="M18.08,19.06c-1.97,0-4.22-.59-5.73-1.51-2.04-1.24-9.27-5.91-9.34-5.95-.1-.07-.17-.17-.2-.3-.02-.12,0-.25.08-.34l3.89-5.07c.11-.15.31-.21.48-.15.18.05.3.22.31.4,0,.01.1,1.29,1.37,2.56.34.34,1.06.71,2.54.56.65-.07,1.23-.21,1.52-.29.03-.01.27-.08.44-.08h0c.19,0,.3.16.33.26.2.42.48.92.81,1.44l.29.43c.12.18.25.36.39.54l.32.41c.12.15.24.3.36.45l.34.4c.73.83,1.83,1.92,2.93,2.42.51.23,1.16.66,1.38,1.37.13.42.06.76.03.84v.02s-.02.04-.03.05c-.01.02-.02.04-.03.05v.02s-.81,1.16-.81,1.16c-.06.09-.16.16-.27.18-.41.09-.89.13-1.43.13M7.15,6.08s-.05.01-.06.03l-3.89,5.07s-.02.04-.01.06c0,.02.02.04.03.05.07.05,7.29,4.71,9.33,5.95,1.46.88,3.63,1.46,5.54,1.46.51,0,.97-.04,1.35-.13.02,0,.04-.01.05-.03l.82-1.21s.08-.28-.03-.63c-.19-.58-.75-.95-1.19-1.15-1.15-.53-2.29-1.66-3.05-2.51l-.34-.4c-.13-.15-.25-.3-.37-.46l-.32-.42c-.14-.19-.27-.37-.4-.56l-.29-.44c-.35-.54-.64-1.05-.84-1.49v-.02s-.01-.01-.02-.02c-.11,0-.27.05-.32.07h0c-.3.09-.9.24-1.58.31-1.63.16-2.44-.27-2.84-.67-1.38-1.38-1.47-2.74-1.48-2.8,0-.03-.02-.06-.05-.07,0,0-.02,0-.02,0M20.34,17.38l.12.02h-.04s-.08-.03-.08-.03h0Z"/>
        <path class="cls-5" d="M8.34,7.67c.07.24.13.43.15.55.17.77.03,2.19,0,2.87-.07,1.89,2.49,4.97,4.25,4.62,1.76-.34,1.78-4,1.15-4.87-.31-.42-1.01-1.24-1.45-2.08-.36-.69-.49-1.42-.51-1.84v-.47c.03-.8.13-2.03-.69-2.69-.88-.72-2.57-.34-3.16.6-.4.64-.12,1.94.13,2.88l.12.43Z"/>
        <path class="cls-4" d="M12.47,15.92c-.61,0-1.32-.32-2.02-.92-1.26-1.08-2.18-2.76-2.13-3.92,0-.15.02-.33.03-.53.05-.72.11-1.71-.02-2.29-.02-.09-.06-.24-.11-.41l-.16-.56c-.26-.96-.55-2.32-.11-3.03.32-.52.98-.91,1.7-1.03.67-.11,1.3.03,1.72.38.85.69.8,1.92.76,2.73v.11s0,.46,0,.46c.01.21.09.99.49,1.76.32.62.8,1.24,1.15,1.68.11.14.21.27.28.37.47.64.6,2.55.08,3.85-.29.74-.76,1.19-1.34,1.31-.1.02-.21.03-.31.03M8.52,7.62l.04.13c.05.19.1.33.12.43.14.63.08,1.65.03,2.39-.01.2-.02.38-.03.52-.04,1.06.82,2.61,2.01,3.63.74.63,1.46.92,2.03.81.47-.09.83-.46,1.08-1.08.49-1.23.32-3-.04-3.5-.07-.1-.17-.22-.28-.36-.36-.46-.84-1.09-1.18-1.74-.43-.83-.52-1.67-.53-1.91v-.6c.04-.78.08-1.85-.62-2.43-.35-.28-.87-.39-1.44-.3-.63.1-1.18.43-1.45.86-.41.65.01,2.22.15,2.74l.12.43Z"/>
        <path class="cls-4" d="M13.87,17.11c-.05-.11,0-.25.11-.3l.59-.28c-.59-.18-1.09-.54-1.44-1.05-.08-.12-.16-.24-.22-.38-.27-.57-.33-1.18-.21-1.75.01-.06.06-.12.12-.15.11-.05.25,0,.3.11.02.05.03.1.02.14-.1.48-.05.99.17,1.46.03.06.07.13.1.19.31.52.81.88,1.39,1.03l-.34-.7c-.05-.11,0-.25.11-.3.11-.05.25,0,.3.11l.55,1.14c.05.11,0,.25-.11.3l-1.14.55c-.11.05-.25,0-.3-.11"/>
        <path class="cls-3" d="M13.87,17.11c-.05-.11,0-.25.11-.3l.59-.28c-.59-.18-1.09-.54-1.44-1.05-.08-.12-.16-.24-.22-.38-.27-.57-.33-1.18-.21-1.75.01-.06.06-.12.12-.15.11-.05.25,0,.3.11.02.05.03.1.02.14-.1.48-.05.99.17,1.46.03.06.07.13.1.19.31.52.81.88,1.39,1.03l-.34-.7c-.05-.11,0-.25.11-.3.11-.05.25,0,.3.11l.55,1.14c.05.11,0,.25-.11.3l-1.14.55c-.11.05-.25,0-.3-.11Z"/>
      </g>
    </g>
  </g>
</svg>