<?xml version="1.0" encoding="UTF-8"?>
<svg id="Laag_2" data-name="Laag 2" xmlns="http://www.w3.org/2000/svg" xmlns:xlink="http://www.w3.org/1999/xlink" viewBox="0 0 24.18 24.18">
  <defs>
    <style>
      .cls-1 {
        clip-path: url(#clippath);
      }

      .cls-2 {
        fill: none;
      }

      .cls-2, .cls-3, .cls-4 {
        stroke-width: 0px;
      }

      .cls-3 {
        fill: #000;
      }

      .cls-4 {
        fill: #fff;
      }
    </style>
    <clipPath id="clippath">
      <path class="cls-2" d="M0,12.09c0,6.68,5.41,12.09,12.09,12.09s12.09-5.41,12.09-12.09S18.77,0,12.09,0,0,5.41,0,12.09"/>
    </clipPath>
  </defs>
  <g id="Laag_1-2" data-name="Laag 1">
    <g class="cls-1">
      <g>
        <path class="cls-4" d="M23.76,12.07c0,6.45-5.23,11.67-11.67,11.67S.42,18.52.42,12.07,5.64.4,12.09.4s11.67,5.23,11.67,11.67"/>
        <path class="cls-3" d="M12.09,23.93C5.55,23.93.24,18.61.24,12.07S5.55.22,12.09.22s11.86,5.32,11.86,11.86-5.32,11.86-11.86,11.86M12.09.58C5.76.58.6,5.74.6,12.07s5.16,11.49,11.49,11.49,11.49-5.15,11.49-11.49S18.43.58,12.09.58"/>
        <path class="cls-3" d="M12.09,7.39c-.96,0-1.73-.78-1.73-1.73s.78-1.73,1.73-1.73,1.73.78,1.73,1.73-.78,1.73-1.73,1.73M12.09,4.28c-.76,0-1.37.61-1.37,1.37s.61,1.37,1.37,1.37,1.37-.61,1.37-1.37-.61-1.37-1.37-1.37"/>
        <path class="cls-3" d="M13.26,20.23h-.06c-.6,0-1.09-.49-1.09-1.09v-4.59h-.02v4.59c0,.6-.49,1.09-1.09,1.09h-.06c-.6,0-1.09-.49-1.09-1.09v-6.16l-.1.31c-.11.34-.46.6-.82.6h-.41c-.21,0-.4-.09-.52-.25-.12-.16-.15-.37-.08-.57l1.6-4.96c.11-.34.46-.6.82-.6h3.55c.36,0,.71.26.82.6l1.6,4.96c.07.2.04.41-.08.57-.12.16-.31.25-.52.25h-.41c-.36,0-.71-.26-.82-.6l-.1-.31v6.16c0,.6-.49,1.09-1.09,1.09M11.9,14.18h.39c.1,0,.18.08.18.18v4.77c0,.4.33.73.73.73h.06c.4,0,.73-.33.73-.73v-7.32c0-.09.07-.17.15-.18.09-.01.17.04.2.12l.46,1.42c.06.19.28.35.48.35h.41c.1,0,.18-.04.23-.1.05-.06.06-.15.03-.24l-1.6-4.96c-.06-.19-.28-.35-.48-.35h-3.55c-.2,0-.41.16-.48.35l-1.6,4.96c-.03.09-.02.18.03.24.05.07.13.1.22.1h.41c.2,0,.41-.16.48-.35l.46-1.41c.03-.09.11-.14.2-.12.09.01.15.09.15.18v7.32c0,.4.33.73.73.73h.06c.4,0,.73-.33.73-.73v-4.77c0-.1.08-.18.18-.18"/>
      </g>
    </g>
  </g>
</svg>