<?xml version="1.0" encoding="UTF-8"?>
<svg id="Laag_2" data-name="Laag 2" xmlns="http://www.w3.org/2000/svg" xmlns:xlink="http://www.w3.org/1999/xlink" viewBox="0 0 24.18 24.18">
  <defs>
    <style>
      .cls-1 {
        clip-path: url(#clippath);
      }

      .cls-2 {
        fill: none;
      }

      .cls-2, .cls-3, .cls-4 {
        stroke-width: 0px;
      }

      .cls-3 {
        fill: #000;
      }

      .cls-4 {
        fill: #fff;
      }
    </style>
    <clipPath id="clippath">
      <path class="cls-2" d="M0,12.09c0,6.68,5.41,12.09,12.09,12.09s12.09-5.41,12.09-12.09S18.77,0,12.09,0,0,5.41,0,12.09"/>
    </clipPath>
  </defs>
  <g id="Laag_1-2" data-name="Laag 1">
    <g class="cls-1">
      <g>
        <path class="cls-4" d="M23.76,12.07c0,6.45-5.23,11.67-11.67,11.67S.42,18.52.42,12.07,5.64.4,12.09.4s11.67,5.23,11.67,11.67"/>
        <path class="cls-3" d="M12.09,23.93C5.55,23.93.24,18.61.24,12.07S5.55.22,12.09.22s11.86,5.32,11.86,11.86-5.32,11.86-11.86,11.86M12.09.58C5.75.58.6,5.74.6,12.07s5.15,11.49,11.49,11.49,11.49-5.15,11.49-11.49S18.43.58,12.09.58"/>
        <path class="cls-3" d="M19.55,15.39l-.99-.57.66-.28c.44-.19.64-.69.45-1.13-.19-.44-.69-.64-1.13-.45l-1.85.79-2.2-1.27v-.06c.04-.22.04-.45,0-.67v-.06s.43-.25.43-.25c0,0,0,0,0,0l1.75-1.01,1.85.79c.44.19.94-.02,1.13-.45.09-.21.09-.45,0-.66-.09-.21-.25-.38-.46-.47l-.66-.28.99-.57c.41-.24.55-.76.32-1.18-.12-.2-.3-.34-.52-.4-.22-.06-.45-.03-.65.09l-.99.57.09-.71c.03-.23-.03-.45-.18-.64-.14-.18-.35-.3-.57-.32-.23-.03-.45.04-.64.18-.18.14-.3.35-.32.57l-.24,1.99-2.2,1.27-.05-.04c-.18-.14-.37-.25-.58-.34l-.06-.02v-.56h0v-1.97l1.61-1.21c.18-.14.3-.34.33-.57.03-.23-.03-.45-.16-.64-.28-.38-.82-.46-1.21-.17l-.57.43v-1.15c0-.48-.39-.86-.86-.86s-.86.39-.86.86v1.15l-.57-.43c-.18-.14-.41-.2-.64-.16-.23.03-.43.15-.57.33-.14.18-.2.41-.16.64.03.23.15.43.33.57l1.61,1.21v2.54l-.06.02c-.21.09-.4.2-.58.34l-.05.04-2.2-1.27-.24-1.99c-.03-.23-.14-.43-.32-.57-.18-.14-.41-.2-.64-.18-.23.03-.43.14-.57.32-.14.18-.2.41-.18.64l.09.71-.99-.57c-.2-.12-.43-.15-.65-.09-.22.06-.41.2-.52.4-.24.41-.1.94.32,1.18l.99.57-.66.28c-.21.09-.37.26-.46.47-.09.21-.08.45,0,.66.09.21.26.38.47.46.21.09.45.08.66,0l1.85-.79,2.2,1.27v.06c-.04.22-.04.45,0,.67v.06s-2.19,1.27-2.19,1.27l-1.85-.79c-.21-.09-.45-.09-.66,0-.21.09-.38.25-.47.46-.09.21-.09.45,0,.66.09.21.25.38.46.47l.66.28-.99.57c-.2.11-.34.3-.4.52-.06.22-.03.45.09.65.24.41.77.55,1.18.32l.99-.57-.09.71c-.03.23.03.45.18.64.22.28.57.39.91.3.34-.09.58-.37.62-.72l.24-1.99,2.2-1.27.05.04c.18.14.37.25.58.34l.06.02v2.54l-1.61,1.21c-.38.28-.46.83-.17,1.21.28.38.83.46,1.21.17l.57-.43v1.15c0,.47.39.86.86.86s.86-.39.86-.86v-1.15l.57.43c.18.14.41.2.64.16.23-.03.43-.15.56-.33.29-.38.21-.92-.17-1.21l-1.61-1.21v-2.54l.06-.02c.21-.08.4-.2.58-.34l.05-.04,2.2,1.27.24,1.99c.04.35.28.63.62.72.34.1.69-.02.91-.3.14-.18.2-.41.18-.64l-.09-.71.99.57c.2.11.43.15.65.09.22-.06.41-.2.52-.4.24-.41.1-.94-.32-1.18M19.57,16.39c-.14.24-.45.33-.7.19l-1.29-.75c-.06-.03-.13-.03-.18,0-.06.04-.09.1-.08.17l.13,1.06c.02.14-.02.27-.11.38-.08.11-.2.18-.34.19-.14.02-.27-.02-.38-.1-.11-.08-.18-.21-.19-.34l-.25-2.08c0-.05-.04-.1-.09-.13l-2.38-1.37c-.07-.04-.15-.03-.2.02-.22.2-.49.36-.77.45-.07.02-.12.09-.12.17v2.75c0,.05.03.11.07.14l1.68,1.26c.23.17.27.49.1.72-.17.23-.49.27-.72.1l-.85-.64c-.05-.04-.12-.05-.18-.02-.06.03-.1.09-.1.16v1.5c0,.28-.23.51-.51.51s-.51-.23-.51-.51v-1.5c0-.07-.04-.13-.1-.16-.06-.03-.13-.02-.18.02l-.85.64c-.17.13-.39.14-.57.03-.18-.11-.28-.3-.25-.51.02-.13.09-.25.2-.34l1.68-1.26s.07-.08.07-.14v-2.75c0-.08-.05-.14-.12-.17-.28-.09-.55-.25-.77-.45-.06-.05-.14-.06-.21-.02l-2.38,1.37s-.08.08-.09.13l-.25,2.08c-.03.28-.29.48-.57.45-.14-.02-.26-.08-.34-.19-.08-.11-.12-.24-.11-.38l.13-1.06c0-.07-.02-.13-.08-.17-.06-.04-.12-.04-.18,0l-1.29.75c-.12.07-.26.09-.39.05-.13-.04-.24-.12-.31-.24-.14-.24-.06-.56.19-.7l1.3-.75c.06-.03.09-.09.09-.16,0-.07-.04-.12-.11-.15l-.98-.42c-.26-.11-.38-.41-.27-.67.11-.26.41-.38.67-.27l1.93.82c.05.02.11.02.16,0l2.38-1.37c.07-.04.1-.11.08-.19-.07-.3-.07-.6,0-.89.02-.08-.02-.15-.08-.19l-2.38-1.37s-.11-.03-.16,0l-1.93.82c-.26.11-.56-.01-.67-.27-.11-.26.01-.56.27-.67l.98-.42c.06-.03.1-.08.11-.15,0-.07-.03-.13-.09-.16l-1.3-.75c-.12-.07-.2-.18-.24-.31-.04-.13-.02-.27.05-.39.14-.24.45-.33.7-.19l1.29.75c.06.03.13.03.18,0,.06-.04.09-.1.08-.17l-.13-1.06c-.02-.14.02-.27.11-.38.08-.11.21-.18.34-.19.13-.02.27.02.38.11.11.08.18.21.19.34l.25,2.08c0,.05.04.1.09.13l2.38,1.37c.07.04.15.03.21-.02.22-.2.49-.36.77-.45.07-.02.12-.09.12-.17v-2.75c0-.05-.03-.11-.07-.14l-1.68-1.26c-.23-.17-.27-.49-.1-.72.08-.11.2-.18.34-.2.13-.02.27.02.38.1l.85.64c.05.04.12.05.18.02.06-.03.1-.09.1-.16v-1.5c0-.28.23-.51.51-.51s.51.23.51.51v1.5c0,.07.04.13.1.16.06.03.13.02.18-.02l.85-.64c.11-.08.25-.12.38-.1.13.02.25.09.34.2.08.11.12.24.1.38-.02.13-.09.25-.2.34l-1.68,1.26s-.07.08-.07.14v2.06s0,.69,0,.69c0,.08.05.14.12.17.28.09.55.25.77.45.06.05.14.06.2.02l2.38-1.37s.08-.08.09-.13l.25-2.08c.03-.28.29-.48.57-.45.28.03.48.29.45.57l-.13,1.06c0,.07.02.13.08.17.05.04.13.04.18,0l1.29-.75c.12-.07.26-.09.39-.05.13.04.24.12.31.24.07.12.09.26.05.39-.04.13-.12.24-.24.31l-1.3.75c-.06.03-.09.1-.09.16,0,.07.04.12.11.15l.98.42c.26.11.38.41.27.67-.11.26-.41.38-.67.27l-1.93-.82c-.05-.02-.11-.02-.16,0l-1.72,1s0,0,0,0l-.66.38c-.07.04-.1.11-.08.19.07.3.07.6,0,.9-.02.07.02.15.08.19l2.38,1.37s.11.03.16,0l1.93-.82c.26-.11.56.01.67.27.11.26-.01.56-.27.67l-.98.42c-.06.03-.1.08-.11.15,0,.07.03.13.09.16l1.3.75c.24.14.33.45.19.7"/>
      </g>
    </g>
  </g>
</svg>