<?xml version="1.0" encoding="UTF-8"?>
<svg id="Laag_2" data-name="Laag 2" xmlns="http://www.w3.org/2000/svg" xmlns:xlink="http://www.w3.org/1999/xlink" viewBox="0 0 24.18 24.18">
  <defs>
    <style>
      .cls-1 {
        clip-path: url(#clippath);
      }

      .cls-2 {
        fill: none;
      }

      .cls-2, .cls-3, .cls-4, .cls-5 {
        stroke-width: 0px;
      }

      .cls-3 {
        fill: #010202;
        fill-rule: evenodd;
      }

      .cls-4 {
        fill: #000;
      }

      .cls-5 {
        fill: #fff;
      }
    </style>
    <clipPath id="clippath">
      <path class="cls-2" d="M0,12.09c0,6.68,5.41,12.09,12.09,12.09s12.09-5.41,12.09-12.09S18.77,0,12.09,0,0,5.41,0,12.09"/>
    </clipPath>
  </defs>
  <g id="Laag_1-2" data-name="Laag 1">
    <g class="cls-1">
      <g>
        <path class="cls-5" d="M23.76,12.07c0,6.45-5.23,11.67-11.67,11.67S.42,18.52.42,12.07,5.64.4,12.09.4s11.67,5.23,11.67,11.67"/>
        <path class="cls-4" d="M12.09,23.93C5.55,23.93.23,18.61.23,12.07S5.55.22,12.09.22s11.86,5.32,11.86,11.86-5.32,11.86-11.86,11.86M12.09.58C5.75.58.6,5.74.6,12.07s5.15,11.49,11.49,11.49,11.49-5.16,11.49-11.49S18.43.58,12.09.58"/>
        <path class="cls-3" d="M19.77,11.37h0c.08-.08.08-.22,0-.3l-7.68-7.68-7.68,7.68c-.08.08-.08.22,0,.3.08.08.22.08.3,0l.83-.83v8.56h13.09v-8.56l.1.1.73.73c.08.08.22.08.3,0M14,18.59h-3.81c-.12,0-.21-.09-.21-.21v-5c0-.12.09-.21.21-.21h3.81c.12,0,.21.1.21.21v5c0,.12-.1.21-.21.21M18.21,18.67h-3.57v-6h-5.09v6h-3.57v-8.56l6.12-6.12,6.12,6.12v8.56Z"/>
      </g>
    </g>
  </g>
</svg>