<?xml version="1.0" encoding="UTF-8"?>
<svg id="Laag_2" data-name="Laag 2" xmlns="http://www.w3.org/2000/svg" xmlns:xlink="http://www.w3.org/1999/xlink" viewBox="0 0 24.18 24.18">
  <defs>
    <style>
      .cls-1 {
        clip-path: url(#clippath);
      }

      .cls-2 {
        fill: none;
      }

      .cls-2, .cls-3, .cls-4 {
        stroke-width: 0px;
      }

      .cls-3 {
        fill: #000;
      }

      .cls-4 {
        fill: #fff;
      }
    </style>
    <clipPath id="clippath">
      <path class="cls-2" d="M0,12.09c0,6.68,5.41,12.09,12.09,12.09s12.09-5.41,12.09-12.09S18.77,0,12.09,0,0,5.41,0,12.09"/>
    </clipPath>
  </defs>
  <g id="Laag_1-2" data-name="Laag 1">
    <g class="cls-1">
      <g>
        <path class="cls-4" d="M23.76,12.07c0,6.45-5.23,11.67-11.67,11.67S.42,18.52.42,12.07,5.64.4,12.09.4s11.67,5.23,11.67,11.67"/>
        <path class="cls-3" d="M12.09,23.93C5.55,23.93.24,18.61.24,12.07S5.55.22,12.09.22s11.86,5.32,11.86,11.86-5.32,11.86-11.86,11.86M12.09.58C5.76.58.6,5.74.6,12.07s5.16,11.49,11.49,11.49,11.49-5.16,11.49-11.49S18.43.58,12.09.58"/>
        <path class="cls-3" d="M15.77,18.81l.63-.63s.03-.04.03-.06c0-.02-.01-.04-.03-.06l-.06-.05s-.04-.02-.07-.02c-.03,0-.05.01-.07.03l-.37.37-.02-1.06-.03-1.57v-.12s-.02-.95-.02-.95l.38.3s.04.02.07.02c.03,0,.05-.01.07-.03l.06-.06s.03-.04.03-.06c0-.02-.01-.04-.03-.06l-.65-.51s-.04-.02-.07-.02c-.03,0-.05.01-.07.03l-.63.63s-.03.04-.03.06c0,.02.01.04.03.06l.06.05s.04.02.07.02c.03,0,.05-.01.07-.03l.37-.37.02,1.06.03,1.57v.18s.02.89.02.89l-.38-.3s-.04-.02-.07-.02c-.03,0-.05.01-.07.03l-.06.06s-.03.04-.03.06.01.04.03.06l.65.51s.04.02.07.02c.03,0,.05-.01.07-.03"/>
        <path class="cls-3" d="M.4,11.7c.72-.12,1.52-.43,2.38-.94.84-.49,1.53-1.05,1.86-1.34.06-.06.25-.22.4-.29l.04-.02.03.02s.02.02.03.03l.03.03c.52.45,1.21.94,1.98,1.43l.64.39c.28.17.57.33.85.48l.66.35c.26.13.5.25.75.37l.69.32c1.48.65,3.62,1.43,5.42,1.43h.03c.7,0,1.66.14,2.27.8.36.39.43.79.44.83h0s0,.02,0,.02l-.34,2.06s-.03.09-.07.12c-.45.34-1.02.67-1.69.98-2.49,1.15-5.67,1.71-8.11,1.43-1.01-.12-2.87-.36-5.55-.72l.29.42c2.5.34,4.25.57,5.22.68,2.5.29,5.76-.29,8.31-1.47.7-.32,1.29-.66,1.76-1.02.11-.09.19-.21.21-.35l.35-2.03s0-.04,0-.07c0-.02,0-.04,0-.08v-.02c-.02-.13-.13-.58-.53-1.03-.7-.77-1.78-.93-2.57-.93h-.02c-1.73,0-3.82-.76-5.27-1.4l-.68-.31c-.25-.12-.5-.24-.74-.36l-.66-.35c-.27-.15-.55-.31-.84-.48l-.63-.39c-.75-.47-1.41-.95-1.92-1.39-.03-.03-.25-.25-.51-.13-.22.1-.48.34-.51.36-.33.28-1,.82-1.81,1.3-.8.47-1.52.76-2.18.88v.38Z"/>
        <polygon class="cls-3" points="8.99 9.4 8.99 8.45 8.1 8.45 8.1 8.03 8.99 8.03 8.99 7.09 9.43 7.09 9.43 8.03 10.32 8.03 10.32 8.45 9.43 8.45 9.43 9.4 8.99 9.4"/>
        <path class="cls-3" d="M10.87,9.89v-.47h.71v-2.09h-.58v-.36c.16-.03.3-.07.41-.11.11-.04.22-.09.32-.15h.43v2.71h.62v.47h-1.91Z"/>
        <path class="cls-3" d="M15.45,9.95c-.17,0-.32-.03-.47-.08-.14-.06-.27-.14-.38-.25-.11-.11-.19-.24-.25-.4-.06-.16-.09-.34-.09-.55s.03-.39.1-.54c.07-.16.16-.29.27-.41.11-.11.24-.19.39-.25.15-.06.3-.09.47-.09s.3.03.41.08c.11.05.22.12.31.2l-.28.37c-.07-.06-.13-.1-.2-.13-.07-.03-.14-.05-.21-.05-.2,0-.36.07-.48.22-.12.15-.19.35-.19.6s.06.44.18.59c.12.15.28.22.47.22.1,0,.19-.02.27-.06.09-.04.16-.09.23-.15l.24.38c-.12.1-.24.17-.38.22-.14.05-.28.08-.42.08"/>
        <path class="cls-3" d="M16.74,9.89v-2.45h.48l.04.33h.02c.1-.11.22-.2.34-.28.12-.08.26-.12.41-.12.18,0,.32.04.43.12.11.08.19.19.25.32.12-.13.24-.23.37-.31.13-.08.27-.13.43-.13.26,0,.45.08.57.25.12.17.19.41.19.72v1.54h-.58v-1.46c0-.2-.03-.35-.09-.43-.06-.08-.16-.12-.28-.12-.15,0-.32.1-.52.3v1.71h-.57v-1.46c0-.2-.03-.35-.09-.43-.06-.08-.16-.12-.29-.12-.15,0-.33.1-.52.3v1.71h-.57Z"/>
      </g>
    </g>
  </g>
</svg>