<?xml version="1.0" encoding="UTF-8"?>
<svg id="Laag_2" data-name="Laag 2" xmlns="http://www.w3.org/2000/svg" xmlns:xlink="http://www.w3.org/1999/xlink" viewBox="0 0 24.18 24.18">
  <defs>
    <style>
      .cls-1 {
        clip-path: url(#clippath);
      }

      .cls-2 {
        fill: none;
      }

      .cls-2, .cls-3, .cls-4 {
        stroke-width: 0px;
      }

      .cls-3 {
        fill: #000;
      }

      .cls-4 {
        fill: #fff;
      }
    </style>
    <clipPath id="clippath">
      <path class="cls-2" d="M0,12.09c0,6.68,5.41,12.09,12.09,12.09s12.09-5.41,12.09-12.09S18.77,0,12.09,0,0,5.41,0,12.09"/>
    </clipPath>
  </defs>
  <g id="Laag_1-2" data-name="Laag 1">
    <g class="cls-1">
      <g>
        <path class="cls-4" d="M23.76,12.07c0,6.45-5.23,11.67-11.67,11.67S.42,18.52.42,12.07,5.64.4,12.09.4s11.67,5.23,11.67,11.67"/>
        <path class="cls-3" d="M12.09,23.93C5.55,23.93.24,18.61.24,12.08S5.55.22,12.09.22s11.86,5.32,11.86,11.86-5.32,11.86-11.86,11.86M12.09.58C5.75.58.6,5.74.6,12.08s5.15,11.49,11.49,11.49,11.49-5.15,11.49-11.49S18.43.58,12.09.58"/>
        <path class="cls-3" d="M20.21,10.2c.12.04.26.02.38-.05.18-.1.32-.28.38-.51.12-.41-.03-.8-.34-.89-.01,0-.02,0-.03,0l-.08-.02.04-.08c.11-.23.14-.48.08-.69-.05-.16-.14-.28-.27-.35-.14-.08-.3-.09-.46-.03l-.11.04.02-.12c.06-.28.03-.57-.08-.78-.09-.17-.22-.28-.38-.34-.21-.07-.45-.01-.65.15-.05.04-.09.08-.13.13l-.16.18.04-.24c.05-.29.02-.59-.08-.83-.12-.28-.33-.47-.58-.53-.38-.08-.77.16-1.01.6l-.15.28-.04.32c-.07.63.21,1.16.67,1.26.25.05.52-.04.74-.24.03-.03.06-.06.09-.1l.15-.18-.03.23c-.07.48.13.9.48,1.01.13.04.27.04.41-.01l.1-.04v.11c-.03.12-.02.23.01.33.05.16.14.28.27.35.09.05.19.07.29.06h.1s-.03.09-.03.09c-.05.18-.05.37,0,.52.06.18.19.31.34.36M18.08,6.6h0c-.05.24-.17.46-.31.6-.06.06-.19.16-.34.16-.02,0-.05,0-.07,0-.26-.06-.47-.47-.36-.98.06-.3.23-.56.42-.68.1-.07.21-.09.31-.07.18.04.27.21.31.31.08.19.09.44.04.68M19.42,7.53c-.11.36-.36.55-.54.55-.02,0-.04,0-.07,0-.19-.06-.31-.4-.18-.79.06-.19.17-.35.3-.45.05-.04.18-.13.31-.09.08.03.13.1.16.15.08.16.09.41.02.64M20.5,9.1h.02c.09.03.16.2.1.43-.05.16-.14.25-.21.29-.03.01-.05.02-.07.02-.01,0-.02,0-.03,0-.04-.01-.08-.05-.1-.12-.03-.09-.03-.2,0-.31.06-.2.19-.32.28-.32M19.77,8.87s-.06,0-.08-.02c-.04-.02-.08-.07-.09-.13-.03-.1-.02-.28.08-.46.13-.23.31-.33.43-.33.03,0,.06,0,.09.02.04.02.07.06.09.13.03.1.02.28-.08.47-.13.23-.31.33-.43.33"/>
        <path class="cls-3" d="M16.55,6.44l.13-.29.06-.35c.09-.55-.02-1.1-.29-1.46-.17-.23-.39-.38-.64-.41-.05,0-.09-.01-.14-.01-.27,0-.55.13-.78.36-.28.28-.47.69-.54,1.16-.08.55.02,1.1.29,1.46.17.23.39.37.64.41.49.08.99-.27,1.27-.87M15.41,6.95s-.05,0-.08,0h0c-.19-.03-.32-.16-.39-.27-.21-.29-.29-.73-.22-1.19.11-.72.58-1.27,1.04-1.2.19.03.33.16.4.27.21.29.29.73.22,1.19-.11.68-.53,1.21-.96,1.21"/>
        <path class="cls-3" d="M9.22,8.02c-.13-.03-.26-.04-.41-.04-.29,0-.61.05-.95.16-1.63.52-4.51,2.23-3.73,4.99.41,1.46,1.19,2.25,1.94,3.03.75.77,1.45,1.49,1.88,2.84.34,1.07,1.25,1.82,2.22,1.82h0c.21,0,.42-.03.62-.1.58-.18,1.03-.44,1.33-.75l.03-.03.03.03c.3.26.7.47,1.2.63.6.19,1.26.09,1.8-.29.48-.33.86-.85,1.05-1.43.43-1.35,1.13-2.07,1.88-2.84.75-.77,1.53-1.57,1.94-3.03.78-2.76-2.1-4.47-3.73-4.99-.51-.16-.97-.2-1.36-.12-.43.09-.99.37-1.26,1.22-.29.91.01,1.61.34,2.18l.05.09-.1-.02c-.13-.03-.25-.04-.38-.04-.69,0-1.14.43-1.38.79-.03.05-.06.09-.09.14l-.08.13-.08-.13s-.06-.1-.09-.14c-.25-.36-.69-.79-1.39-.79-.07,0-.15,0-.24.02h-.09s.04-.07.04-.07c.28-.52.53-1.17.26-2.03-.27-.85-.84-1.14-1.26-1.22M14.1,9.24c.17-.54.48-.85.95-.94.32-.07.71-.03,1.15.11.04.01,4.32,1.4,3.46,4.48-.38,1.36-1.09,2.08-1.84,2.85-.75.77-1.52,1.56-1.98,3-.16.49-.48.93-.89,1.21-.23.16-.55.31-.95.31-.15,0-.32-.02-.49-.08-.46-.15-.83-.34-1.08-.58l-.03-.02.02-.03c.27-.49.29-1.1.08-1.85-.05-.16-.1-.32-.17-.46l-.03-.07.03-.02c.23-.2.44-.39.66-.58h.02c.69-.62,1.28-1.13,1.69-1.64.46-.56.68-1.09.68-1.65,0-.51-.17-.99-.47-1.35l-.04-.04h.01c-.09-.16-.18-.3-.26-.43l-.04-.06c-.45-.73-.75-1.31-.48-2.14M10.51,11.71c.54,0,.89.34,1.08.62.13.19.23.39.3.61.02.05.05.09.1.12.04.02.09.03.14.01.06-.02.1-.07.12-.12.07-.22.17-.42.3-.61.19-.28.54-.62,1.09-.62.31,0,.63.12.87.35v.02s.01,0,.01,0l.04.04s.03.03.05.05c.25.29.39.68.39,1.11,0,1.02-.89,1.8-2.23,2.98l-.02.02c-.2.17-.4.35-.61.54l-.06.05-.06-.05c-.22-.19-.42-.37-.63-.56-1.34-1.18-2.23-1.96-2.23-2.98,0-.42.14-.82.39-1.11.25-.29.6-.46.98-.46M9.72,11.31s-.12.2-.17.29h.02s-.05.05-.05.05c-.1.07-.19.16-.27.25-.31.36-.48.85-.48,1.37,0,.57.21,1.09.68,1.65.41.5,1,1.02,1.69,1.63l.03.03c.22.19.44.39.68.6h.01s.1.23.1.23c.06.13.11.26.15.4.37,1.31-.06,2.06-1.44,2.5-.16.05-.33.08-.49.08-.33,0-.66-.11-.96-.31-.4-.28-.72-.72-.88-1.21-.46-1.44-1.23-2.24-1.98-3-.75-.77-1.45-1.49-1.84-2.85-.87-3.08,3.41-4.47,3.46-4.48.44-.14.83-.18,1.15-.11.47.09.78.4.95.94.26.81-.03,1.38-.37,1.95"/>
        <path class="cls-3" d="M9.53,7.01c.27-.36.37-.91.29-1.46-.07-.46-.26-.88-.54-1.16-.27-.28-.6-.4-.92-.35-.25.04-.47.18-.64.41-.27.36-.37.91-.29,1.46l.06.35.13.29c.28.6.78.94,1.27.87.25-.04.47-.18.65-.41M8.82,7.06s-.05,0-.08,0c-.44,0-.85-.52-.96-1.21-.07-.45.01-.89.22-1.18h0c.08-.11.21-.24.4-.27.03,0,.05,0,.08,0,.43,0,.85.52.96,1.21.07.46-.01.9-.22,1.19-.08.11-.21.24-.4.27"/>
        <path class="cls-3" d="M7.39,5.98c-.24-.44-.63-.68-1.01-.6-.25.05-.46.25-.58.53-.1.24-.13.54-.08.83l.04.24-.16-.18c-.09-.1-.18-.17-.28-.22-.17-.09-.34-.11-.5-.05-.16.05-.29.17-.38.34-.11.21-.14.49-.08.78l.02.12-.11-.04c-.07-.02-.13-.03-.2-.03-.09,0-.18.02-.26.07-.13.07-.23.19-.27.35-.06.21-.03.45.08.69l.04.08-.09.02s-.02,0-.03,0c-.31.09-.46.48-.34.89.07.23.21.42.38.51.12.07.26.08.38.05.16-.05.28-.18.35-.36.05-.16.05-.34,0-.52l-.03-.09h.09c.1,0,.2-.01.29-.06.13-.07.23-.2.27-.35.03-.1.04-.21.03-.33v-.11s.09.04.09.04c.14.05.28.05.41.01.35-.11.54-.53.48-1.01l-.03-.23.15.18s.06.07.09.1c.22.21.49.3.74.24.46-.1.74-.63.67-1.26l-.04-.32-.15-.28ZM3.96,9.85c-.02.07-.06.11-.1.12,0,0-.02,0-.03,0-.03,0-.06-.01-.08-.02-.07-.04-.16-.13-.21-.29-.07-.23,0-.41.09-.43h.02c.09,0,.23.12.29.31.03.11.03.22,0,.31M4.59,8.84c-.02.06-.05.11-.09.13-.02.01-.05.02-.08.02-.12,0-.31-.1-.43-.33-.1-.19-.11-.36-.08-.47h0c.02-.07.05-.11.09-.13.11-.06.35.02.52.31.1.19.11.36.08.46M5.36,8.2s-.05.01-.07.01c-.2,0-.44-.24-.53-.55-.07-.23-.07-.48.02-.64.03-.06.08-.13.16-.15.07-.02.14-.01.22.03.16.08.31.28.38.51.13.39,0,.73-.18.79M6.83,7.47s-.05,0-.07,0c-.15,0-.28-.1-.34-.16-.15-.14-.26-.36-.31-.6-.05-.24-.04-.49.04-.68.04-.1.14-.27.31-.31.02,0,.05,0,.07,0,.28,0,.56.33.66.76.11.51-.1.93-.36.98"/>
        <path class="cls-3" d="M12.07,15.32c.11,0,.2-.09.2-.2v-.42h.42c.11,0,.2-.09.2-.2s-.09-.2-.2-.2h-.42v-.42c0-.11-.09-.2-.2-.2s-.2.09-.2.2v.42h-.42c-.11,0-.2.09-.2.2s.09.2.2.2h.42v.42c0,.11.09.2.2.2"/>
      </g>
    </g>
  </g>
</svg>