<?xml version="1.0" encoding="UTF-8"?>
<svg id="Laag_2" data-name="Laag 2" xmlns="http://www.w3.org/2000/svg" xmlns:xlink="http://www.w3.org/1999/xlink" viewBox="0 0 24.18 24.18">
  <defs>
    <style>
      .cls-1 {
        clip-path: url(#clippath);
      }

      .cls-2 {
        fill: none;
      }

      .cls-2, .cls-3, .cls-4 {
        stroke-width: 0px;
      }

      .cls-3 {
        fill: #000;
      }

      .cls-4 {
        fill: #fff;
      }
    </style>
    <clipPath id="clippath">
      <path class="cls-2" d="M0,12.09c0,6.68,5.41,12.09,12.09,12.09s12.09-5.41,12.09-12.09S18.77,0,12.09,0,0,5.41,0,12.09"/>
    </clipPath>
  </defs>
  <g id="Laag_1-2" data-name="Laag 1">
    <g class="cls-1">
      <g>
        <path class="cls-4" d="M23.76,12.07c0,6.45-5.23,11.67-11.67,11.67S.42,18.52.42,12.07,5.64.4,12.09.4s11.67,5.23,11.67,11.67"/>
        <path class="cls-3" d="M12.09,23.93C5.55,23.93.23,18.61.23,12.07S5.55.22,12.09.22s11.86,5.32,11.86,11.86-5.32,11.86-11.86,11.86M12.09.58C5.75.58.6,5.74.6,12.07s5.16,11.49,11.49,11.49,11.49-5.16,11.49-11.49S18.43.58,12.09.58"/>
        <path class="cls-3" d="M14.73,11.95c.06.09.2.12.29.06.98-.67,1.54-1.48,1.65-2.39.18-1.52-.94-2.77-.98-2.82-.04-.05-.1-.07-.16-.07-.05,0-.1.02-.14.05-.09.08-.09.21-.01.3.04.05,1.03,1.18.88,2.49-.09.79-.59,1.49-1.46,2.09-.1.07-.12.2-.06.29"/>
        <path class="cls-3" d="M15.81,13.3c.06.09.2.12.29.06,1.5-1.02,2.34-2.24,2.5-3.63.27-2.3-1.42-4.2-1.5-4.28-.04-.05-.1-.07-.16-.07-.05,0-.1.02-.14.05-.04.04-.07.09-.07.15s.02.11.05.15c.02.02,1.64,1.83,1.39,3.95-.15,1.26-.93,2.38-2.32,3.33-.1.07-.12.2-.06.29"/>
        <path class="cls-4" d="M7.42,6.68c-.31.06-.63-.26-.72-.7-.09-.45.09-.86.4-.92.31-.06.63.26.72.7.09.45-.09.86-.4.92M6.79,6.92c0-.37-.19-.68-.45-.68-.25,0-.47.29-.48.66,0,.37.19.68.45.68.25,0,.47-.29.48-.66M9.32,5.09c0-.57-.31-1.04-.7-1.04-.39,0-.7.47-.7,1.04s.31,1.04.7,1.04.7-.47.7-1.04M5.73,11c-.11,3.4,2.18,4.44,2.18,7.92,0,1.28.85,2.69,2.33,2.69,2.17,0,2.69-1.18,2.74-2.52.08-2.49-2.27-2.78-2.27-4.97,0-2.75,3.02-2.73,3.02-5.22,0-1.72-1.5-1.92-2.3-1.92-1.49,0-5.59.62-5.7,4.02M14.44,4.51c.15-.98-.26-1.86-.91-1.96-.66-.1-1.31.61-1.46,1.59-.15.98.26,1.86.91,1.96.66.11,1.31-.61,1.46-1.59M11.48,4.66c.07-.69-.26-1.29-.74-1.34-.48-.05-.92.48-.98,1.17-.07.69.26,1.29.74,1.34.48.04.92-.48.99-1.17"/>
        <path class="cls-3" d="M10.24,21.8c-1.57,0-2.52-1.46-2.52-2.88,0-1.68-.56-2.8-1.1-3.88-.56-1.13-1.14-2.29-1.09-4.05.11-3.32,3.9-4.2,5.89-4.2,1.6,0,2.48.75,2.48,2.1s-.77,1.97-1.52,2.61c-.77.66-1.5,1.29-1.5,2.61,0,.98.51,1.56,1.05,2.17.62.71,1.27,1.44,1.22,2.81-.06,1.82-1.02,2.7-2.92,2.7M5.92,11.01c-.06,1.67.48,2.74,1.05,3.87.56,1.12,1.14,2.27,1.14,4.04,0,1.23.8,2.51,2.15,2.51,2.19,0,2.51-1.25,2.55-2.34.04-1.22-.53-1.87-1.13-2.55-.56-.64-1.14-1.29-1.14-2.42,0-1.49.87-2.24,1.63-2.89.72-.62,1.39-1.2,1.39-2.33,0-1.43-1.15-1.73-2.11-1.73-.05,0-5.39.04-5.52,3.84M6.32,7.77s0,0-.01,0c-.14,0-.28-.07-.39-.18-.16-.17-.25-.42-.24-.69.01-.48.3-.84.66-.84h0c.07,0,.13.02.19.04,0-.03-.01-.05-.02-.08-.06-.32-.01-.64.14-.86.1-.15.24-.25.41-.28.25-.05.49.06.67.28,0-.02,0-.04,0-.07,0-.4.14-.77.37-1,.15-.15.33-.23.52-.23h0c.25,0,.48.14.65.39.15.23.24.52.24.84,0,.69-.39,1.23-.89,1.23-.23,0-.44-.12-.59-.31,0,.21-.06.41-.16.57-.1.15-.24.25-.41.28h0c-.17.03-.34-.01-.49-.11,0,.06.01.12,0,.17,0,.27-.11.52-.27.68-.11.11-.24.16-.38.16M6.34,6.42c-.13,0-.28.2-.29.48,0,.17.05.33.14.43.04.04.08.07.13.07.06,0,.1-.03.13-.06.09-.09.15-.25.16-.42,0-.29-.14-.49-.27-.49h0ZM7.17,5.24s-.03,0-.04,0c-.07.01-.12.05-.17.12-.09.14-.13.36-.08.58.07.34.3.6.5.56.08-.02.14-.08.17-.13.09-.14.12-.35.08-.57-.06-.31-.27-.56-.46-.56M8.62,4.23c-.11,0-.2.07-.26.12-.16.16-.26.43-.26.73,0,.46.24.85.52.86.28,0,.52-.39.52-.86,0-.24-.06-.47-.17-.63-.06-.08-.17-.22-.34-.22h0ZM13.1,6.29c-.05,0-.11,0-.16-.01-.77-.12-1.24-1.08-1.07-2.17.1-.64.41-1.21.83-1.51.27-.19.56-.27.84-.23.76.12,1.23,1.09,1.07,2.17-.1.64-.41,1.21-.83,1.51-.22.16-.45.24-.68.24M13.4,2.72c-.16,0-.32.06-.47.17-.34.25-.6.72-.68,1.27-.13.86.21,1.66.76,1.75.19.03.38-.03.57-.16.34-.25.6-.73.68-1.27.13-.86-.21-1.67-.76-1.75-.03,0-.06,0-.1,0M10.56,6.02s-.05,0-.08,0c-.29-.03-.55-.21-.72-.52-.16-.28-.22-.65-.19-1.02.04-.37.17-.71.38-.96.23-.27.51-.4.81-.37.58.06.98.73.91,1.54h0c-.08.77-.56,1.34-1.11,1.34M10.68,3.51c-.15,0-.31.09-.45.24-.16.19-.27.46-.3.76-.03.3.02.58.14.8.11.2.26.31.43.33.37.04.73-.42.78-1,.05-.58-.21-1.1-.57-1.13-.01,0-.03,0-.04,0"/>
      </g>
    </g>
  </g>
</svg>