<?xml version="1.0" encoding="UTF-8"?>
<svg id="Laag_2" data-name="Laag 2" xmlns="http://www.w3.org/2000/svg" xmlns:xlink="http://www.w3.org/1999/xlink" viewBox="0 0 24.18 24.18">
  <defs>
    <style>
      .cls-1 {
        clip-path: url(#clippath);
      }

      .cls-2 {
        fill: none;
      }

      .cls-2, .cls-3, .cls-4 {
        stroke-width: 0px;
      }

      .cls-3 {
        fill: #000;
      }

      .cls-4 {
        fill: #fff;
      }
    </style>
    <clipPath id="clippath">
      <path class="cls-2" d="M0,12.09c0,6.68,5.41,12.09,12.09,12.09s12.09-5.41,12.09-12.09S18.77,0,12.09,0,0,5.41,0,12.09"/>
    </clipPath>
  </defs>
  <g id="Laag_1-2" data-name="Laag 1">
    <g class="cls-1">
      <g>
        <path class="cls-4" d="M23.76,12.07c0,6.45-5.23,11.67-11.67,11.67S.42,18.52.42,12.07,5.64.4,12.09.4s11.67,5.23,11.67,11.67"/>
        <path class="cls-3" d="M12.09,23.93C5.55,23.93.23,18.61.23,12.07S5.55.22,12.09.22s11.86,5.32,11.86,11.86-5.32,11.86-11.86,11.86M12.09.58C5.75.58.6,5.74.6,12.07s5.16,11.49,11.49,11.49,11.49-5.15,11.49-11.49S18.43.58,12.09.58"/>
        <path class="cls-3" d="M7.31,18.67s-.03,0-.04,0c-.45-.02-.81-.4-.81-.87v-2.77c0-.05-.09-.05-.09,0v2.79c0,.23-.09.45-.26.61-.17.16-.39.25-.63.23-.45-.02-.81-.4-.81-.87v-2.82h-.25c-.1,0-.19-.02-.27-.06-.22-.11-.35-.36-.32-.6,0,0,0-.02,0-.03l.26-.87c-.2.15-.49.18-.74.07-.34-.16-.51-.57-.38-.93l1.31-3.75c.11-.3.4-.49.74-.49h2.77c.35,0,.64.19.74.49l1.31,3.75c.13.37-.04.77-.38.93-.24.11-.53.08-.74-.07l.26.87s0,.02,0,.03c.03.25-.09.49-.32.6-.08.04-.17.06-.27.06h-.25v2.84c0,.23-.09.45-.26.61-.16.15-.37.23-.59.23M6.41,14.62c.23,0,.41.19.41.41v2.77c0,.27.21.49.46.5.13,0,.26-.04.36-.13.1-.09.15-.22.15-.35v-3.02c0-.1.08-.18.18-.18h.43s.08,0,.1-.02c.08-.04.13-.13.12-.22l-.82-2.79s0-.03,0-.05v-.38c0-.09.06-.16.15-.18.09-.01.17.04.2.12l.65,1.86c.07.2.31.31.51.22.17-.08.26-.29.19-.48l-1.31-3.75c-.06-.18-.25-.25-.4-.25h-2.77c-.15,0-.33.06-.4.25l-1.31,3.75c-.07.19.02.4.19.48.2.09.44-.02.51-.22l.65-1.86c.03-.08.12-.13.2-.12.09.01.15.09.15.18v.38s0,.04,0,.05l-.82,2.79c0,.09.04.17.12.22.03.01.07.02.11.02h.43c.1,0,.18.08.18.18v3c0,.27.21.49.46.5.14,0,.26-.04.36-.13.1-.09.15-.22.15-.35v-2.79c0-.23.19-.41.41-.41"/>
        <path class="cls-3" d="M6.42,8.26c-.77,0-1.39-.62-1.39-1.39s.62-1.39,1.39-1.39,1.39.62,1.39,1.39-.62,1.39-1.39,1.39M6.42,5.84c-.57,0-1.03.46-1.03,1.03s.46,1.03,1.03,1.03,1.03-.46,1.03-1.03-.46-1.03-1.03-1.03"/>
        <path class="cls-3" d="M17.91,8.34c-.77,0-1.39-.62-1.39-1.39s.62-1.39,1.39-1.39,1.39.62,1.39,1.39-.62,1.39-1.39,1.39M17.91,5.92c-.57,0-1.03.46-1.03,1.03s.46,1.03,1.03,1.03,1.03-.46,1.03-1.03-.46-1.03-1.03-1.03"/>
        <path class="cls-3" d="M18.83,18.34h-.05c-.41,0-.76-.28-.86-.66-.1.38-.45.66-.86.66h-.05c-.49,0-.89-.4-.89-.89v-4.54c-.09.28-.38.49-.68.49h-.32c-.18,0-.34-.08-.44-.21-.1-.13-.12-.31-.07-.48l1.25-3.86c.09-.28.38-.49.68-.49h2.76c.3,0,.59.21.68.49l1.25,3.86c.05.17.03.35-.07.48-.1.13-.26.21-.44.21h-.32c-.3,0-.59-.21-.68-.49v4.54c0,.49-.4.89-.89.89M17.76,13.55h.3c.1,0,.18.08.18.18v3.72c0,.29.24.53.53.53h.05c.29,0,.53-.24.53-.53v-5.7c0-.09.07-.17.15-.18.09-.01.17.04.2.12l.36,1.1c.04.13.2.24.33.24h.32c.06,0,.11-.02.14-.06.03-.04.04-.1.02-.15l-1.25-3.86c-.04-.13-.19-.24-.33-.24h-2.76c-.14,0-.29.11-.33.24l-1.25,3.86c-.02.06-.01.12.02.15.03.04.08.06.14.06h.32c.14,0,.29-.11.33-.24l.36-1.1c.03-.09.11-.14.2-.12.09.01.15.09.15.18v5.7c0,.29.24.53.53.53h.05c.29,0,.53-.24.53-.53v-3.72c0-.1.08-.18.18-.18"/>
        <polygon class="cls-3" points="11.92 14.24 11.92 13 10.74 13 10.74 12.45 11.92 12.45 11.92 11.21 12.49 11.21 12.49 12.45 13.67 12.45 13.67 13 12.49 13 12.49 14.24 11.92 14.24"/>
      </g>
    </g>
  </g>
</svg>