<?xml version="1.0" encoding="UTF-8"?>
<svg id="Laag_2" data-name="Laag 2" xmlns="http://www.w3.org/2000/svg" xmlns:xlink="http://www.w3.org/1999/xlink" viewBox="0 0 24.18 24.18">
  <defs>
    <style>
      .cls-1 {
        clip-path: url(#clippath);
      }

      .cls-2 {
        fill: none;
      }

      .cls-2, .cls-3, .cls-4 {
        stroke-width: 0px;
      }

      .cls-3 {
        fill: #000;
      }

      .cls-4 {
        fill: #fff;
      }
    </style>
    <clipPath id="clippath">
      <path class="cls-2" d="M0,12.09c0,6.68,5.41,12.09,12.09,12.09s12.09-5.41,12.09-12.09S18.77,0,12.09,0,0,5.41,0,12.09"/>
    </clipPath>
  </defs>
  <g id="Laag_1-2" data-name="Laag 1">
    <g class="cls-1">
      <g>
        <path class="cls-4" d="M23.76,12.08c0,6.45-5.23,11.67-11.67,11.67S.42,18.52.42,12.08,5.64.4,12.09.4s11.67,5.23,11.67,11.67"/>
        <path class="cls-3" d="M12.09,23.93C5.55,23.93.23,18.61.23,12.08S5.55.22,12.09.22s11.86,5.32,11.86,11.86-5.32,11.86-11.86,11.86M12.09.58C5.75.58.6,5.74.6,12.08s5.15,11.49,11.49,11.49,11.49-5.16,11.49-11.49S18.43.58,12.09.58"/>
        <path class="cls-3" d="M17.73,13.3l2.45-1.83-3.39-1.29,3.22-2.68-6.54-3.45-9.46,7.6,2.46.96-2.52,1.63,2.59.97-2.53,1.57,8.22,3.27.1.04,7.91-6.07-2.51-.72ZM13.5,4.49l5.85,3.09-2.96,2.46h0s-.45.41-.82.67c-.04.01-.21.04-.78.09-.75.06-1.52.09-2.67-.1-1.1-.19-1.88-.62-1.89-.63l-.18-.1-.08.19s-.15.37-.38.79c-.23.42-.85,1.18-1.42,1.54-.1,0-.18.01-.25.01-.65,0-1.11-.14-1.11-.14l-2.09-.82,8.78-7.06ZM14.32,11.19c-.56.15-1.39.35-2.63.62l-.18.04c-.78.17-1.82.4-2.62.53.45-.42.85-.94,1.02-1.26.14-.26.25-.5.32-.65.3.15.97.43,1.82.58.93.16,1.64.17,2.26.14M6.91,12.76c.21.05.57.1,1.01.1.68,0,2.41-.38,3.67-.66l.18-.04c2.25-.49,3.44-.81,3.75-.98.29-.17.72-.53.95-.73l2.95,1.13-7.21,5.38-7.47-2.8,2.16-1.4ZM12.26,19.68l-7.45-2.96,2.15-1.34,5.32,1.99,5.08-3.8,2.08.6-7.18,5.51Z"/>
        <path class="cls-3" d="M7.45,13.94c0,.12-.1.23-.23.23s-.23-.1-.23-.23.1-.23.23-.23.23.1.23.23"/>
        <path class="cls-3" d="M9.65,14.72c0,.12-.1.23-.23.23s-.23-.1-.23-.23.1-.23.23-.23.23.1.23.23"/>
        <path class="cls-3" d="M9.37,13.24c0,.12-.1.23-.23.23s-.23-.1-.23-.23.1-.23.23-.23.23.1.23.23"/>
        <path class="cls-3" d="M11.65,15.44c0,.12-.1.23-.23.23s-.23-.1-.23-.23.1-.23.23-.23.23.1.23.23"/>
        <path class="cls-3" d="M11.29,13.4c0,.12-.1.23-.23.23s-.23-.1-.23-.23.1-.23.23-.23.23.1.23.23"/>
        <path class="cls-3" d="M12.94,13.97c0,.12-.1.23-.23.23s-.23-.1-.23-.23.1-.23.23-.23.23.1.23.23"/>
        <path class="cls-3" d="M14.24,12.52c0,.12-.1.23-.23.23s-.23-.1-.23-.23.1-.23.23-.23.23.1.23.23"/>
        <path class="cls-3" d="M16.1,11.7c0,.12-.1.23-.23.23s-.23-.1-.23-.23.1-.23.23-.23.23.1.23.23"/>
        <path class="cls-3" d="M14.12,14.7c0,.12-.1.23-.23.23s-.23-.1-.23-.23.1-.23.23-.23.23.1.23.23"/>
        <path class="cls-3" d="M15.85,13.27c0,.12-.1.23-.23.23s-.23-.1-.23-.23.1-.23.23-.23.23.1.23.23"/>
        <path class="cls-3" d="M17.97,11.73c0,.12-.1.23-.23.23s-.23-.1-.23-.23.1-.23.23-.23.23.1.23.23"/>
      </g>
    </g>
  </g>
</svg>