<?xml version="1.0" encoding="UTF-8"?>
<svg id="Laag_2" data-name="Laag 2" xmlns="http://www.w3.org/2000/svg" xmlns:xlink="http://www.w3.org/1999/xlink" viewBox="0 0 24.18 24.18">
  <defs>
    <style>
      .cls-1 {
        clip-path: url(#clippath);
      }

      .cls-2 {
        fill: none;
      }

      .cls-2, .cls-3, .cls-4 {
        stroke-width: 0px;
      }

      .cls-3 {
        fill: #000;
      }

      .cls-4 {
        fill: #fff;
      }
    </style>
    <clipPath id="clippath">
      <path class="cls-2" d="M0,12.09c0,6.68,5.41,12.09,12.09,12.09s12.09-5.41,12.09-12.09S18.77,0,12.09,0,0,5.41,0,12.09"/>
    </clipPath>
  </defs>
  <g id="Laag_1-2" data-name="Laag 1">
    <g class="cls-1">
      <g>
        <path class="cls-4" d="M23.76,12.07c0,6.45-5.23,11.67-11.67,11.67S.42,18.52.42,12.07,5.64.4,12.09.4s11.67,5.23,11.67,11.67"/>
        <path class="cls-3" d="M12.09,23.93C5.55,23.93.23,18.61.23,12.07S5.55.22,12.09.22s11.86,5.32,11.86,11.86-5.32,11.86-11.86,11.86M12.09.58C5.75.58.6,5.74.6,12.07s5.16,11.49,11.49,11.49,11.49-5.15,11.49-11.49S18.43.58,12.09.58"/>
        <path class="cls-3" d="M13.28,8.72c-.13-.13-.29-.2-.47-.2s-.35.07-.47.2l-3.59,3.6c-.13.13-.2.29-.2.47s.07.35.2.47l2.17,2.17c.13.13.29.2.47.2s.35-.07.47-.2l3.59-3.6c.13-.13.2-.29.2-.47s-.07-.35-.2-.47l-2.17-2.17ZM15.19,11.58l-3.6,3.6c-.06.06-.13.09-.21.09s-.16-.03-.22-.09l-2.17-2.17c-.06-.06-.09-.13-.09-.22s.03-.16.09-.22l3.6-3.59c.12-.12.32-.12.43,0l2.17,2.17c.06.06.09.13.09.21s-.03.16-.09.22"/>
        <path class="cls-3" d="M7.54,19.85c.87,0,1.68-.34,2.29-.95l2.26-2.26,2.26,2.26c.61.61,1.42.95,2.29.95s1.68-.34,2.29-.95c.61-.61.95-1.42.95-2.29s-.34-1.68-.95-2.29l-2.26-2.26,2.26-2.26c.61-.61.95-1.42.95-2.29s-.34-1.68-.95-2.29c-1.26-1.26-3.31-1.26-4.58,0l-2.26,2.26-2.26-2.26c-1.26-1.26-3.31-1.26-4.58,0-.61.61-.95,1.42-.95,2.29s.34,1.68.95,2.29l2.26,2.26-2.26,2.26c-.61.61-.95,1.42-.95,2.29s.34,1.68.95,2.29c.61.61,1.42.95,2.29.95M18.63,14.62c.53.53.83,1.24.83,2s-.29,1.46-.83,2-1.24.83-2,.83-1.46-.29-2-.83l-2.26-2.26,3.99-3.99,2.26,2.26ZM5.55,9.53c-.53-.53-.83-1.24-.83-2s.29-1.46.83-2c.53-.53,1.24-.83,2-.83s1.46.29,2,.83l2.26,2.26-3.99,3.99-2.26-2.26ZM5.55,14.62L14.64,5.53c.53-.53,1.24-.83,2-.83s1.46.29,2,.83c.53.53.83,1.24.83,2s-.29,1.46-.83,2l-9.09,9.09c-.53.53-1.24.83-2,.83s-1.46-.29-2-.83c-.53-.53-.83-1.24-.83-2s.29-1.46.83-2"/>
        <path class="cls-3" d="M6.76,15.84s0-.03-.01-.04c0-.01-.01-.03-.02-.04,0-.01-.02-.02-.03-.03-.05-.05-.13-.07-.2-.06-.01,0-.03,0-.04.01-.01,0-.03.01-.04.02-.01,0-.02.02-.03.03-.01.01-.02.02-.03.03,0,.01-.01.02-.02.04,0,.01-.01.03-.01.04,0,.01,0,.03,0,.04,0,.01,0,.03,0,.04,0,.01,0,.03.01.04,0,.01.01.03.02.04,0,.01.02.02.03.03.04.04.1.06.16.06s.12-.02.16-.06c.01-.01.02-.02.03-.03,0-.01.01-.02.02-.04,0-.01,0-.03.01-.04,0-.01,0-.03,0-.04,0-.01,0-.03,0-.04"/>
        <path class="cls-3" d="M7.65,16.72s0-.03-.01-.04c0-.01-.01-.03-.02-.04,0-.01-.02-.02-.03-.03-.01-.01-.02-.02-.03-.03-.01,0-.03-.01-.04-.02-.01,0-.03,0-.04-.01-.03,0-.06,0-.09,0-.01,0-.03,0-.04.01-.01,0-.03.01-.04.02-.01,0-.02.02-.03.03-.01,0-.02.02-.03.03,0,.01-.01.02-.02.04,0,.01-.01.03-.01.04,0,.01,0,.03,0,.04,0,.06.02.11.06.16.01.01.02.02.03.03.01,0,.03.01.04.02.01,0,.03.01.04.01.01,0,.03,0,.04,0,.06,0,.12-.02.16-.07.04-.04.07-.1.07-.16,0-.01,0-.03,0-.04"/>
        <path class="cls-3" d="M8.53,17.6s0-.03-.01-.04c0-.01-.01-.03-.02-.04,0-.01-.02-.02-.03-.03-.01-.01-.02-.02-.03-.03-.01,0-.02-.01-.04-.02-.01,0-.03-.01-.04-.01-.07-.01-.15,0-.2.06-.01.01-.02.02-.03.03,0,.01-.01.03-.02.04,0,.01-.01.03-.01.04,0,.01,0,.03,0,.04,0,.06.02.11.06.16.04.04.1.07.16.07.01,0,.03,0,.04,0,.01,0,.03,0,.04-.01.01,0,.03-.01.04-.02.01,0,.02-.02.03-.03.04-.04.07-.1.07-.16,0-.01,0-.03,0-.04"/>
        <path class="cls-3" d="M7.92,15.56s0-.03-.01-.04c0-.01-.01-.03-.02-.04,0-.01-.02-.02-.03-.03-.01,0-.02-.02-.03-.03-.01,0-.03-.01-.04-.02-.01,0-.03,0-.04-.01-.03,0-.06,0-.09,0-.01,0-.03,0-.04.01-.01,0-.03.01-.04.02-.01,0-.02.02-.03.03-.01.01-.02.02-.03.03,0,.01-.01.02-.02.04,0,.01-.01.03-.01.04,0,.01,0,.03,0,.04,0,.01,0,.03,0,.04,0,.01,0,.03.01.04,0,.01.01.03.02.04,0,.01.02.02.03.03.01.01.02.02.03.03.01,0,.03.01.04.02.01,0,.03,0,.04.01.01,0,.03,0,.04,0s.03,0,.04,0c.01,0,.03,0,.04-.01.01,0,.03-.01.04-.02.01,0,.02-.02.03-.03.01-.01.02-.02.03-.03,0-.01.01-.02.02-.04,0-.01.01-.03.01-.04,0-.01,0-.03,0-.04,0-.01,0-.03,0-.04"/>
        <path class="cls-3" d="M8.74,16.33s-.02-.02-.03-.03c-.01,0-.03-.01-.04-.02-.01,0-.03-.01-.04-.01-.03,0-.06,0-.09,0-.01,0-.03,0-.04.01-.01,0-.03.01-.04.02-.01,0-.02.02-.03.03s-.02.02-.03.03c0,.01-.01.03-.02.04,0,.01-.01.03-.01.04,0,.01,0,.03,0,.04s0,.03,0,.04c0,.01,0,.03.01.04,0,.01.01.03.02.04,0,.01.02.02.03.03.04.04.1.07.16.07.01,0,.03,0,.04,0,.01,0,.03,0,.04-.01.01,0,.03-.01.04-.02.01,0,.02-.02.03-.03.01-.01.02-.02.03-.03,0-.01.01-.03.02-.04,0-.01,0-.03.01-.04,0-.01,0-.03,0-.04,0-.06-.02-.12-.07-.16"/>
        <path class="cls-3" d="M8.14,14.29c-.05-.05-.13-.08-.2-.06-.01,0-.03,0-.04.01-.01,0-.03.01-.04.02-.01,0-.02.02-.03.03-.04.04-.07.1-.07.16,0,.01,0,.03,0,.04,0,.01,0,.03.01.04,0,.01.01.03.02.04,0,.01.02.02.03.03.01.01.02.02.03.03.01,0,.03.01.04.02.01,0,.03.01.04.01.01,0,.03,0,.04,0,.01,0,.03,0,.04,0,.01,0,.03,0,.04-.01.01,0,.03-.01.04-.02.01,0,.02-.02.03-.03.01-.01.02-.02.03-.03,0-.01.01-.03.02-.04,0-.01.01-.03.01-.04,0-.01,0-.03,0-.04,0-.06-.02-.12-.07-.16"/>
        <path class="cls-3" d="M9.08,15.29s0-.03-.01-.04c0-.01-.01-.03-.02-.04,0-.01-.02-.02-.03-.03-.05-.05-.13-.07-.2-.06-.01,0-.03,0-.04.01-.01,0-.03.01-.04.02-.01,0-.02.02-.03.03-.01.01-.02.02-.03.03,0,.01-.01.02-.02.04,0,.01-.01.03-.01.04,0,.01,0,.03,0,.04,0,.06.02.12.06.16.01,0,.02.02.03.03.01,0,.03.01.04.02.01,0,.03,0,.04.01.01,0,.03,0,.04,0s.03,0,.04,0c.01,0,.03,0,.04-.01.01,0,.03-.01.04-.02.01,0,.02-.02.03-.03.04-.04.07-.1.07-.16,0-.01,0-.03,0-.04"/>
        <path class="cls-3" d="M9.96,16.17s0-.03-.01-.04c0-.01-.01-.03-.02-.04,0-.01-.02-.02-.03-.03-.01-.01-.02-.02-.03-.03-.01,0-.03-.01-.04-.02-.01,0-.03-.01-.04-.01-.03,0-.06,0-.09,0-.01,0-.03,0-.04.01-.01,0-.03.01-.04.02-.01,0-.02.02-.03.03-.01.01-.02.02-.03.03,0,.01-.01.03-.02.04,0,.01-.01.03-.01.04,0,.01,0,.03,0,.04,0,.01,0,.03,0,.04,0,.01,0,.03.01.04,0,.01.01.03.02.04,0,.01.02.02.03.03.01,0,.02.02.03.03.01,0,.03.01.04.02.01,0,.03,0,.04.01.01,0,.03,0,.04,0,.01,0,.03,0,.04,0,.01,0,.03,0,.04-.01.01,0,.03-.01.04-.02.01,0,.02-.02.03-.03.01-.01.02-.02.03-.03,0-.01.01-.03.02-.04,0-.01.01-.03.01-.04,0-.01,0-.03,0-.04,0-.01,0-.03,0-.04"/>
        <path class="cls-3" d="M14.64,8.03s0-.03-.01-.04c0-.01-.01-.03-.02-.04,0-.01-.02-.02-.03-.03-.05-.05-.13-.07-.2-.06-.01,0-.03,0-.04.01-.01,0-.03.01-.04.02-.01,0-.02.02-.03.03-.01.01-.02.02-.03.03,0,.01-.01.02-.02.04,0,.01-.01.03-.01.04,0,.01,0,.03,0,.04,0,.01,0,.03,0,.04,0,.01,0,.03.01.04,0,.01.01.03.02.04,0,.01.02.02.03.03.04.04.1.07.16.07s.12-.02.16-.07c.01-.01.02-.02.03-.03,0-.01.01-.03.02-.04,0-.01,0-.03.01-.04,0-.01,0-.03,0-.04,0-.01,0-.03,0-.04"/>
        <path class="cls-3" d="M15.53,8.92s0-.03-.01-.04c0-.01-.01-.03-.02-.04,0-.01-.02-.02-.03-.03-.01-.01-.02-.02-.03-.03-.01,0-.03-.01-.04-.02-.01,0-.03,0-.04-.01-.03,0-.06,0-.09,0-.01,0-.03,0-.04.01-.01,0-.03.01-.04.02-.01,0-.02.02-.03.03-.01,0-.02.02-.03.03,0,.01-.01.02-.02.04,0,.01-.01.03-.01.04,0,.01,0,.03,0,.04,0,.06.02.12.06.16.01.01.02.02.03.03.01,0,.03.01.04.02.01,0,.03.01.04.01.01,0,.03,0,.04,0,.06,0,.12-.02.16-.07.04-.04.07-.1.07-.16,0-.01,0-.03,0-.04"/>
        <path class="cls-3" d="M16.41,9.8s0-.03-.01-.04c0-.01-.01-.03-.02-.04,0-.01-.02-.02-.03-.03s-.02-.02-.03-.03c-.01,0-.03-.01-.04-.02-.01,0-.03,0-.04-.01-.07-.01-.15,0-.2.06-.01.01-.02.02-.03.03,0,.01-.01.03-.02.04,0,.01-.01.03-.01.04,0,.01,0,.03,0,.04,0,.06.02.12.06.16.04.04.1.07.16.07.01,0,.03,0,.04,0,.01,0,.03,0,.04-.01.01,0,.03-.01.04-.02.01,0,.02-.02.03-.03.04-.04.07-.1.07-.16,0-.01,0-.03,0-.04"/>
        <path class="cls-3" d="M15.8,7.76s0-.03-.01-.04c0-.01-.01-.03-.02-.04,0-.01-.02-.02-.03-.03-.01,0-.02-.02-.03-.03-.01,0-.03-.01-.04-.02-.01,0-.03,0-.04-.01-.03,0-.06,0-.09,0-.01,0-.03,0-.04.01-.01,0-.03.01-.04.02-.01,0-.02.02-.03.03-.01.01-.02.02-.03.03,0,.01-.01.02-.02.04,0,.01-.01.03-.01.04,0,.01,0,.03,0,.04,0,.01,0,.03,0,.04,0,.01,0,.03.01.04,0,.01.01.03.02.04,0,.01.02.02.03.03.01.01.02.02.03.03.01,0,.03.01.04.02.01,0,.03,0,.04.01.01,0,.03,0,.04,0s.03,0,.04,0c.01,0,.03,0,.04-.01.01,0,.03-.01.04-.02.01,0,.02-.02.03-.03.01,0,.02-.02.03-.03,0-.01.01-.02.02-.04,0-.01.01-.03.01-.04,0-.01,0-.03,0-.04,0-.01,0-.03,0-.04"/>
        <path class="cls-3" d="M16.62,8.53s-.02-.02-.03-.03c-.01,0-.03-.01-.04-.02-.01,0-.03-.01-.04-.01-.03,0-.06,0-.09,0-.01,0-.03,0-.04.01-.01,0-.03.01-.04.02-.01,0-.02.02-.03.03-.01.01-.02.02-.03.03,0,.01-.01.03-.02.04,0,.01-.01.03-.01.04,0,.01,0,.03,0,.04,0,.01,0,.03,0,.04,0,.01,0,.03.01.04,0,.01.01.03.02.04,0,.01.02.02.03.03.04.04.1.07.16.07.01,0,.03,0,.04,0,.01,0,.03,0,.04-.01.01,0,.03-.01.04-.02.01,0,.02-.02.03-.03.01-.01.02-.02.03-.03,0-.01.01-.03.02-.04,0-.01,0-.03.01-.04,0-.01,0-.03,0-.04,0-.06-.02-.12-.07-.16"/>
        <path class="cls-3" d="M16.02,6.49c-.05-.05-.13-.07-.2-.06-.01,0-.03,0-.04.01-.01,0-.03.01-.04.02-.01,0-.02.02-.03.03-.04.04-.06.1-.06.16,0,.01,0,.03,0,.04,0,.01,0,.03.01.04,0,.01.01.03.02.04,0,.01.02.02.03.03.01.01.02.02.03.03.01,0,.03.01.04.02.01,0,.03,0,.04.01.01,0,.03,0,.04,0,.01,0,.03,0,.04,0,.01,0,.03,0,.04-.01.01,0,.03-.01.04-.02.01,0,.02-.02.03-.03.01-.01.02-.02.03-.03,0-.01.01-.03.02-.04,0-.01.01-.03.01-.04,0-.01,0-.03,0-.04,0-.06-.02-.12-.07-.16"/>
        <path class="cls-3" d="M16.96,7.49s0-.03-.01-.04c0-.01-.01-.03-.02-.04,0-.01-.02-.02-.03-.03-.05-.05-.13-.07-.2-.06-.01,0-.03,0-.04.01-.01,0-.03.01-.04.02-.01,0-.02.02-.03.03-.01.01-.02.02-.03.03,0,.01-.01.03-.02.04,0,.01-.01.03-.01.04,0,.01,0,.03,0,.04,0,.06.02.12.07.16.01.01.02.02.03.03.01,0,.03.01.04.02.01,0,.03,0,.04.01.01,0,.03,0,.04,0s.03,0,.04,0c.01,0,.03,0,.04-.01.01,0,.03-.01.04-.02.01,0,.02-.02.03-.03.04-.04.07-.1.07-.16,0-.01,0-.03,0-.04"/>
        <path class="cls-3" d="M17.84,8.37s0-.03-.01-.04c0-.01-.01-.03-.02-.04,0-.01-.02-.02-.03-.03-.01-.01-.02-.02-.03-.03-.01,0-.03-.01-.04-.02-.01,0-.03-.01-.04-.01-.03,0-.06,0-.09,0-.01,0-.03,0-.04.01-.01,0-.03.01-.04.02-.01,0-.02.02-.03.03-.01.01-.02.02-.03.03,0,.01-.01.02-.02.04,0,.01-.01.03-.01.04,0,.01,0,.03,0,.04,0,.01,0,.03,0,.04,0,.01,0,.03.01.04,0,.01.01.03.02.04,0,.01.02.02.03.03.01.01.02.02.03.03.01,0,.03.01.04.02.01,0,.03,0,.04.01.01,0,.03,0,.04,0,.01,0,.03,0,.04,0,.01,0,.03,0,.04-.01.01,0,.03-.01.04-.02.01,0,.02-.02.03-.03.01-.01.02-.02.03-.03,0-.01.01-.03.02-.04,0-.01.01-.03.01-.04,0-.01,0-.03,0-.04,0-.01,0-.03,0-.04"/>
      </g>
    </g>
  </g>
</svg>