<?xml version="1.0" encoding="UTF-8"?>
<svg id="Laag_2" data-name="Laag 2" xmlns="http://www.w3.org/2000/svg" xmlns:xlink="http://www.w3.org/1999/xlink" viewBox="0 0 24.18 24.18">
  <defs>
    <style>
      .cls-1 {
        clip-path: url(#clippath);
      }

      .cls-2, .cls-3, .cls-4 {
        stroke-width: 0px;
      }

      .cls-2, .cls-5 {
        fill: none;
      }

      .cls-3 {
        fill: #000;
      }

      .cls-5 {
        stroke: #000;
        stroke-linecap: round;
        stroke-miterlimit: 10;
        stroke-width: .36px;
      }

      .cls-4 {
        fill: #fff;
      }
    </style>
    <clipPath id="clippath">
      <path class="cls-2" d="M0,12.09c0,6.68,5.41,12.09,12.09,12.09s12.09-5.41,12.09-12.09S18.77,0,12.09,0,0,5.41,0,12.09"/>
    </clipPath>
  </defs>
  <g id="Laag_1-2" data-name="Laag 1">
    <g class="cls-1">
      <g>
        <path class="cls-4" d="M23.76,12.07c0,6.45-5.23,11.67-11.67,11.67S.42,18.52.42,12.07,5.64.4,12.09.4s11.67,5.23,11.67,11.67"/>
        <path class="cls-3" d="M12.09,23.93C5.55,23.93.23,18.61.23,12.07S5.55.22,12.09.22s11.86,5.32,11.86,11.86-5.32,11.86-11.86,11.86M12.09.58C5.75.58.6,5.74.6,12.07s5.15,11.49,11.49,11.49,11.49-5.15,11.49-11.49S18.43.58,12.09.58"/>
        <path class="cls-3" d="M10.94,20.5s-.03,0-.05,0c-.55-.03-.99-.49-.99-1.06v-3.68h-.37c-.12,0-.23-.03-.33-.08-.27-.14-.42-.43-.38-.72,0,0,0-.02,0-.03l.38-1.29c-.25.27-.67.36-1.02.2-.42-.19-.62-.69-.46-1.13l1.69-4.82c.13-.36.48-.6.9-.6h3.56c.42,0,.77.23.9.6l1.69,4.82h0c.16.44-.05.94-.47,1.13-.35.16-.77.07-1.02-.2l.38,1.29s0,.02,0,.03c.04.29-.11.58-.38.72-.1.05-.21.08-.33.08h-.37v3.7c0,.29-.11.55-.32.75-.21.2-.48.3-.77.29-.55-.03-.99-.49-.99-1.06v-3.56c0-.06-.05-.11-.11-.11s-.11.05-.11.11v3.59c0,.29-.11.55-.32.75-.2.19-.45.29-.72.29M9.18,15.03c-.01.14.06.27.18.33.04.02.1.03.16.03h.56c.1,0,.18.08.18.18v3.86c0,.37.29.68.64.7.19.01.36-.06.5-.19.13-.13.21-.3.21-.49v-3.59c0-.26.21-.48.48-.48s.48.21.48.48v3.56c0,.37.29.68.64.7.19.01.36-.06.5-.19.13-.13.21-.3.21-.49v-3.88c0-.1.08-.18.18-.18h.56c.06,0,.11-.01.16-.04.13-.07.2-.19.18-.33l-1.06-3.6s0-.03,0-.05v-.49c0-.09.06-.17.15-.18.09-.02.17.04.2.12l.84,2.38c.07.21.28.36.5.36.08,0,.15-.02.22-.05.25-.11.37-.41.27-.68l-1.69-4.82c-.09-.26-.35-.35-.56-.35h-3.56c-.21,0-.47.09-.56.35l-1.69,4.82c-.09.27.03.57.27.68.07.03.15.05.22.05.23,0,.43-.14.5-.36l.83-2.38c.03-.08.12-.13.2-.12.09.01.15.09.15.18v.49s0,.04,0,.05l-1.06,3.6Z"/>
        <path class="cls-3" d="M12.1,7.12c-.96,0-1.73-.78-1.73-1.73s.78-1.73,1.73-1.73,1.73.78,1.73,1.73-.78,1.73-1.73,1.73M12.1,4.01c-.76,0-1.37.61-1.37,1.37s.61,1.37,1.37,1.37,1.37-.61,1.37-1.37-.61-1.37-1.37-1.37"/>
        <polygon class="cls-5" points="14.34 6.94 9.94 6.94 10.58 5.12 13.62 5.14 14.34 6.94"/>
      </g>
    </g>
  </g>
</svg>