<?xml version="1.0" encoding="UTF-8"?>
<svg id="Laag_2" data-name="Laag 2" xmlns="http://www.w3.org/2000/svg" xmlns:xlink="http://www.w3.org/1999/xlink" viewBox="0 0 24.18 24.18">
  <defs>
    <style>
      .cls-1 {
        clip-path: url(#clippath);
      }

      .cls-2 {
        fill: none;
      }

      .cls-2, .cls-3, .cls-4 {
        stroke-width: 0px;
      }

      .cls-3 {
        fill: #000;
      }

      .cls-4 {
        fill: #fff;
      }
    </style>
    <clipPath id="clippath">
      <path class="cls-2" d="M0,12.09c0,6.68,5.41,12.09,12.09,12.09s12.09-5.41,12.09-12.09S18.77,0,12.09,0,0,5.41,0,12.09"/>
    </clipPath>
  </defs>
  <g id="Laag_1-2" data-name="Laag 1">
    <g class="cls-1">
      <g>
        <path class="cls-4" d="M23.76,12.07c0,6.45-5.23,11.67-11.67,11.67S.42,18.52.42,12.07,5.64.4,12.09.4s11.67,5.23,11.67,11.67"/>
        <path class="cls-3" d="M12.09,23.93C5.55,23.93.24,18.61.24,12.08S5.55.22,12.09.22s11.86,5.32,11.86,11.86-5.32,11.86-11.86,11.86M12.09.58C5.75.58.6,5.74.6,12.08s5.15,11.49,11.49,11.49,11.49-5.16,11.49-11.49S18.43.58,12.09.58"/>
        <path class="cls-3" d="M11.1,12.57c.27,0,.49.22.49.49s-.22.5-.49.5-.5-.22-.5-.5.22-.49.5-.49"/>
        <path class="cls-3" d="M13.08,12.57c.27,0,.49.22.49.49s-.22.5-.49.5-.5-.22-.5-.5.22-.49.5-.49"/>
        <path class="cls-3" d="M19.36,10.33l-.19-.14.09-.22c.27-.63.23-1.36-.11-1.96-.35-.6-.98-1.02-1.68-1.1l-.23-.03-.03-.23c-.08-.68-.48-1.3-1.07-1.64-.59-.34-1.33-.38-1.96-.11l-.22.09-.14-.19c-.41-.55-1.06-.88-1.75-.88s-1.34.33-1.75.88l-.14.19-.22-.09c-.63-.27-1.36-.23-1.96.11-.59.34-1,.96-1.07,1.64l-.03.23-.23.03c-.7.09-1.33.5-1.67,1.1-.34.59-.38,1.32-.11,1.96l.09.22-.19.14c-.55.41-.88,1.06-.88,1.75s.33,1.34.88,1.75l.19.14-.09.22c-.27.63-.23,1.36.11,1.96.34.59.97.99,1.67,1.07l.23.03.03.23c.08.71.48,1.33,1.07,1.67.59.34,1.32.38,1.96.11l.22-.09.14.19c.41.55,1.06.88,1.75.88s1.34-.33,1.75-.88l.14-.19.22.09c.63.27,1.36.23,1.96-.11.59-.34.99-.97,1.07-1.67l.03-.23.24-.03c.7-.08,1.33-.48,1.67-1.07.34-.59.38-1.32.11-1.96l-.09-.22.19-.14c.55-.41.88-1.06.88-1.75s-.33-1.34-.88-1.75M18.79,13.7c-.05.03-.1.07-.11.13-.02.06,0,.12.03.17.41.57.45,1.33.11,1.94-.35.6-1.05.95-1.76.88-.06,0-.12.01-.16.06-.04.04-.06.1-.06.16.08.71-.28,1.42-.88,1.76-.61.35-1.37.31-1.94-.1-.05-.04-.11-.05-.17-.03-.06.02-.11.06-.13.11-.29.64-.93,1.06-1.63,1.06s-1.34-.42-1.63-1.06c-.03-.05-.07-.1-.13-.11-.06-.02-.12,0-.17.03-.57.41-1.33.45-1.94.1-.6-.35-.95-1.05-.88-1.76,0-.06-.01-.12-.06-.16-.04-.04-.1-.06-.16-.06-.71.08-1.42-.28-1.76-.88-.35-.61-.31-1.37.1-1.94.04-.05.05-.11.03-.17-.01-.06-.06-.11-.11-.13-.64-.29-1.06-.92-1.06-1.63s.42-1.34,1.06-1.63c.05-.02.1-.07.11-.13.01-.06,0-.12-.03-.17-.41-.57-.45-1.33-.1-1.94.35-.61,1.08-.99,1.76-.91.06,0,.12-.01.16-.06.04-.04.06-.1.06-.16-.07-.7.27-1.38.88-1.73.61-.35,1.37-.31,1.94.11.05.03.11.05.17.03.06-.02.11-.06.13-.11.29-.64.92-1.06,1.63-1.06s1.34.42,1.63,1.06c.02.05.07.1.13.11.06.02.12,0,.17-.03.57-.41,1.33-.46,1.94-.11.61.35.95,1.03.88,1.73,0,.06.01.12.06.16.04.04.1.06.16.06.69-.08,1.41.3,1.76.91.35.61.31,1.37-.11,1.94-.04.05-.05.11-.03.17.01.06.06.11.11.13.64.29,1.06.92,1.06,1.63s-.42,1.34-1.06,1.63"/>
        <path class="cls-3" d="M18.07,10.89h-1.81l.26-.44c.15-.26.23-.55.23-.84,0-.11-.09-.2-.2-.2s-.2.09-.2.2c0,.71-.58,1.29-1.29,1.29s-1.29-.58-1.29-1.29c0-.11-.09-.2-.2-.2s-.2.09-.2.2c0,.71-.58,1.29-1.29,1.29s-1.29-.58-1.29-1.29c0-.11-.09-.2-.2-.2s-.2.09-.2.2c0,.71-.58,1.29-1.29,1.29s-1.29-.58-1.29-1.29c0-.11-.09-.2-.2-.2s-.2.09-.2.2c0,.29.08.59.23.84l.26.44h-1.81c-.11,0-.2.09-.2.2,0,1.2.99,2.18,2.21,2.18h.79v.79c0,1.75,1.42,3.17,3.17,3.17s3.17-1.42,3.17-3.17v-.79h.79c1.22,0,2.21-.98,2.21-2.18,0-.11-.09-.2-.2-.2M8.92,12.87h-.79c-.76,0-1.44-.48-1.71-1.18l-.15-.4h2.65v1.58ZM14.86,14.06c0,1.53-1.24,2.77-2.77,2.77s-2.77-1.24-2.77-2.77v-2.77l.22-.06c.33-.08.62-.26.84-.52l.22-.25.22.25c.32.36.78.57,1.26.57s.94-.21,1.26-.57l.22-.25.22.25c.23.26.52.44.84.52l.22.06v2.77ZM17.76,11.68c-.27.71-.95,1.18-1.71,1.18h-.79v-1.58h2.65l-.15.4Z"/>
      </g>
    </g>
  </g>
</svg>