<?xml version="1.0" encoding="UTF-8"?>
<svg id="Laag_2" data-name="Laag 2" xmlns="http://www.w3.org/2000/svg" xmlns:xlink="http://www.w3.org/1999/xlink" viewBox="0 0 24.18 24.18">
  <defs>
    <style>
      .cls-1 {
        clip-path: url(#clippath);
      }

      .cls-2 {
        fill: none;
      }

      .cls-2, .cls-3, .cls-4 {
        stroke-width: 0px;
      }

      .cls-3 {
        fill: #000;
      }

      .cls-4 {
        fill: #fff;
      }
    </style>
    <clipPath id="clippath">
      <path class="cls-2" d="M0,12.09c0,6.68,5.41,12.09,12.09,12.09s12.09-5.41,12.09-12.09S18.77,0,12.09,0,0,5.41,0,12.09"/>
    </clipPath>
  </defs>
  <g id="Laag_1-2" data-name="Laag 1">
    <g class="cls-1">
      <g>
        <path class="cls-4" d="M23.76,12.07c0,6.45-5.23,11.67-11.67,11.67S.42,18.52.42,12.07,5.64.4,12.09.4s11.67,5.23,11.67,11.67"/>
        <path class="cls-3" d="M12.09,23.93C5.55,23.93.24,18.61.24,12.08S5.55.22,12.09.22s11.86,5.32,11.86,11.86-5.32,11.86-11.86,11.86M12.09.59C5.75.59.6,5.74.6,12.08s5.15,11.49,11.49,11.49,11.49-5.16,11.49-11.49S18.43.59,12.09.59"/>
        <path class="cls-3" d="M15.29,5.68c-.14.36-.55.53-.9.38-.36-.14-.53-.55-.38-.9.14-.36,1.07-.76,1.07-.76,0,0,.36.93.22,1.28"/>
        <path class="cls-3" d="M9.52,5.68c-.14.36-.55.53-.9.38-.35-.14-.53-.55-.38-.9.14-.36,1.07-.76,1.07-.76,0,0,.36.93.22,1.28"/>
        <path class="cls-3" d="M12.51,3.75c-.14.36-.55.53-.9.38-.36-.14-.53-.55-.38-.9.14-.36,1.07-.76,1.07-.76,0,0,.36.93.22,1.28"/>
        <path class="cls-3" d="M17.51,9.12c-1.44-1.46-3.37-2.29-5.42-2.33v-.63c0-.1-.08-.19-.19-.19s-.19.08-.19.19v.63c-2.03.06-3.92.9-5.35,2.36-1.43,1.46-2.21,3.4-2.21,5.44,0,.1.08.19.19.19.05,0,.11-.02.14-.07,0,0,0,0,0,0,0,0,.01,0,.02-.01.51-.63,1.37-1.01,2.24-1.01,1.09,0,2.01.51,2.45,1.35,0,0,0,0,0,0h0s.05.08.09.11c.03.01.06.02.09.02.07,0,.13-.04.17-.1.44-.81,1.29-1.32,2.27-1.38v6.73s0,0,0,0c0,0,0,0,0,0,0,.62-.51,1.13-1.13,1.13s-1.13-.51-1.13-1.13c0-.1-.08-.19-.19-.19s-.19.08-.19.19c0,.83.68,1.51,1.51,1.51s1.51-.68,1.51-1.51c0,0,0,0,0,0,0,0,0,0,0,0v-6.73c.93.06,1.75.54,2.21,1.29.03.05.08.08.15.09.01,0,.03,0,.04,0,.07,0,.13-.03.16-.09.49-.8,1.41-1.29,2.4-1.29s1.79.35,2.26,1.01c0,0,.01.01.02.02,0,0,0,0,0,0,0,0,.01.01.02.02,0,0,.01,0,.02.01.03.02.07.03.1.03.1,0,.19-.08.19-.19,0-2.06-.8-4-2.25-5.47M12.62,7.2c3.61.32,6.5,3.27,6.74,6.88-.55-.51-1.31-.78-2.22-.78s-1.82.39-2.42,1.07c0-.29-.01-.71-.03-1.1-.03-.69-.19-1.88-.34-2.67-.16-.8-.33-1.54-.9-2.48-.23-.37-.51-.68-.84-.93M9.63,13.24c.03-.66.18-1.86.33-2.62.15-.77.32-1.48.85-2.35.39-.64.89-.95,1.1-1.05t0,0s0,0,.02,0c.03.01.72.29,1.22,1.11.53.88.7,1.59.85,2.35.15.76.3,1.96.33,2.62.01.28.02.62.03.99-.6-.63-1.45-.98-2.34-.98s-1.82.38-2.41,1.05c0-.3.01-.73.03-1.13M10.49,8.07c-.57.93-.74,1.67-.9,2.48-.15.79-.3,1.98-.34,2.67-.02.43-.03.91-.03,1.17-.57-.69-1.47-1.08-2.47-1.08-.81,0-1.61.29-2.2.81.23-3.6,3.1-6.56,6.69-6.91-.29.24-.55.53-.75.86"/>
      </g>
    </g>
  </g>
</svg>