<?xml version="1.0" encoding="UTF-8"?>
<svg id="Laag_2" data-name="Laag 2" xmlns="http://www.w3.org/2000/svg" xmlns:xlink="http://www.w3.org/1999/xlink" viewBox="0 0 24.18 24.18">
  <defs>
    <style>
      .cls-1 {
        clip-path: url(#clippath);
      }

      .cls-2 {
        fill: none;
      }

      .cls-2, .cls-3, .cls-4 {
        stroke-width: 0px;
      }

      .cls-3 {
        fill: #000;
      }

      .cls-4 {
        fill: #fff;
      }
    </style>
    <clipPath id="clippath">
      <path class="cls-2" d="M0,12.09c0,6.68,5.41,12.09,12.09,12.09s12.09-5.41,12.09-12.09S18.77,0,12.09,0,0,5.41,0,12.09"/>
    </clipPath>
  </defs>
  <g id="Laag_1-2" data-name="Laag 1">
    <g class="cls-1">
      <g>
        <path class="cls-4" d="M23.76,12.07c0,6.45-5.23,11.67-11.67,11.67S.42,18.52.42,12.07,5.64.4,12.09.4s11.67,5.23,11.67,11.67"/>
        <path class="cls-3" d="M12.09,23.93C5.55,23.93.23,18.61.23,12.08S5.55.22,12.09.22s11.86,5.32,11.86,11.86-5.32,11.86-11.86,11.86M12.09.58C5.75.58.6,5.74.6,12.08s5.16,11.49,11.49,11.49,11.49-5.16,11.49-11.49S18.43.58,12.09.58"/>
        <path class="cls-3" d="M4.27,6.88c-.03.05-.05.11-.03.17l1.88,9.4c.12.58.63,1,1.23,1h9.91c.59,0,1.11-.42,1.23-1l1.88-9.4c.01-.06,0-.12-.03-.17-.03-.05-.09-.09-.15-.1h0c-.05-.01-.11,0-.16.03-.05.03-.09.09-.1.15l-.5,2.49-.13-.07c-.21-.11-.38-.28-.57-.49-.31-.34-.69-.76-1.42-.76s-1.11.42-1.42.75c-.3.33-.56.61-1.08.61s-.78-.28-1.08-.61c-.31-.34-.69-.76-1.42-.76s-1.11.42-1.42.76c-.3.33-.56.61-1.08.61s-.78-.28-1.08-.61c-.31-.34-.69-.76-1.42-.76s-1.11.42-1.42.75c-.19.21-.36.38-.57.49l-.13.07-.5-2.49c-.01-.06-.05-.11-.1-.15-.04-.02-.08-.04-.12-.04-.01,0-.03,0-.04,0-.06.01-.11.05-.15.1M5.36,9.85c.36-.13.6-.38.86-.65.3-.33.56-.61,1.08-.61s.78.28,1.08.61c.31.34.69.76,1.42.76s1.11-.42,1.42-.76c.3-.33.56-.61,1.08-.61s.78.28,1.08.61c.31.34.69.76,1.42.76s1.11-.42,1.42-.75c.3-.33.56-.61,1.08-.61s.78.28,1.08.61c.25.27.5.52.86.65l.09.03v.04s-1.29,6.43-1.29,6.43c-.07.37-.4.64-.78.64H7.34c-.38,0-.7-.27-.78-.64l-1.29-6.47.09-.03Z"/>
        <path class="cls-3" d="M11.1,14.9c-.23,0-.43-.04-.59-.12-.16-.08-.29-.17-.39-.29l.25-.33c.09.09.19.16.3.22.11.06.24.09.38.09.16,0,.28-.04.38-.12.1-.08.15-.18.15-.32,0-.08-.01-.14-.04-.2-.03-.06-.07-.11-.14-.15-.07-.04-.15-.08-.26-.1-.11-.02-.24-.03-.41-.03v-.38c.14,0,.26-.01.35-.03.09-.02.17-.05.23-.09.06-.04.1-.09.13-.15.03-.06.04-.12.04-.19,0-.12-.04-.21-.11-.28-.08-.07-.18-.1-.31-.1-.11,0-.22.02-.31.07-.09.05-.18.12-.27.2l-.27-.32c.12-.11.25-.2.39-.26.14-.07.3-.1.47-.1.14,0,.27.02.38.05.11.03.21.08.29.15.08.07.14.14.19.24.05.09.07.2.07.32,0,.16-.04.3-.13.41-.09.11-.21.19-.37.25v.02c.17.05.31.13.43.25.11.12.17.28.17.46,0,.13-.03.25-.08.35-.05.1-.12.19-.22.26-.09.07-.2.12-.32.16-.12.04-.25.06-.39.06"/>
        <path class="cls-3" d="M13.48,14.9c-.3,0-.54-.13-.71-.39-.17-.26-.26-.63-.26-1.12s.09-.86.26-1.1c.17-.25.41-.37.71-.37s.54.12.71.37c.17.25.26.62.26,1.1s-.09.86-.26,1.12c-.17.26-.41.39-.71.39M13.48,14.49c.07,0,.13-.02.19-.06.06-.04.11-.1.15-.19.04-.09.08-.2.1-.34.02-.14.04-.31.04-.51s-.01-.37-.04-.51c-.02-.14-.06-.25-.1-.33-.04-.08-.09-.14-.15-.18-.06-.03-.12-.05-.19-.05s-.13.02-.19.05c-.06.04-.11.09-.15.18-.04.08-.08.2-.1.33-.02.14-.04.31-.04.51s.01.38.04.51c.02.14.06.25.1.34.04.09.09.15.15.19.06.04.12.06.19.06"/>
        <path class="cls-3" d="M15.43,12.98c-.08,0-.16-.01-.24-.04-.07-.03-.14-.07-.19-.13-.05-.05-.1-.12-.13-.19-.03-.08-.05-.16-.05-.25s.02-.17.05-.25c.03-.08.08-.14.13-.19.06-.05.12-.1.19-.13.07-.03.15-.05.24-.05s.16.01.24.05c.07.03.14.07.19.13.05.05.1.12.13.19.03.08.05.16.05.25s-.02.17-.05.25c-.03.08-.08.14-.13.19-.06.05-.12.1-.19.13-.07.03-.15.04-.24.04M15.43,12.72c.1,0,.17-.03.23-.1.06-.06.09-.15.09-.25s-.03-.19-.09-.25c-.06-.07-.14-.1-.23-.1s-.17.03-.23.1-.09.15-.09.25.03.19.09.25c.06.07.14.1.23.1"/>
        <path class="cls-3" d="M17.58,18.33H7.01c-.13,0-.23.1-.23.23s.1.23.23.23h10.57c.13,0,.23-.1.23-.23s-.1-.23-.23-.23"/>
      </g>
    </g>
  </g>
</svg>