<?xml version="1.0" encoding="UTF-8"?>
<svg id="Laag_2" data-name="Laag 2" xmlns="http://www.w3.org/2000/svg" xmlns:xlink="http://www.w3.org/1999/xlink" viewBox="0 0 16.76 16.14">
  <defs>
    <style>
      .cls-1 {
        clip-path: url(#clippath);
      }

      .cls-2 {
        fill: none;
      }

      .cls-2, .cls-3 {
        stroke-width: 0px;
      }

      .cls-3, .cls-4 {
        fill: #000;
      }

      .cls-4 {
        font-family: SourceSansPro-SemiBold, 'SourceSansPro SemiBold';
        font-size: 5.23px;
        font-weight: 600;
      }
    </style>
    <clipPath id="clippath">
      <rect class="cls-2" width="16.76" height="16.14"/>
    </clipPath>
  </defs>
  <g id="Laag_1-2" data-name="Laag 1">
    <g>
      <g class="cls-1">
        <path class="cls-3" d="M.37,2.18c-.03.05-.05.11-.03.17l1.87,9.37c.12.58.63,1,1.22,1h9.88c.59,0,1.11-.42,1.22-1l1.88-9.37c.01-.06,0-.12-.03-.17-.03-.05-.09-.08-.15-.1h0c-.05-.01-.11,0-.16.03-.05.03-.09.09-.1.15l-.5,2.48-.13-.07c-.21-.11-.38-.28-.57-.48-.31-.34-.69-.75-1.41-.75s-1.1.42-1.41.75c-.3.33-.56.61-1.08.61s-.78-.28-1.08-.6c-.31-.34-.69-.76-1.41-.76s-1.1.42-1.41.75c-.3.32-.56.61-1.08.61s-.78-.28-1.08-.6c-.31-.34-.69-.75-1.42-.75s-1.11.42-1.41.75c-.19.21-.35.38-.57.49l-.13.07-.5-2.48c-.01-.06-.05-.11-.1-.15-.04-.02-.08-.04-.12-.04-.01,0-.03,0-.04,0-.06.01-.11.05-.15.1M1.46,5.15c.36-.13.6-.37.86-.65.3-.33.56-.61,1.08-.61s.78.28,1.08.61c.31.34.69.75,1.41.75s1.11-.42,1.41-.75c.3-.33.56-.61,1.08-.61s.78.28,1.08.61c.31.34.69.75,1.41.75s1.1-.42,1.41-.75c.3-.33.56-.61,1.08-.61s.78.28,1.08.6c.24.27.49.52.86.65l.09.03v.04s-1.29,6.41-1.29,6.41c-.07.37-.4.64-.78.64H3.44c-.38,0-.7-.27-.78-.64l-1.29-6.45.09-.03Z"/>
        <path class="cls-3" d="M13.65,13.61H3.11c-.13,0-.23.1-.23.23s.1.23.23.23h10.54c.13,0,.23-.1.23-.23s-.1-.23-.23-.23"/>
      </g>
      <text class="cls-4" transform="translate(5.24 10.46)"><tspan x="0" y="0">60°</tspan></text>
    </g>
  </g>
</svg>